<mxfile host="app.diagrams.net" modified="2024-04-12T22:51:53.436Z" agent="Mozilla/5.0 (Macintosh; Intel Mac OS X 10_15_7) AppleWebKit/537.36 (KHTML, like Gecko) Chrome/123.0.0.0 Safari/537.36" etag="49VbYu11Mx3XnX6KkrDQ" version="24.2.3" type="github" pages="5">
  <diagram id="yyJCg45JmMv-zP9A26xm" name="Case1">
    <mxGraphModel dx="2475" dy="1662" grid="1" gridSize="10" guides="1" tooltips="1" connect="1" arrows="1" fold="1" page="1" pageScale="1" pageWidth="1169" pageHeight="827" math="0" shadow="0">
      <root>
        <mxCell id="0" />
        <mxCell id="1" parent="0" />
        <mxCell id="vBPXW9oMOhDfNp0NCbdv-1" value="" style="rounded=1;whiteSpace=wrap;html=1;strokeColor=#0070F2;fillColor=#EBF8FF;arcSize=32;absoluteArcSize=1;imageWidth=64;imageHeight=64;strokeWidth=1.5;" parent="1" vertex="1">
          <mxGeometry x="-822" y="-680.88" width="288" height="400.88" as="geometry" />
        </mxCell>
        <mxCell id="vBPXW9oMOhDfNp0NCbdv-2" value="" style="rounded=1;whiteSpace=wrap;html=1;strokeColor=#0070F2;strokeWidth=1.5;arcSize=16;fillColor=#FFFFFF;perimeterSpacing=0;absoluteArcSize=1;" parent="1" vertex="1">
          <mxGeometry x="-803.45" y="-626.75" width="250.45" height="176.75" as="geometry" />
        </mxCell>
        <mxCell id="vBPXW9oMOhDfNp0NCbdv-3" value="" style="shape=image;verticalLabelPosition=bottom;labelBackgroundColor=default;verticalAlign=top;aspect=fixed;imageAspect=0;image=data:image/svg+xml,PHN2ZyB4bWxuczp4bGluaz0iaHR0cDovL3d3dy53My5vcmcvMTk5OS94bGluayIgeG1sbnM9Imh0dHA6Ly93d3cudzMub3JnLzIwMDAvc3ZnIiB2aWV3Qm94PSIwIDAgMTQ0Ljc0NyAzOS44MzIiIGlkPSJhIj48ZGVmcz48bGluZWFyR3JhZGllbnQgZ3JhZGllbnRVbml0cz0idXNlclNwYWNlT25Vc2UiIHkyPSIzOS44MzIiIHgyPSI0MC4yNTgiIHkxPSIwIiB4MT0iNDAuMjU4IiBpZD0iYiI+PHN0b3Agc3RvcC1jb2xvcj0iIzAwYjhmMSIgb2Zmc2V0PSIwIi8+PHN0b3Agc3RvcC1jb2xvcj0iIzAwYjVlZiIgb2Zmc2V0PSIuMDE2Ii8+PHN0b3Agc3RvcC1jb2xvcj0iIzBkOTBkOCIgb2Zmc2V0PSIuMzA4Ii8+PHN0b3Agc3RvcC1jb2xvcj0iIzE2NzVjOCIgb2Zmc2V0PSIuNTc4Ii8+PHN0b3Agc3RvcC1jb2xvcj0iIzFjNjRiZSIgb2Zmc2V0PSIuODE3Ii8+PHN0b3Agc3RvcC1jb2xvcj0iIzFlNWZiYiIgb2Zmc2V0PSIxIi8+PC9saW5lYXJHcmFkaWVudD48L2RlZnM+PHBvbHlsaW5lIGZpbGwtcnVsZT0iZXZlbm9kZCIgZmlsbD0idXJsKCNiKSIgcG9pbnRzPSIwIDM5LjgzMiA0MC42OTIgMzkuODMyIDgwLjUxNyAwIDAgMCAwIDM5LjgzMiIvPjxwYXRoIGZpbGwtcnVsZT0iZXZlbm9kZCIgZmlsbD0iI2ZmZiIgZD0ibTQ3Ljc4Miw3LjQ4OWwtNy45MjUtLjAwNXYxOC44NDVsLTYuOTI0LTE4Ljg0NWgtNi44NjVsLTUuOTEyLDE1Ljc1OWMtLjYzLTMuOTczLTQuNzQtNS4zNDUtNy45NzQtNi4zNzQtMi4xMzUtLjY4Ni00LjQwMS0xLjY5NC00LjM4LTIuODA5LjAxNy0uOTE1LDEuMjE1LTEuNzY1LDMuNTg5LTEuNjM3LDEuNTk1LjA4NCwzLjAwMS4yMTMsNS44LDEuNTYzbDIuNzUzLTQuNzk1Yy0yLjU1NS0xLjMtNi4wODYtMi4xMjEtOC45NzgtMi4xMjRoLS4wMTdjLTMuMzc0LDAtNi4xODUsMS4wOTMtNy45MjgsMi44OTQtMS4yMTQsMS4yNTgtMS44NjksMi44NTYtMS44OTYsNC42MjMtLjA0NCwyLjQzMi44NDgsNC4xNTcsMi43MjEsNS41MzMsMS41ODMsMS4xNiwzLjYwNiwxLjkxMiw1LjM5LDIuNDY1LDIuMjAxLjY4MSwzLjk5NiwxLjI3NCwzLjk3NSwyLjUzOS0uMDE2LjQ1OS0uMTkxLjg4OC0uNTIxLDEuMjM2LS41NDguNTY2LTEuMzkxLjc3OS0yLjU1NS43OTktMi4yNDQuMDQ4LTMuOTEtLjMwMy02LjU2Mi0xLjg3bC0yLjQ0OCw0Ljg2MWMyLjY0NCwxLjUwNiw1Ljc3NiwyLjM4OCw4Ljk3MiwyLjM4OGwuNDExLS4wMDZjMi43ODItLjA1LDUuMDI2LS44NDIsNi44Mi0yLjI4Ni4xMDMtLjA4MS4xOTYtLjE2Ni4yOTEtLjI1bC0uNzk1LDIuMTIzaDcuMmwxLjIwOC0zLjY3NGMxLjI2NS40MzMsMi43MDQuNjcxLDQuMjMyLjY3MSwxLjQ4NywwLDIuODg5LS4yMjksNC4xMzEtLjYzNWwxLjE2NCwzLjYzN2gxMS43NDJ2LTcuNjA3aDIuNTYxYzYuMTg4LDAsOS44NTEtMy4xNTQsOS44NTEtOC40MzYsMC01Ljg4NS0zLjU1Ny04LjU4NS0xMS4xMzItOC41ODVabS0xOC4zMTcsMTYuMTI0Yy0uOTI1LDAtMS43OTItLjE2LTIuNTM5LS40NDNsMi41MTItNy45MjZoLjA0OGwyLjQ2OCw3Ljk0OGMtLjc0Mi4yNjMtMS41ODkuNDIxLTIuNDg4LjQyMVptMTguNzgzLTQuNTUzaC0xLjc0NnYtNi4zODZoMS43NDZjMi4zMjgsMCw0LjE4NS43NzMsNC4xODUsMy4xNTEsMCwyLjQ2MS0xLjg1NywzLjIzNi00LjE4NSwzLjIzNiIvPjxwYXRoIGZpbGw9IiMwMDJhODYiIGQ9Im04MC4yMTcsNy40MDFoMTAuMDYzYzUuNTk1LDAsOC42NzQsMS45MTcsOC42NzQsNi4xNTgsMCwyLjkwMy0xLjUxMyw1LjAxNC00LjMxMSw1LjcsMy4yOS40NTgsNS4yNzgsMi41ODYsNS4yNzgsNS44OTQsMCw1LjAxNC00LjA2NCw3LjAzNy05LjE4NCw3LjAzN2gtMTAuNTIxVjcuNDAxWm0xMy45NjksNi44MjZjMC0yLjE2NC0xLjQ5Ni0yLjk3My00LjI0LTIuOTczaC01LjA0OXY2LjI5OGg0Ljg5MWMzLjIwMiwwLDQuMzk4LTEuMTYxLDQuMzk4LTMuMzI1Wm0xLjAyMSwxMC41MjFjMC0yLjM1Ny0xLjc3Ny0zLjQ2Ni00LjgzOS0zLjQ2NmgtNS40NzF2Ny4wNTVoNS41MDZjMi44MTUsMCw0LjgwNC0uNzc0LDQuODA0LTMuNTg5WiIvPjxwYXRoIGZpbGw9IiMwMDJhODYiIGQ9Im0xMDkuMDUxLDExLjVoLTcuNTgzdi00LjA5OWgxOS44NDZ2NC4wOTloLTcuNTY1djIwLjY5aC00LjY5N1YxMS41WiIvPjxwYXRoIGZpbGw9IiMwMDJhODYiIGQ9Im0xMjUuMTQ4LDcuNDAxaDEwLjUwNGM2LjE5MiwwLDkuMDk2LDMuMTg1LDkuMDk2LDcuODk5LDAsNC4zOTgtMi44MzMsOC4xNDYtOC44NSw4LjE0NmgtNi4wN3Y4Ljc0NGgtNC42OFY3LjQwMVptMTQuOTAyLDcuOTUyYzAtMi41NTEtMS42ODktMy45MjMtNC45NDQtMy45MjNoLTUuMjc4djguMDRoNS40MTljMy4yNzIsMCw0LjgwNC0xLjU4Myw0LjgwNC00LjExN1oiLz48L3N2Zz4=;strokeWidth=1.5;" parent="1" vertex="1">
          <mxGeometry x="-803.45" y="-662.3299999999999" width="67.25" height="18.55" as="geometry" />
        </mxCell>
        <mxCell id="vBPXW9oMOhDfNp0NCbdv-15" value="&lt;font face=&quot;arial&quot; style=&quot;font-size: 16px;&quot;&gt;&lt;b style=&quot;font-size: 16px;&quot;&gt;Subaccount&lt;/b&gt;&lt;/font&gt;" style="text;html=1;align=left;verticalAlign=middle;resizable=0;points=[];autosize=1;strokeColor=none;fillColor=none;fontSize=12;fontColor=#1d2d3e;fontFamily=Helvetica;" parent="1" vertex="1">
          <mxGeometry x="-792" y="-616.74" width="120" height="30" as="geometry" />
        </mxCell>
        <mxCell id="YwKBWGz7PeEj-cUeG6wL-8" style="edgeStyle=orthogonalEdgeStyle;rounded=0;orthogonalLoop=1;jettySize=auto;html=1;" parent="1" source="CIvuhfZ1QCT_p_mVrZQE-1" target="YwKBWGz7PeEj-cUeG6wL-2" edge="1">
          <mxGeometry relative="1" as="geometry" />
        </mxCell>
        <mxCell id="CIvuhfZ1QCT_p_mVrZQE-1" value="" style="shape=image;verticalLabelPosition=bottom;labelBackgroundColor=default;verticalAlign=top;aspect=fixed;imageAspect=0;image=data:image/svg+xml,PHN2ZyB4bWxucz0iaHR0cDovL3d3dy53My5vcmcvMjAwMC9zdmciIGZpbGw9Im5vbmUiIHZpZXdCb3g9IjAgMCA0OCA0OCIgaGVpZ2h0PSI0OCIgd2lkdGg9IjQ4Ij4mI3hhOzxjaXJjbGUgc3Ryb2tlLXdpZHRoPSIwLjg1NzE0MyIgc3Ryb2tlPSIjRDVEQUREIiBmaWxsPSJ1cmwoI3BhaW50MF9saW5lYXJfMzIzMl80NjAyKSIgcj0iMjMuNTcxNCIgY3k9IjI0IiBjeD0iMjQiLz4mI3hhOzxnIGNsaXAtcGF0aD0idXJsKCNjbGlwMF8zMjMyXzQ2MDIpIj4mI3hhOzxwYXRoIGZpbGw9InVybCgjcGFpbnQxX2xpbmVhcl8zMjMyXzQ2MDIpIiBkPSJNMTUuNzUwNSAxNi42Njc3QzE2LjcyNDkgMTMuMzM2MiAxOS43OTc0IDEwLjQ5NjEgMjMuODY3NyAxMC40OTYxQzI3LjE2MzUgMTAuNDk2MSAyOS43MzQxIDEyLjE0NDYgMzEuMjU2MSAxNC42Mjg4QzM0LjYzOTYgMTUuMzAwMSAzNy4zNjc3IDE4LjMyMTcgMzcuMzY3NyAyMi4yMzE3QzM3LjM2NzcgMjUuNTg1NSAzNS40OTQ5IDI3Ljk4MzcgMzMuMDI0OCAyOS4xNDkyQzMzLjExMzYgMjguODUwNyAzMy4xNjEzIDI4LjUzNDQgMzMuMTYxMyAyOC4yMDdWMjYuOTgzOEMzMy4xNjEzIDI2LjE1ODkgMzIuODU4NiAyNS40MDQ4IDMyLjM1ODMgMjQuODI2M0MzMy4wMDkxIDI0LjIyMzcgMzMuNDE2NSAyMy4zNjE4IDMzLjQxNjUgMjIuNDA0OVYyMS40ODk2QzMzLjQxNjUgMTkuNjY3MyAzMS45MzkzIDE4LjE5MDEgMzAuMTE3IDE4LjE5MDFIMjkuMjA2NkMyOC4xOTkzIDE4LjE5MDEgMjcuMjk3MyAxOC42NDE1IDI2LjY5MjEgMTkuMzUzMVYxOC41ODkzQzI2LjY5MjEgMTYuNzY3IDI1LjIxNDkgMTUuMjg5OCAyMy4zOTI2IDE1LjI4OThIMjIuNDgyMkMyMC42NiAxNS4yODk4IDE5LjE4MjcgMTYuNzY3IDE5LjE4MjcgMTguNTg5M1YxOS41MDQ2QzE5LjE4MjcgMTkuNzQ5NyAxOS4yMDk1IDE5Ljk4ODUgMTkuMjYwMiAyMC4yMTg0QzE5LjIyODMgMjAuMjE3NSAxOS4xOTYyIDIwLjIxNyAxOS4xNjQxIDIwLjIxN0gxOC4yNTM3QzE2LjQzMTUgMjAuMjE3IDE0Ljk1NDIgMjEuNjk0MiAxNC45NTQyIDIzLjUxNjVWMjQuNDMxOEMxNC45NTQyIDI1LjkxNzkgMTUuOTM2OCAyNy4xNzQ2IDE3LjI4NzcgMjcuNTg3NkMxNi43OTIxIDI4LjE2NDkgMTYuNDkyNiAyOC45MTU0IDE2LjQ5MjYgMjkuNzM1OVYyOS44NjI4QzE0Ljk4OTcgMjkuNjY2NCAxMy42MTU5IDI5LjA4MjQgMTIuNTQ1MyAyOC4wMzU1QzExLjE5NTMgMjYuNzE1NiAxMC42MzIxIDI0Ljk1NjkgMTAuNjMyMSAyMy4yMDk3QzEwLjYzMjEgMjEuMjg3NyAxMS4zNzY1IDE5LjQxMjYgMTIuODYxMiAxOC4xMTA2QzEzLjY4ODIgMTcuMzg1MiAxNC42NzM2IDE2LjkgMTUuNzUwNSAxNi42Njc3WiIgY2xpcC1ydWxlPSJldmVub2RkIiBmaWxsLXJ1bGU9ImV2ZW5vZGQiLz4mI3hhOzxwYXRoIGZpbGw9InVybCgjcGFpbnQyX2xpbmVhcl8zMjMyXzQ2MDIpIiBkPSJNMjMuMzkyNiAxNi42NDAxQzI0LjQ2OTMgMTYuNjQwMSAyNS4zNDIxIDE3LjUxMyAyNS4zNDIxIDE4LjU4OTZWMTkuNTA0OUMyNS4zNDIxIDIwLjEwNTYgMjUuMDcwNCAyMC42NDI4IDI0LjY0MzMgMjEuMDAwNEwyNS4wMTM0IDIyLjIxMzhDMjUuNDk5MiAyMi4yNDMyIDI1LjkzNjkgMjIuNDUwNCAyNi4yNjI0IDIyLjc3MTJMMjcuMjU3MSAyMi4xOTYxVjIxLjQ4OTlDMjcuMjU3MSAyMC40MTMyIDI4LjEyOTkgMTkuNTQwNCAyOS4yMDY2IDE5LjU0MDRIMzAuMTE3QzMxLjE5MzcgMTkuNTQwNCAzMi4wNjY1IDIwLjQxMzIgMzIuMDY2NSAyMS40ODk5VjIyLjQwNTJDMzIuMDY2NSAyMy40ODE5IDMxLjE5MzcgMjQuMzU0NyAzMC4xMTcgMjQuMzU0N0gyOS4yMDY2QzI4LjY3ODQgMjQuMzU0NyAyOC4xOTkzIDI0LjE0NDcgMjcuODQ4MiAyMy44MDM2TDI2Ljg2MTMgMjQuMzc0MkwyNi44NDM0IDI0LjM0MzNWMjUuMDcwMUMyNi44NDM0IDI1LjA3NDUgMjYuODQzNCAyNS4wNzkgMjYuODQzNCAyNS4wODM0TDI3LjQyMzcgMjUuNDYzN0MyNy43NTc3IDI1LjE5NTMgMjguMTgyMSAyNS4wMzQ3IDI4LjY0MzkgMjUuMDM0N0gyOS44NjE3QzMwLjkzODQgMjUuMDM0NyAzMS44MTEyIDI1LjkwNzUgMzEuODExMiAyNi45ODQyVjI4LjIwNzRDMzEuODExMiAyOS4yODQxIDMwLjkzODQgMzAuMTU2OSAyOS44NjE3IDMwLjE1NjlIMjguNjQzOUMyNy41NjcyIDMwLjE1NjkgMjYuNjk0NCAyOS4yODQxIDI2LjY5NDQgMjguMjA3NFYyNy4wMDMzTDI2LjA5MTYgMjYuNjA4NEMyNS43NjExIDI2Ljg2NiAyNS4zNDU1IDI3LjAxOTYgMjQuODkzOSAyNy4wMTk2SDIzLjk4MzVDMjMuOTI5OCAyNy4wMTk2IDIzLjg3NjYgMjcuMDE3NCAyMy44MjM5IDI3LjAxMzFMMjIuNDQ2MSAyOC44NjMzQzIyLjU3NzggMjkuMTI1OSAyMi42NTE5IDI5LjQyMjQgMjIuNjUxOSAyOS43MzYyVjMwLjY1MTVDMjIuNjUxOSAzMS43MjgyIDIxLjc3OTEgMzIuNjAxIDIwLjcwMjQgMzIuNjAxSDE5Ljc5MjFDMTguNzE1NCAzMi42MDEgMTcuODQyNiAzMS43MjgyIDE3Ljg0MjYgMzAuNjUxNUwxNy44NDI2IDI5LjczNjJDMTcuODQyNiAyOC42NTk2IDE4LjcxNTQgMjcuNzg2NyAxOS43OTIxIDI3Ljc4NjdIMjAuNzAyNEMyMC44NDI4IDI3Ljc4NjcgMjAuOTc5OCAyNy44MDE2IDIxLjExMTcgMjcuODI5OEwyMi4zNjE0IDI2LjE1MThDMjIuMTU0NiAyNS44NDIyIDIyLjAzNCAyNS40NzAyIDIyLjAzNCAyNS4wNzAxVjI1LjA0NDVMMjEuMDE1NSAyNS4wNDQ1QzIwLjc1ODcgMjUuODIxMiAyMC4wMjY4IDI2LjM4MTcgMTkuMTY0MSAyNi4zODE3SDE4LjI1MzdDMTcuMTc3IDI2LjM4MTcgMTYuMzA0MiAyNS41MDg5IDE2LjMwNDIgMjQuNDMyMlYyMy41MTY5QzE2LjMwNDIgMjIuNDQwMiAxNy4xNzcgMjEuNTY3NCAxOC4yNTM3IDIxLjU2NzRIMTkuMTY0MUMyMC4xODY5IDIxLjU2NzQgMjEuMDI1OCAyMi4zNTUxIDIxLjEwNzEgMjMuMzU3TDIyLjIwNjQgMjMuMzU3QzIyLjQxNzQgMjIuODkwNiAyMi44MDY2IDIyLjUyMjEgMjMuMjg3MSAyMi4zMzgzTDIzLjAxNzUgMjEuNDU0NEgyMi40ODIyQzIxLjQwNTUgMjEuNDU0NCAyMC41MzI3IDIwLjU4MTYgMjAuNTMyNyAxOS41MDQ5VjE4LjU4OTZDMjAuNTMyNyAxNy41MTMgMjEuNDA1NSAxNi42NDAxIDIyLjQ4MjIgMTYuNjQwMUgyMy4zOTI2Wk0yMy42NTQ2IDE4LjU4OTZDMjMuNjU0NiAxOC40NDQ5IDIzLjUzNzMgMTguMzI3NiAyMy4zOTI2IDE4LjMyNzZMMjIuNDgyMiAxOC4zMjc2QzIyLjMzNzUgMTguMzI3NiAyMi4yMjAyIDE4LjQ0NDkgMjIuMjIwMiAxOC41ODk2VjE5LjUwNDlDMjIuMjIwMiAxOS42NDk2IDIyLjMzNzUgMTkuNzY2OSAyMi40ODIyIDE5Ljc2NjlIMjMuMzkyNkMyMy41MzczIDE5Ljc2NjkgMjMuNjU0NiAxOS42NDk2IDIzLjY1NDYgMTkuNTA0OVYxOC41ODk2Wk0zMC4zNzkgMjEuNDg5OUMzMC4zNzkgMjEuMzQ1MiAzMC4yNjE3IDIxLjIyNzkgMzAuMTE3IDIxLjIyNzlIMjkuMjA2NkMyOS4wNjE5IDIxLjIyNzkgMjguOTQ0NiAyMS4zNDUyIDI4Ljk0NDYgMjEuNDg5OVYyMi40MDUyQzI4Ljk0NDYgMjIuNTQ5OSAyOS4wNjE5IDIyLjY2NzIgMjkuMjA2NiAyMi42NjcySDMwLjExN0MzMC4yNjE3IDIyLjY2NzIgMzAuMzc5IDIyLjU0OTkgMzAuMzc5IDIyLjQwNTJWMjEuNDg5OVpNMzAuMTIzNyAyNi45ODQyQzMwLjEyMzcgMjYuODM5NSAzMC4wMDY0IDI2LjcyMjIgMjkuODYxNyAyNi43MjIySDI4LjY0MzlDMjguNDk5MiAyNi43MjIyIDI4LjM4MTkgMjYuODM5NSAyOC4zODE5IDI2Ljk4NDJWMjguMjA3NEMyOC4zODE5IDI4LjM1MjEgMjguNDk5MiAyOC40Njk0IDI4LjY0MzkgMjguNDY5NEgyOS44NjE3QzMwLjAwNjQgMjguNDY5NCAzMC4xMjM3IDI4LjM1MjEgMzAuMTIzNyAyOC4yMDc0VjI2Ljk4NDJaTTI0Ljg5MzkgMjMuODk3N0MyNS4wMzg2IDIzLjg5NzcgMjUuMTU1OSAyNC4wMTUgMjUuMTU1OSAyNC4xNTk3VjI1LjA3MDFDMjUuMTU1OSAyNS4yMTQ4IDI1LjAzODYgMjUuMzMyMSAyNC44OTM5IDI1LjMzMjFIMjMuOTgzNUMyMy44Mzg4IDI1LjMzMjEgMjMuNzIxNSAyNS4yMTQ4IDIzLjcyMTUgMjUuMDcwMVYyNC4xNTk3QzIzLjcyMTUgMjQuMDE1IDIzLjgzODggMjMuODk3NyAyMy45ODM1IDIzLjg5NzdIMjQuODkzOVpNMTkuMTY0MSAyMy4yNTQ5QzE5LjMwODggMjMuMjU0OSAxOS40MjYxIDIzLjM3MjIgMTkuNDI2MSAyMy41MTY5VjI0LjQzMjJDMTkuNDI2MSAyNC41NzY5IDE5LjMwODggMjQuNjk0MiAxOS4xNjQxIDI0LjY5NDJIMTguMjUzN0MxOC4xMDkgMjQuNjk0MiAxNy45OTE3IDI0LjU3NjkgMTcuOTkxNyAyNC40MzIyTDE3Ljk5MTcgMjMuNTE2OUMxNy45OTE3IDIzLjM3MjIgMTguMTA5IDIzLjI1NDkgMTguMjUzNyAyMy4yNTQ5SDE5LjE2NDFaTTIwLjk2NDQgMjkuNzM2MkMyMC45NjQ0IDI5LjU5MTUgMjAuODQ3MSAyOS40NzQyIDIwLjcwMjQgMjkuNDc0MkgxOS43OTIxQzE5LjY0NzQgMjkuNDc0MiAxOS41MzAxIDI5LjU5MTUgMTkuNTMwMSAyOS43MzYyVjMwLjY1MTVDMTkuNTMwMSAzMC43OTYyIDE5LjY0NzQgMzAuOTEzNSAxOS43OTIxIDMwLjkxMzVIMjAuNzAyNEMyMC44NDcxIDMwLjkxMzUgMjAuOTY0NCAzMC43OTYyIDIwLjk2NDQgMzAuNjUxNVYyOS43MzYyWiIgY2xpcC1ydWxlPSJldmVub2RkIiBmaWxsLXJ1bGU9ImV2ZW5vZGQiLz4mI3hhOzxwYXRoIGZpbGw9InVybCgjcGFpbnQzX2xpbmVhcl8zMjMyXzQ2MDIpIiBkPSJNMTMuMzEwNiAzMC44NjA4QzEzLjk2MyAzMC44NjA4IDE0LjQ5MTkgMzEuMzg5NyAxNC40OTE5IDMyLjA0MjFWMzMuMzcyOUMxNC40OTE5IDM0LjIxMTcgMTUuMTcxOSAzNC44OTE2IDE2LjAxMDYgMzQuODkxNkgzMS45ODk5QzMyLjgyODcgMzQuODkxNiAzMy41MDg2IDM0LjIxMTcgMzMuNTA4NiAzMy4zNzI5VjMyLjA0MjFDMzMuNTA4NiAzMS4zODk3IDM0LjAzNzUgMzAuODYwOCAzNC42ODk5IDMwLjg2MDhDMzUuMzQyMyAzMC44NjA4IDM1Ljg3MTIgMzEuMzg5NyAzNS44NzEyIDMyLjA0MjFWMzMuMzcyOUMzNS44NzEyIDM1LjUxNjQgMzQuMTMzNSAzNy4yNTQxIDMxLjk4OTkgMzcuMjU0MUgxNi4wMTA2QzEzLjg2NzEgMzcuMjU0MSAxMi4xMjk0IDM1LjUxNjQgMTIuMTI5NCAzMy4zNzI5VjMyLjA0MjFDMTIuMTI5NCAzMS4zODk3IDEyLjY1ODMgMzAuODYwOCAxMy4zMTA2IDMwLjg2MDhaTTMwLjgxNSAzMy4zMzIxQzMxLjM3NDIgMzMuMzMyMSAzMS44Mjc1IDMyLjg3ODggMzEuODI3NSAzMi4zMTk2QzMxLjgyNzUgMzEuNzYwNCAzMS4zNzQyIDMxLjMwNzEgMzAuODE1IDMxLjMwNzFDMzAuMjU1OCAzMS4zMDcxIDI5LjgwMjUgMzEuNzYwNCAyOS44MDI1IDMyLjMxOTZDMjkuODAyNSAzMi44Nzg4IDMwLjI1NTggMzMuMzMyMSAzMC44MTUgMzMuMzMyMVpNMjguNzI2MSAzMi4zMTk2QzI4LjcyNjEgMzIuODc4OCAyOC4yNzI3IDMzLjMzMjEgMjcuNzEzNiAzMy4zMzIxQzI3LjE1NDQgMzMuMzMyMSAyNi43MDExIDMyLjg3ODggMjYuNzAxMSAzMi4zMTk2QzI2LjcwMTEgMzEuNzYwNCAyNy4xNTQ0IDMxLjMwNzEgMjcuNzEzNiAzMS4zMDcxQzI4LjI3MjcgMzEuMzA3MSAyOC43MjYxIDMxLjc2MDQgMjguNzI2MSAzMi4zMTk2WiIgY2xpcC1ydWxlPSJldmVub2RkIiBmaWxsLXJ1bGU9ImV2ZW5vZGQiLz4mI3hhOzwvZz4mI3hhOzxkZWZzPiYjeGE7PGxpbmVhckdyYWRpZW50IGdyYWRpZW50VW5pdHM9InVzZXJTcGFjZU9uVXNlIiB5Mj0iNDQuMjQ0MyIgeDI9IjQxLjA2NDUiIHkxPSI2LjgxMjg0IiB4MT0iNC4zNTI4NyIgaWQ9InBhaW50MF9saW5lYXJfMzIzMl80NjAyIj4mI3hhOzxzdG9wIHN0b3AtY29sb3I9IndoaXRlIi8+JiN4YTs8c3RvcCBzdG9wLWNvbG9yPSIjRUFFQ0VFIiBvZmZzZXQ9IjEiLz4mI3hhOzwvbGluZWFyR3JhZGllbnQ+JiN4YTs8bGluZWFyR3JhZGllbnQgZ3JhZGllbnRVbml0cz0idXNlclNwYWNlT25Vc2UiIHkyPSIzMS4xODQiIHgyPSIyNy41MjMzIiB5MT0iMTMuMzkyMyIgeDE9IjE0LjYzOTkiIGlkPSJwYWludDFfbGluZWFyXzMyMzJfNDYwMiI+JiN4YTs8c3RvcCBzdG9wLWNvbG9yPSIjMDE5NUZGIi8+JiN4YTs8c3RvcCBzdG9wLWNvbG9yPSIjMTE0N0U5IiBvZmZzZXQ9IjAuOTkxMDI4Ii8+JiN4YTs8L2xpbmVhckdyYWRpZW50PiYjeGE7PGxpbmVhckdyYWRpZW50IGdyYWRpZW50VW5pdHM9InVzZXJTcGFjZU9uVXNlIiB5Mj0iMzAuMDY2NyIgeDI9IjI5LjgwNDQiIHkxPSIxOC45ODgzIiB4MT0iMTguNjM0NSIgaWQ9InBhaW50Ml9saW5lYXJfMzIzMl80NjAyIj4mI3hhOzxzdG9wIHN0b3AtY29sb3I9IiMxMzQ4RkYiLz4mI3hhOzxzdG9wIHN0b3AtY29sb3I9IiMwNjIzOEQiIG9mZnNldD0iMSIvPiYjeGE7PC9saW5lYXJHcmFkaWVudD4mI3hhOzxsaW5lYXJHcmFkaWVudCBncmFkaWVudFVuaXRzPSJ1c2VyU3BhY2VPblVzZSIgeTI9IjQwLjE0OTkiIHgyPSIxNy44Nzc5IiB5MT0iMzEuODAxNCIgeDE9IjE1LjYzOTUiIGlkPSJwYWludDNfbGluZWFyXzMyMzJfNDYwMiI+JiN4YTs8c3RvcCBzdG9wLWNvbG9yPSIjMTM0OEZGIi8+JiN4YTs8c3RvcCBzdG9wLWNvbG9yPSIjMDYyMzhEIiBvZmZzZXQ9IjEiLz4mI3hhOzwvbGluZWFyR3JhZGllbnQ+JiN4YTs8Y2xpcFBhdGggaWQ9ImNsaXAwXzMyMzJfNDYwMiI+JiN4YTs8cmVjdCB0cmFuc2Zvcm09InRyYW5zbGF0ZSgxMC41IDEwLjUpIiBmaWxsPSJ3aGl0ZSIgaGVpZ2h0PSIyNyIgd2lkdGg9IjI3Ii8+JiN4YTs8L2NsaXBQYXRoPiYjeGE7PC9kZWZzPiYjeGE7PC9zdmc+;points=[[0,0,0,0,0],[0,0.25,0,0,0],[0,0.5,0,0,0],[0,0.75,0,0,0],[0.25,0,0,0,0],[0.5,0,0,0,0],[0.75,0,0,0,0],[1,0,0,0,0],[1,0.25,0,0,0],[1,0.5,0,0,0],[1,0.75,0,0,0]];" parent="1" vertex="1">
          <mxGeometry x="-699" y="-561" width="48" height="48" as="geometry" />
        </mxCell>
        <mxCell id="CIvuhfZ1QCT_p_mVrZQE-2" value="&lt;font color=&quot;#1d2d3e&quot; size=&quot;1&quot; face=&quot;arial&quot; style=&quot;&quot;&gt;&lt;b style=&quot;font-size: 14px;&quot;&gt;Integration Suite&lt;br&gt;&lt;/b&gt;&lt;/font&gt;" style="text;html=1;align=center;verticalAlign=top;resizable=1;points=[[0,0.5,0,0,0],[0.21,1,0,0,0],[0.5,1,0,0,0],[0.85,1,0,0,0],[1,0.5,0,0,0]];autosize=0;strokeColor=none;fillColor=none;fontSize=12;fontColor=default;fontFamily=Helvetica;fixedWidth=1;imageWidth=24;whiteSpace=wrap;labelBackgroundColor=none;" parent="1" vertex="1">
          <mxGeometry x="-730" y="-513" width="110" height="46" as="geometry" />
        </mxCell>
        <mxCell id="YwKBWGz7PeEj-cUeG6wL-1" value="" style="group" parent="1" vertex="1" connectable="0">
          <mxGeometry x="-480" y="-472.9999999999999" width="240" height="70" as="geometry" />
        </mxCell>
        <mxCell id="YwKBWGz7PeEj-cUeG6wL-2" value="" style="rounded=1;whiteSpace=wrap;html=1;strokeColor=#0070F2;strokeWidth=1.5;arcSize=14;fillColor=#FFFFFF;perimeterSpacing=0;" parent="YwKBWGz7PeEj-cUeG6wL-1" vertex="1">
          <mxGeometry width="239.99999999999997" height="70" as="geometry" />
        </mxCell>
        <mxCell id="YwKBWGz7PeEj-cUeG6wL-3" value="" style="shape=image;verticalLabelPosition=bottom;labelBackgroundColor=default;verticalAlign=top;aspect=fixed;imageAspect=0;image=data:image/svg+xml,PHN2ZyB4bWxucz0iaHR0cDovL3d3dy53My5vcmcvMjAwMC9zdmciIGZpbGw9Im5vbmUiIHZpZXdCb3g9IjAgMCAxNyAxMiIgaGVpZ2h0PSIxMiIgd2lkdGg9IjE3Ij4mI3hhOzxwYXRoIGZpbGw9InVybCgjcGFpbnQwX2xpbmVhcl83MjRfMTQpIiBkPSJNMTIuMzQ2MSAxMS45OTc0SDMuODE0ODVDMy4zNTY1MiAxMS45OTc0IDIuOTE5MDIgMTEuOTAzNiAyLjUwMjM1IDExLjcxNjJDMi4wODU2OCAxMS41MDc4IDEuNzIxMSAxMS4yMzcgMS40MDg2IDEwLjkwMzZDMS4wOTYxIDEwLjU0OTUgMC44NDYxIDEwLjE0MzIgMC42NTg2IDkuNjg0OTFDMC40OTE5MyA5LjIyNjYxIDAuNDA4NiA4LjczNzAxIDAuNDA4NiA4LjIxNjIxQzAuNDA4NiA3LjcxNjE2IDAuNDkxOTMgNy4yMzY5OSAwLjY1ODYgNi43Nzg2NkMwLjg0NjEgNi4zMjAzMyAxLjA4NTY4IDUuOTI0NDkgMS4zNzczNSA1LjU5MTE2QzEuNjY5MDIgNS4yMzY5OSAyLjAxMjc3IDQuOTY2MTYgMi40MDg2IDQuNzc4NjZDMi44MjUyNyA0LjU3MDMzIDMuMjYyNzcgNC40NjYxNiAzLjcyMTEgNC40NjYxNkMzLjgyNTI3IDMuODQxMTYgNC4wMTI3NyAzLjI1NzgzIDQuMjgzNiAyLjcxNjE2QzQuNTU0NDMgMi4xNTM2NiA0Ljg5ODE4IDEuNjc0NDkgNS4zMTQ4NSAxLjI3ODY2QzUuNzMxNTIgMC44ODI4MzQgNi4yMDAyNyAwLjU3MDMzNCA2LjcyMTEgMC4zNDExNjRDNy4yNjI3NyAwLjExMTk5NCA3LjgyNTI3IC0wLjAwMjU4NjM2IDguNDA4NiAtMC4wMDI1ODYzNkM5LjMwNDQzIC0wLjAwMjU4NjM2IDEwLjEzNzcgMC4yNjgyNDQgMTAuOTA4NiAwLjgwOTkxNEMxMS42Nzk0IDEuMzUxNTggMTIuMjczMSAyLjA4MDc0IDEyLjY4OTggMi45OTc0MUMxMy4yMTA2IDMuMDM5MDggMTMuNzAwMiAzLjE4NDkxIDE0LjE1ODYgMy40MzQ5MUMxNC42MTY5IDMuNjg0OTEgMTUuMDEyOCA0LjAxODI0IDE1LjM0NjEgNC40MzQ5MUMxNS42Nzk1IDQuODMwNzQgMTUuOTM5OCA1LjI4OTA4IDE2LjEyNzMgNS44MDk5MUMxNi4zMTQ4IDYuMzMwNzQgMTYuNDA4NiA2Ljg5MzI0IDE2LjQwODYgNy40OTc0MUMxNi40MDg2IDguMTIyNDEgMTYuMzA0NSA4LjcxNjIxIDE2LjA5NjEgOS4yNzg2MUMxNS44ODc4IDkuODIwMzEgMTUuNTk2MSAxMC4yOTk1IDE1LjIyMTEgMTAuNzE2MkMxNC44NjcgMTEuMTEyIDE0LjQzOTggMTEuNDI0NSAxMy45Mzk4IDExLjY1MzZDMTMuNDM5OCAxMS44ODI4IDEyLjkwODcgMTEuOTk3NCAxMi4zNDYxIDExLjk5NzRaTTMuODE0ODUgNi4wNTk5MUMzLjMxNDg1IDYuMDU5OTEgMi44ODc3NyA2LjI2ODI0IDIuNTMzNiA2LjY4NDkxQzIuMTc5NDMgNy4xMDE1OCAyLjAwMjM1IDcuNjExOTkgMi4wMDIzNSA4LjIxNjIxQzIuMDAyMzUgOC44MjAzMSAyLjE3OTQzIDkuMzQxMjEgMi41MzM2IDkuNzc4NjFDMi44ODc3NyAxMC4xOTUzIDMuMzE0ODUgMTAuNDAzNiAzLjgxNDg1IDEwLjQwMzZIMTIuMzQ2MUMxMy4wMzM3IDEwLjQwMzYgMTMuNjE3IDEwLjEyMjQgMTQuMDk2MSA5LjU1OTkxQzE0LjU3NTMgOC45OTc0MSAxNC44MTQ4IDguMzA5OTEgMTQuODE0OCA3LjQ5NzQxQzE0LjgxNDggNi42NjQwOCAxNC41NzUzIDUuOTY2MTYgMTQuMDk2MSA1LjQwMzY2QzEzLjYxNyA0Ljg0MTE2IDEzLjAzMzcgNC41NTk5MSAxMi4zNDYxIDQuNTU5OTFIMTIuMTI3M0MxMS43NzMxIDQuNTU5OTEgMTEuNTIzMSA0LjM4MjgzIDExLjM3NzMgNC4wMjg2NkMxMS4xMjczIDMuMjk5NDkgMTAuNzMxNSAyLjcxNjE2IDEwLjE4OTggMi4yNzg2NkM5LjY0ODE1IDEuODIwMzMgOS4wNTQ0MyAxLjU5MTE2IDguNDA4NiAxLjU5MTE2QzcuOTcxMSAxLjU5MTE2IDcuNTY0ODUgMS42OTUzMyA3LjE4OTg1IDEuOTAzNjZDNi44MTQ4NSAyLjA5MTE2IDYuNDgxNTIgMi4zNTE1OCA2LjE4OTg1IDIuNjg0OTFDNS45MTkwMiAyLjk5NzQxIDUuNzAwMjcgMy4zODI4MyA1LjUzMzYgMy44NDExNkM1LjM2NjkzIDQuMjc4NjYgNS4yODM2IDQuNzQ3NDEgNS4yODM2IDUuMjQ3NDFDNS4yODM2IDUuNDc2NTggNS4yMDAyNyA1LjY3NDQ5IDUuMDMzNiA1Ljg0MTE2QzQuODg3NzcgNS45ODY5OSA0LjcwMDI3IDYuMDU5OTEgNC40NzExIDYuMDU5OTFIMy44MTQ4NVoiLz4mI3hhOzxkZWZzPiYjeGE7PGxpbmVhckdyYWRpZW50IGdyYWRpZW50VW5pdHM9InVzZXJTcGFjZU9uVXNlIiB5Mj0iMTAuMzM3MyIgeDI9IjE0LjI2MDIiIHkxPSIxLjEyNjIzIiB4MT0iMi40NzY0NiIgaWQ9InBhaW50MF9saW5lYXJfNzI0XzE0Ij4mI3hhOzxzdG9wIHN0b3AtY29sb3I9IiMyMzk1RkYiLz4mI3hhOzxzdG9wIHN0b3AtY29sb3I9IiMwMDU3RDIiIG9mZnNldD0iMSIvPiYjeGE7PC9saW5lYXJHcmFkaWVudD4mI3hhOzwvZGVmcz4mI3hhOzwvc3ZnPg==;strokeWidth=1.5;" parent="YwKBWGz7PeEj-cUeG6wL-1" vertex="1">
          <mxGeometry x="16.884422110552762" y="16.639999999999986" width="34.52" height="24.36" as="geometry" />
        </mxCell>
        <mxCell id="CIvuhfZ1QCT_p_mVrZQE-6" value="" style="shape=image;verticalLabelPosition=bottom;labelBackgroundColor=default;verticalAlign=top;aspect=fixed;imageAspect=0;image=data:image/svg+xml,PHN2ZyB4bWxuczp4bGluaz0iaHR0cDovL3d3dy53My5vcmcvMTk5OS94bGluayIgeG1sbnM9Imh0dHA6Ly93d3cudzMub3JnLzIwMDAvc3ZnIiB2aWV3Qm94PSIwIDAgMjI5LjQyNyAzOS44MzIiIGlkPSJhIj48ZGVmcz48bGluZWFyR3JhZGllbnQgZ3JhZGllbnRVbml0cz0idXNlclNwYWNlT25Vc2UiIHkyPSIzOS44MzIiIHgyPSI0MC4yNTgiIHkxPSIwIiB4MT0iNDAuMjU4IiBpZD0iYiI+PHN0b3Agc3RvcC1jb2xvcj0iIzAwYjhmMSIgb2Zmc2V0PSIwIi8+PHN0b3Agc3RvcC1jb2xvcj0iIzAwYjVlZiIgb2Zmc2V0PSIuMDE2Ii8+PHN0b3Agc3RvcC1jb2xvcj0iIzBkOTBkOCIgb2Zmc2V0PSIuMzA4Ii8+PHN0b3Agc3RvcC1jb2xvcj0iIzE2NzVjOCIgb2Zmc2V0PSIuNTc4Ii8+PHN0b3Agc3RvcC1jb2xvcj0iIzFjNjRiZSIgb2Zmc2V0PSIuODE3Ii8+PHN0b3Agc3RvcC1jb2xvcj0iIzFlNWZiYiIgb2Zmc2V0PSIxIi8+PC9saW5lYXJHcmFkaWVudD48L2RlZnM+PHBvbHlsaW5lIGZpbGwtcnVsZT0iZXZlbm9kZCIgZmlsbD0idXJsKCNiKSIgcG9pbnRzPSIwIDM5LjgzMiA0MC42OTIgMzkuODMyIDgwLjUxNyAwIDAgMCAwIDM5LjgzMiIvPjxwYXRoIGZpbGwtcnVsZT0iZXZlbm9kZCIgZmlsbD0iI2ZmZiIgZD0ibTQ3Ljc4Miw3LjQ4OWwtNy45MjUtLjAwNXYxOC44NDVsLTYuOTI0LTE4Ljg0NWgtNi44NjVsLTUuOTEyLDE1Ljc1OWMtLjYzLTMuOTczLTQuNzQtNS4zNDUtNy45NzQtNi4zNzQtMi4xMzUtLjY4Ni00LjQwMS0xLjY5NC00LjM4LTIuODA5LjAxNy0uOTE1LDEuMjE1LTEuNzY1LDMuNTg5LTEuNjM3LDEuNTk1LjA4NCwzLjAwMS4yMTMsNS44LDEuNTYzbDIuNzUzLTQuNzk1Yy0yLjU1NS0xLjMtNi4wODYtMi4xMjEtOC45NzgtMi4xMjRoLS4wMTdjLTMuMzc0LDAtNi4xODUsMS4wOTMtNy45MjgsMi44OTQtMS4yMTQsMS4yNTgtMS44NjksMi44NTYtMS44OTYsNC42MjMtLjA0NCwyLjQzMi44NDgsNC4xNTcsMi43MjEsNS41MzMsMS41ODMsMS4xNiwzLjYwNiwxLjkxMiw1LjM5LDIuNDY1LDIuMjAxLjY4MSwzLjk5NiwxLjI3NCwzLjk3NSwyLjUzOS0uMDE2LjQ1OS0uMTkxLjg4OC0uNTIxLDEuMjM2LS41NDguNTY2LTEuMzkxLjc3OS0yLjU1NS43OTktMi4yNDQuMDQ4LTMuOTEtLjMwMy02LjU2Mi0xLjg3bC0yLjQ0OCw0Ljg2MWMyLjY0NCwxLjUwNiw1Ljc3NiwyLjM4OCw4Ljk3MiwyLjM4OGwuNDExLS4wMDZjMi43ODItLjA1LDUuMDI2LS44NDIsNi44Mi0yLjI4Ni4xMDMtLjA4MS4xOTYtLjE2Ni4yOTEtLjI1bC0uNzk1LDIuMTIzaDcuMmwxLjIwOC0zLjY3NGMxLjI2NS40MzMsMi43MDQuNjcxLDQuMjMyLjY3MSwxLjQ4NywwLDIuODg5LS4yMjksNC4xMzEtLjYzNWwxLjE2NCwzLjYzN2gxMS43NDJ2LTcuNjA3aDIuNTYxYzYuMTg4LDAsOS44NTEtMy4xNTQsOS44NTEtOC40MzYsMC01Ljg4NS0zLjU1Ny04LjU4NS0xMS4xMzItOC41ODVabS0xOC4zMTcsMTYuMTI0Yy0uOTI1LDAtMS43OTItLjE2LTIuNTM5LS40NDNsMi41MTItNy45MjZoLjA0OGwyLjQ2OCw3Ljk0OGMtLjc0Mi4yNjMtMS41ODkuNDIxLTIuNDg4LjQyMVptMTguNzgzLTQuNTUzaC0xLjc0NnYtNi4zODZoMS43NDZjMi4zMjgsMCw0LjE4NS43NzMsNC4xODUsMy4xNTEsMCwyLjQ2MS0xLjg1NywzLjIzNi00LjE4NSwzLjIzNiIvPjxwYXRoIGZpbGw9IiMwMDJhODYiIGQ9Im03OC42MDUsMjguMzlsMi45OTEtMy4wMDhjMS41MTMsMS45NywzLjYyNCwzLjI5LDcuMTA3LDMuMjksMi44NSwwLDUuMDE0LS45NSw1LjAxNC0zLjI3MiwwLTIuNDQ1LTIuNDk4LTMuMTQ5LTUuODc2LTMuOTc2LTMuODg4LS45MzMtOC4xMTEtMi4yMTctOC4xMTEtNy4zODksMC00Ljg3NCwzLjk5NC03LjAwMiw5LjEzMS03LjAwMiw0LjA0NiwwLDYuOTY3LDEuMzM3LDguODg1LDMuNTcybC0yLjkwMywyLjkwM2MtMS41My0xLjc0Mi0zLjQzMS0yLjY5Mi02LjE0LTIuNjkyLTMuMDYxLDAtNC4zODEsMS4yNjctNC4zODEsMi45NTYsMCwyLjIzNCwyLjI3LDIuODMzLDUuNDAxLDMuNjI1LDQuMTcuOTg1LDguNjA0LDIuMTY0LDguNjA0LDcuNjUzLDAsNC40NTEtMy4zMjUsNy40OTUtOS43MTEsNy40OTUtNC42OCwwLTcuOTg3LTEuNTY2LTEwLjAxMS00LjE1MloiLz48cGF0aCBmaWxsPSIjMDAyYTg2IiBkPSJtMTA5Ljk0LDYuMjc1aDMuODdsLTEwLjg1NCwyNy4wNDFoLTMuODcxbDEwLjg1NS0yNy4wNDFaIi8+PHBhdGggZmlsbD0iIzAwMmE4NiIgZD0ibTEyMy40NTYsMjcuMjk5aC0xMS4zNjV2LTMuNjc3bDEwLjgxOS0xNi4yMjFoNC43MTV2MTYuMjU2aDMuMzA4djMuNjQyaC0zLjMwOHY0Ljg5MWgtNC4xNjl2LTQuODkxWm0wLTMuNjQydi04LjA0YzAtLjk4NSwwLTIuMTgyLjA3LTMuMjItLjMzNS42MTYtLjg5NywxLjQ3OC0xLjI2NywyLjA3NmwtNS4wNjcsNy42Yy0uMjk5LjQ0LS43OTIsMS4xNzktMS4wOTEsMS41ODNoNy4zNTRaIi8+PHBhdGggZmlsbD0iIzAwMmE4NiIgZD0ibTEzNC4xMjQsNy40MDFoNC42OHY5LjgxN2gxMC45NzlWNy40MDFoNC42OTd2MjQuNzg5aC00LjY5N3YtMTAuNjYyaC0xMC45Nzl2MTAuNjYyaC00LjY4VjcuNDAxWiIvPjxwYXRoIGZpbGw9IiMwMDJhODYiIGQ9Im0xNjUuODUsNy40MDFoNS40NzJsOS4wOTYsMjQuNzg5aC00LjgwM2wtMi4wMjMtNi4wMzVoLTEwLjExNmwtMi4wMjMsNi4wMzVoLTQuNjhsOS4wNzgtMjQuNzg5Wm02LjQ3NSwxNC45NzJsLTIuNTMzLTcuNTY1Yy0uNDIzLTEuMjMxLTEuMDAzLTIuOTAzLTEuMjY4LTMuODE4LS4yNjQuOTE1LS44MDksMi41ODYtMS4yMzEsMy44MThsLTIuNTMzLDcuNTY1aDcuNTY1WiIvPjxwYXRoIGZpbGw9IiMwMDJhODYiIGQ9Im0xODIuNjkzLDcuNDAxaDUuNTA3bDExLjIwNywxOS41NDZjLS4wODgtMS4wMDMtLjE1OC0zLjI1NS0uMTU4LTUuNDU0VjcuNDAxaDQuMjR2MjQuNzg5aC01LjY0N2wtMTEuMDY2LTE5LjNjLjA4OCwxLjAwMy4xNTgsMy4yMzcuMTU4LDUuNDU0djEzLjg0NmgtNC4yNFY3LjQwMVoiLz48cGF0aCBmaWxsPSIjMDAyYTg2IiBkPSJtMjE0Ljg1OSw3LjQwMWg1LjQ3Mmw5LjA5NiwyNC43ODloLTQuODAzbC0yLjAyMy02LjAzNWgtMTAuMTE2bC0yLjAyMyw2LjAzNWgtNC42OGw5LjA3OC0yNC43ODlabTYuNDc1LDE0Ljk3MmwtMi41MzMtNy41NjVjLS40MjMtMS4yMzEtMS4wMDMtMi45MDMtMS4yNjgtMy44MTgtLjI2NC45MTUtLjgwOSwyLjU4Ni0xLjIzMSwzLjgxOGwtMi41MzMsNy41NjVoNy41NjVaIi8+PC9zdmc+;" parent="YwKBWGz7PeEj-cUeG6wL-1" vertex="1">
          <mxGeometry x="66.91000000000003" y="25.7199999999999" width="106.19" height="18.55" as="geometry" />
        </mxCell>
        <mxCell id="YwKBWGz7PeEj-cUeG6wL-7" style="edgeStyle=orthogonalEdgeStyle;rounded=0;orthogonalLoop=1;jettySize=auto;html=1;" parent="1" source="YwKBWGz7PeEj-cUeG6wL-5" target="CIvuhfZ1QCT_p_mVrZQE-1" edge="1">
          <mxGeometry relative="1" as="geometry" />
        </mxCell>
        <mxCell id="YwKBWGz7PeEj-cUeG6wL-5" value="" style="rounded=1;whiteSpace=wrap;html=1;strokeColor=#0070F2;strokeWidth=1.5;arcSize=14;fillColor=#FFFFFF;perimeterSpacing=0;" parent="1" vertex="1">
          <mxGeometry x="-480" y="-669.9999999999999" width="239.99999999999997" height="70" as="geometry" />
        </mxCell>
        <mxCell id="YwKBWGz7PeEj-cUeG6wL-6" value="" style="shape=image;verticalLabelPosition=bottom;labelBackgroundColor=default;verticalAlign=top;aspect=fixed;imageAspect=0;image=data:image/svg+xml,PHN2ZyB4bWxuczp4bGluaz0iaHR0cDovL3d3dy53My5vcmcvMTk5OS94bGluayIgeG1sbnM9Imh0dHA6Ly93d3cudzMub3JnLzIwMDAvc3ZnIiB2aWV3Qm94PSIwIDAgMzMxLjQxIDM5LjgzIiBpZD0iTGF5b3V0Ij48ZGVmcz48c3R5bGU+LmNscy0xe2ZpbGw6dXJsKCNsaW5lYXItZ3JhZGllbnQpO30uY2xzLTEsLmNscy0ye2ZpbGwtcnVsZTpldmVub2RkO30uY2xzLTN7ZmlsbDojMDAyYTg2O30uY2xzLTJ7ZmlsbDojZmZmO308L3N0eWxlPjxsaW5lYXJHcmFkaWVudCBncmFkaWVudFVuaXRzPSJ1c2VyU3BhY2VPblVzZSIgeTI9IjM5LjgzIiB4Mj0iNDAuMjYiIHkxPSIwIiB4MT0iNDAuMjYiIGlkPSJsaW5lYXItZ3JhZGllbnQiPjxzdG9wIHN0b3AtY29sb3I9IiMwMGI4ZjEiIG9mZnNldD0iMCIvPjxzdG9wIHN0b3AtY29sb3I9IiMwMGI1ZWYiIG9mZnNldD0iLjAyIi8+PHN0b3Agc3RvcC1jb2xvcj0iIzBkOTBkOCIgb2Zmc2V0PSIuMzEiLz48c3RvcCBzdG9wLWNvbG9yPSIjMTY3NWM4IiBvZmZzZXQ9Ii41OCIvPjxzdG9wIHN0b3AtY29sb3I9IiMxYzY0YmUiIG9mZnNldD0iLjgyIi8+PHN0b3Agc3RvcC1jb2xvcj0iIzFlNWZiYiIgb2Zmc2V0PSIxIi8+PC9saW5lYXJHcmFkaWVudD48L2RlZnM+PHBvbHlsaW5lIHBvaW50cz0iMCAzOS44MyA0MC42OSAzOS44MyA4MC41MiAwIDAgMCAwIDM5LjgzIiBjbGFzcz0iY2xzLTEiLz48cGF0aCBkPSJtNDcuNzgsNy40OWgtNy45MnMwLDE4Ljg0LDAsMTguODRsLTYuOTItMTguODRoLTYuODZsLTUuOTEsMTUuNzZjLS42My0zLjk3LTQuNzQtNS4zNS03Ljk3LTYuMzctMi4xNC0uNjktNC40LTEuNjktNC4zOC0yLjgxLjAyLS45MiwxLjIyLTEuNzcsMy41OS0xLjY0LDEuNi4wOCwzLC4yMSw1LjgsMS41NmwyLjc1LTQuNzljLTIuNTYtMS4zLTYuMDktMi4xMi04Ljk4LTIuMTJoLS4wMmMtMy4zNywwLTYuMTgsMS4wOS03LjkzLDIuODktMS4yMSwxLjI2LTEuODcsMi44Ni0xLjksNC42Mi0uMDQsMi40My44NSw0LjE2LDIuNzIsNS41MywxLjU4LDEuMTYsMy42MSwxLjkxLDUuMzksMi40NywyLjIuNjgsNCwxLjI3LDMuOTgsMi41NC0uMDIuNDYtLjE5Ljg5LS41MiwxLjI0LS41NS41Ny0xLjM5Ljc4LTIuNTUuOC0yLjI0LjA1LTMuOTEtLjMtNi41Ni0xLjg3bC0yLjQ1LDQuODZjMi42NCwxLjUxLDUuNzgsMi4zOSw4Ljk3LDIuMzloLjQxYzIuNzgtLjA2LDUuMDMtLjg1LDYuODItMi4yOS4xLS4wOC4yLS4xNy4yOS0uMjVsLS44LDIuMTJoNy4ybDEuMjEtMy42N2MxLjI2LjQzLDIuNy42Nyw0LjIzLjY3czIuODktLjIzLDQuMTMtLjYzbDEuMTYsMy42NGgxMS43NHYtNy42MWgyLjU2YzYuMTksMCw5Ljg1LTMuMTUsOS44NS04LjQ0LDAtNS44OC0zLjU2LTguNTktMTEuMTMtOC41OVptLTE4LjMyLDE2LjEyYy0uOTIsMC0xLjc5LS4xNi0yLjU0LS40NGwyLjUxLTcuOTNoLjA1bDIuNDcsNy45NWMtLjc0LjI2LTEuNTkuNDItMi40OS40MlptMTguNzgtNC41NWgtMS43NXYtNi4zOWgxLjc1YzIuMzMsMCw0LjE4Ljc3LDQuMTgsMy4xNXMtMS44NiwzLjI0LTQuMTgsMy4yNCIgY2xhc3M9ImNscy0yIi8+PHBhdGggZD0ibTc4LjYxLDI4LjM5bDIuOTktMy4wMWMxLjUxLDEuOTcsMy42MiwzLjI5LDcuMTEsMy4yOSwyLjg1LDAsNS4wMS0uOTUsNS4wMS0zLjI3LDAtMi40NS0yLjUtMy4xNS01Ljg4LTMuOTgtMy44OS0uOTMtOC4xMS0yLjIyLTguMTEtNy4zOSwwLTQuODcsMy45OS03LDkuMTMtNyw0LjA1LDAsNi45NywxLjM0LDguODksMy41N2wtMi45LDIuOWMtMS41My0xLjc0LTMuNDMtMi42OS02LjE0LTIuNjktMy4wNiwwLTQuMzgsMS4yNy00LjM4LDIuOTYsMCwyLjIzLDIuMjcsMi44Myw1LjQsMy42Miw0LjE3Ljk4LDguNiwyLjE2LDguNiw3LjY1LDAsNC40NS0zLjMzLDcuNS05LjcxLDcuNS00LjY4LDAtNy45OS0xLjU3LTEwLjAxLTQuMTVaIiBjbGFzcz0iY2xzLTMiLz48cGF0aCBkPSJtMTAxLjY3LDI1LjYzdi0xMi42OGg0LjQ3djExLjYzYzAsMi41Ny44OCw0LjE1LDMuNDcsNC4xNXM0LjMxLTEuNzgsNC4zMS01LjAxdi0xMC43N2g0LjQzdjE5LjI1aC00LjI5di00LjA2aC0uMDljLS44OCwyLjIyLTIuNjIsNC40Mi02LjMyLDQuNDItNC4xMiwwLTUuOTgtMi44MS01Ljk4LTYuOTFaIiBjbGFzcz0iY2xzLTMiLz48cGF0aCBkPSJtMTIxLjgxLDIyLjU3YzAtNi40LDQuMDEtOS45OSw5LjY5LTkuOTksMy42NCwwLDYuMTYsMS40NCw3LjY5LDMuNTJsLTIuODUsMi41MmMtMS4xMS0xLjU1LTIuNTktMi40MS00LjY0LTIuNDEtMy4xMSwwLTUuMjMsMi4xMS01LjIzLDYuMzdzMi4xMSw2LjM3LDUuMjMsNi4zN2MyLjA0LDAsMy41Mi0uODgsNC42NC0yLjQzbDIuODUsMi41M2MtMS41MywyLjA4LTQuMDUsMy41LTcuNjksMy41LTUuNjgsMC05LjY5LTMuNTktOS42OS05Ljk4WiIgY2xhc3M9ImNscy0zIi8+PHBhdGggZD0ibTE0MC4yNiwyMi41N2MwLTYuNCw0LjAxLTkuOTksOS42OS05Ljk5LDMuNjQsMCw2LjE2LDEuNDQsNy42OSwzLjUybC0yLjg1LDIuNTJjLTEuMTEtMS41NS0yLjU5LTIuNDEtNC42NC0yLjQxLTMuMTEsMC01LjIzLDIuMTEtNS4yMyw2LjM3czIuMTEsNi4zNyw1LjIzLDYuMzdjMi4wNCwwLDMuNTItLjg4LDQuNjQtMi40M2wyLjg1LDIuNTNjLTEuNTMsMi4wOC00LjA1LDMuNS03LjY5LDMuNS01LjY4LDAtOS42OS0zLjU5LTkuNjktOS45OFoiIGNsYXNzPSJjbHMtMyIvPjxwYXRoIGQ9Im0xNTguNzEsMjIuNTdjMC02LjcsNC40Mi05Ljk5LDkuNjYtOS45OSw2LjQ0LDAsOC43Myw0LjcyLDguNzMsOS40LDAsLjU2LS4wNCwxLjE0LS4wNywxLjY5aC0xMy42MmMuMzIsMy42NiwyLjIyLDUuNCw1LjU2LDUuNCwyLjE2LDAsMy42MS0uNjMsNC45MS0yLjE1bDIuNTksMi41OWMtMS43OSwyLjAyLTMuOTksMy4wNC03LjcxLDMuMDQtNi4xOCwwLTEwLjA1LTMuNTQtMTAuMDUtOS45OFptMTMuOTUtMS42N2MtLjI1LTMuNC0xLjktNC44OS00LjQtNC44OXMtNC4zNCwxLjUtNC43OSw0Ljg5aDkuMThaIiBjbGFzcz0iY2xzLTMiLz48cGF0aCBkPSJtMTc4Ljc2LDI5LjU3bDIuNjctMi42N2MxLjUzLDEuNjksMy4xOCwyLjIyLDUuMjEsMi4yMnMzLjQ4LS41NiwzLjQ4LTIuMTVjMC0xLjc0LTEuNjQtMi4yMi00LjQtMi45NC0yLjk3LS43Ny02LjA3LTIuMDItNi4wNy01LjgyLDAtMy41NywyLjc1LTUuNjMsNy4zLTUuNjMsMi45NywwLDUuNDIuOTIsNy4xNCwyLjYybC0yLjYsMi42Yy0xLjMtMS4zNC0yLjktMS44My00LjQ3LTEuODMtMS44NSwwLTMuMDYuNjMtMy4wNiwyLjA0czEuNTcsMS44OCw0LjE3LDIuNTdjMy4wNC43Nyw2LjMyLDEuODMsNi4zMiw2LjA3LDAsMy43My0zLjAxLDUuODktNy43NCw1Ljg5LTMuMzYsMC02LjA5LS45NS03Ljk1LTIuOTdaIiBjbGFzcz0iY2xzLTMiLz48cGF0aCBkPSJtMTk2LjA3LDI5LjU3bDIuNjctMi42N2MxLjUzLDEuNjksMy4xOCwyLjIyLDUuMjEsMi4yMnMzLjQ4LS41NiwzLjQ4LTIuMTVjMC0xLjc0LTEuNjQtMi4yMi00LjQtMi45NC0yLjk3LS43Ny02LjA3LTIuMDItNi4wNy01LjgyLDAtMy41NywyLjc1LTUuNjMsNy4zLTUuNjMsMi45NywwLDUuNDIuOTIsNy4xNCwyLjYybC0yLjYsMi42Yy0xLjMtMS4zNC0yLjktMS44My00LjQ3LTEuODMtMS44NSwwLTMuMDYuNjMtMy4wNiwyLjA0czEuNTcsMS44OCw0LjE3LDIuNTdjMy4wNC43Nyw2LjMyLDEuODMsNi4zMiw2LjA3LDAsMy43My0zLjAxLDUuODktNy43NCw1Ljg5LTMuMzYsMC02LjA5LS45NS03Ljk1LTIuOTdaIiBjbGFzcz0iY2xzLTMiLz48cGF0aCBkPSJtMjE0LjYzLDcuNGgxNi4yN3Y0LjFoLTExLjU5djYuNzRoMTEuMTl2NC4wNmgtMTEuMTl2OS44OWgtNC42OFY3LjRaIiBjbGFzcz0iY2xzLTMiLz48cGF0aCBkPSJtMjMyLjU2LDI2Ljk1YzAtNC4xMywzLjM4LTYuMDcsOC4zOC02LjA3aDMuNDh2LTEuMTFjMC0yLjMyLTEuMTMtMy41OS0zLjQ3LTMuNTktMi4xOCwwLTMuNzEuOTMtNC45MSwyLjQ1bC0yLjY2LTIuNjRjMS43OC0xLjk0LDQuMTktMy40MSw4LjA0LTMuNDEsNC44OSwwLDcuNDIsMi41NSw3LjQyLDcuMjF2MTIuNGgtNC4yOXYtMy41N2gtLjExYy0xLjE4LDIuNjktMy4xMSwzLjkyLTYuMTQsMy45Mi0zLjM2LDAtNS43NS0yLjAxLTUuNzUtNS41OVptNy4zNCwyLjE2YzIuODcsMCw0LjUyLTIuMTYsNC41Mi00LjQzdi0xLjI1aC0yLjczYy0yLjU1LDAtNC43LjY5LTQuNywzLjEsMCwxLjYsMS4wOSwyLjU5LDIuOSwyLjU5WiIgY2xhc3M9ImNscy0zIi8+PHBhdGggZD0ibTI1MS4xMiwyMi41N2MwLTYuNCw0LjAxLTkuOTksOS42OS05Ljk5LDMuNjQsMCw2LjE2LDEuNDQsNy42OSwzLjUybC0yLjg1LDIuNTJjLTEuMTEtMS41NS0yLjU5LTIuNDEtNC42NC0yLjQxLTMuMTEsMC01LjIzLDIuMTEtNS4yMyw2LjM3czIuMTEsNi4zNyw1LjIzLDYuMzdjMi4wNCwwLDMuNTItLjg4LDQuNjQtMi40M2wyLjg1LDIuNTNjLTEuNTMsMi4wOC00LjA1LDMuNS03LjY5LDMuNS01LjY4LDAtOS42OS0zLjU5LTkuNjktOS45OFoiIGNsYXNzPSJjbHMtMyIvPjxwYXRoIGQ9Im0yNzIuMDMsMjcuMzl2LTExaC0yLjgxdi0yLjA0bDYuNDItNi40aC44NHY1aDQuMTd2My40NWgtNC4xN3YxMC4xM2MwLDEuNjkuNTUsMi4xNSwyLjA2LDIuMTUuNzYsMCwxLjQ4LS4xMiwyLjExLS4zdjMuODJjLS43Ny4xOS0xLjkyLjMyLTMuMDQuMzItMy44NywwLTUuNTgtMS40My01LjU4LTUuMTJaIiBjbGFzcz0iY2xzLTMiLz48cGF0aCBkPSJtMjgyLjE3LDIyLjU3YzAtNi4wNyw0LjA1LTkuOTksOS44LTkuOTlzOS44LDMuOTIsOS44LDkuOTktNC4wNSw5Ljk4LTkuOCw5Ljk4LTkuOC0zLjkxLTkuOC05Ljk4Wm0xNC45NCwwYzAtNC4xNS0yLjE1LTYuMzctNS4xNC02LjM3cy01LjE0LDIuMjItNS4xNCw2LjM3LDIuMTUsNi4zNyw1LjE0LDYuMzcsNS4xNC0yLjIzLDUuMTQtNi4zN1oiIGNsYXNzPSJjbHMtMyIvPjxwYXRoIGQ9Im0zMDQuNTUsMTIuOTRoNC4zMXY0LjEzaC4wN2MuNjUtMy4wOCwyLjA5LTQuNSw0LjUtNC41LjcsMCwxLjMuMTIsMS42NS4yNXY0LjE3Yy0uNDctLjEyLTEuMTgtLjIzLTEuODUtLjIzLTMuMTcsMC00LjI0LDIuMTgtNC4yNCw1Ljc1djkuNjhoLTQuNDVWMTIuOTRaIiBjbGFzcz0iY2xzLTMiLz48cGF0aCBkPSJtMzE1LjcxLDI5LjU3bDIuNjctMi42N2MxLjUzLDEuNjksMy4xOCwyLjIyLDUuMjEsMi4yMnMzLjQ4LS41NiwzLjQ4LTIuMTVjMC0xLjc0LTEuNjQtMi4yMi00LjQtMi45NC0yLjk3LS43Ny02LjA3LTIuMDItNi4wNy01LjgyLDAtMy41NywyLjc1LTUuNjMsNy4zLTUuNjMsMi45NywwLDUuNDIuOTIsNy4xNCwyLjYybC0yLjYsMi42Yy0xLjMtMS4zNC0yLjktMS44My00LjQ3LTEuODMtMS44NSwwLTMuMDYuNjMtMy4wNiwyLjA0czEuNTcsMS44OCw0LjE3LDIuNTdjMy4wNC43Nyw2LjMyLDEuODMsNi4zMiw2LjA3LDAsMy43My0zLjAxLDUuODktNy43NCw1Ljg5LTMuMzYsMC02LjA5LS45NS03Ljk1LTIuOTdaIiBjbGFzcz0iY2xzLTMiLz48L3N2Zz4=;" parent="1" vertex="1">
          <mxGeometry x="-436.76" y="-645.3" width="153.51" height="18.55" as="geometry" />
        </mxCell>
        <mxCell id="W8oQENh5KjzvCIbhy1GL-1" value="&lt;font size=&quot;1&quot; face=&quot;arial&quot; style=&quot;&quot;&gt;&lt;span style=&quot;font-size: 12px;&quot;&gt;Custo: 4.635,00 EUR&lt;/span&gt;&lt;/font&gt;" style="text;html=1;align=center;verticalAlign=middle;resizable=0;points=[[0,0.5,0,0,0],[0.5,0,0,0,0],[0.5,1,0,0,0],[1,0.5,0,0,0]];autosize=1;strokeColor=none;fillColor=none;fontSize=12;fontColor=#1D2D3E;fontFamily=Helvetica;" vertex="1" parent="1">
          <mxGeometry x="-476.76" y="-330" width="140" height="30" as="geometry" />
        </mxCell>
      </root>
    </mxGraphModel>
  </diagram>
  <diagram id="RUmdBoAh6CZZ3JMPfJLW" name="Case2">
    <mxGraphModel dx="1306" dy="835" grid="1" gridSize="10" guides="1" tooltips="1" connect="1" arrows="1" fold="1" page="1" pageScale="1" pageWidth="850" pageHeight="1100" math="0" shadow="0">
      <root>
        <mxCell id="0" />
        <mxCell id="1" parent="0" />
        <mxCell id="QTPRlEsnN05-uR4Lkp8C-1" value="" style="rounded=1;whiteSpace=wrap;html=1;strokeColor=#0070F2;fillColor=#EBF8FF;arcSize=32;absoluteArcSize=1;imageWidth=64;imageHeight=64;strokeWidth=1.5;" parent="1" vertex="1">
          <mxGeometry x="70" y="160" width="518" height="370" as="geometry" />
        </mxCell>
        <mxCell id="QTPRlEsnN05-uR4Lkp8C-2" value="" style="rounded=1;whiteSpace=wrap;html=1;strokeColor=#0070F2;strokeWidth=1.5;arcSize=16;fillColor=#FFFFFF;perimeterSpacing=0;absoluteArcSize=1;" parent="1" vertex="1">
          <mxGeometry x="100" y="214.13" width="469" height="275.87" as="geometry" />
        </mxCell>
        <mxCell id="QTPRlEsnN05-uR4Lkp8C-3" value="" style="shape=image;verticalLabelPosition=bottom;labelBackgroundColor=default;verticalAlign=top;aspect=fixed;imageAspect=0;image=data:image/svg+xml,PHN2ZyB4bWxuczp4bGluaz0iaHR0cDovL3d3dy53My5vcmcvMTk5OS94bGluayIgeG1sbnM9Imh0dHA6Ly93d3cudzMub3JnLzIwMDAvc3ZnIiB2aWV3Qm94PSIwIDAgMTQ0Ljc0NyAzOS44MzIiIGlkPSJhIj48ZGVmcz48bGluZWFyR3JhZGllbnQgZ3JhZGllbnRVbml0cz0idXNlclNwYWNlT25Vc2UiIHkyPSIzOS44MzIiIHgyPSI0MC4yNTgiIHkxPSIwIiB4MT0iNDAuMjU4IiBpZD0iYiI+PHN0b3Agc3RvcC1jb2xvcj0iIzAwYjhmMSIgb2Zmc2V0PSIwIi8+PHN0b3Agc3RvcC1jb2xvcj0iIzAwYjVlZiIgb2Zmc2V0PSIuMDE2Ii8+PHN0b3Agc3RvcC1jb2xvcj0iIzBkOTBkOCIgb2Zmc2V0PSIuMzA4Ii8+PHN0b3Agc3RvcC1jb2xvcj0iIzE2NzVjOCIgb2Zmc2V0PSIuNTc4Ii8+PHN0b3Agc3RvcC1jb2xvcj0iIzFjNjRiZSIgb2Zmc2V0PSIuODE3Ii8+PHN0b3Agc3RvcC1jb2xvcj0iIzFlNWZiYiIgb2Zmc2V0PSIxIi8+PC9saW5lYXJHcmFkaWVudD48L2RlZnM+PHBvbHlsaW5lIGZpbGwtcnVsZT0iZXZlbm9kZCIgZmlsbD0idXJsKCNiKSIgcG9pbnRzPSIwIDM5LjgzMiA0MC42OTIgMzkuODMyIDgwLjUxNyAwIDAgMCAwIDM5LjgzMiIvPjxwYXRoIGZpbGwtcnVsZT0iZXZlbm9kZCIgZmlsbD0iI2ZmZiIgZD0ibTQ3Ljc4Miw3LjQ4OWwtNy45MjUtLjAwNXYxOC44NDVsLTYuOTI0LTE4Ljg0NWgtNi44NjVsLTUuOTEyLDE1Ljc1OWMtLjYzLTMuOTczLTQuNzQtNS4zNDUtNy45NzQtNi4zNzQtMi4xMzUtLjY4Ni00LjQwMS0xLjY5NC00LjM4LTIuODA5LjAxNy0uOTE1LDEuMjE1LTEuNzY1LDMuNTg5LTEuNjM3LDEuNTk1LjA4NCwzLjAwMS4yMTMsNS44LDEuNTYzbDIuNzUzLTQuNzk1Yy0yLjU1NS0xLjMtNi4wODYtMi4xMjEtOC45NzgtMi4xMjRoLS4wMTdjLTMuMzc0LDAtNi4xODUsMS4wOTMtNy45MjgsMi44OTQtMS4yMTQsMS4yNTgtMS44NjksMi44NTYtMS44OTYsNC42MjMtLjA0NCwyLjQzMi44NDgsNC4xNTcsMi43MjEsNS41MzMsMS41ODMsMS4xNiwzLjYwNiwxLjkxMiw1LjM5LDIuNDY1LDIuMjAxLjY4MSwzLjk5NiwxLjI3NCwzLjk3NSwyLjUzOS0uMDE2LjQ1OS0uMTkxLjg4OC0uNTIxLDEuMjM2LS41NDguNTY2LTEuMzkxLjc3OS0yLjU1NS43OTktMi4yNDQuMDQ4LTMuOTEtLjMwMy02LjU2Mi0xLjg3bC0yLjQ0OCw0Ljg2MWMyLjY0NCwxLjUwNiw1Ljc3NiwyLjM4OCw4Ljk3MiwyLjM4OGwuNDExLS4wMDZjMi43ODItLjA1LDUuMDI2LS44NDIsNi44Mi0yLjI4Ni4xMDMtLjA4MS4xOTYtLjE2Ni4yOTEtLjI1bC0uNzk1LDIuMTIzaDcuMmwxLjIwOC0zLjY3NGMxLjI2NS40MzMsMi43MDQuNjcxLDQuMjMyLjY3MSwxLjQ4NywwLDIuODg5LS4yMjksNC4xMzEtLjYzNWwxLjE2NCwzLjYzN2gxMS43NDJ2LTcuNjA3aDIuNTYxYzYuMTg4LDAsOS44NTEtMy4xNTQsOS44NTEtOC40MzYsMC01Ljg4NS0zLjU1Ny04LjU4NS0xMS4xMzItOC41ODVabS0xOC4zMTcsMTYuMTI0Yy0uOTI1LDAtMS43OTItLjE2LTIuNTM5LS40NDNsMi41MTItNy45MjZoLjA0OGwyLjQ2OCw3Ljk0OGMtLjc0Mi4yNjMtMS41ODkuNDIxLTIuNDg4LjQyMVptMTguNzgzLTQuNTUzaC0xLjc0NnYtNi4zODZoMS43NDZjMi4zMjgsMCw0LjE4NS43NzMsNC4xODUsMy4xNTEsMCwyLjQ2MS0xLjg1NywzLjIzNi00LjE4NSwzLjIzNiIvPjxwYXRoIGZpbGw9IiMwMDJhODYiIGQ9Im04MC4yMTcsNy40MDFoMTAuMDYzYzUuNTk1LDAsOC42NzQsMS45MTcsOC42NzQsNi4xNTgsMCwyLjkwMy0xLjUxMyw1LjAxNC00LjMxMSw1LjcsMy4yOS40NTgsNS4yNzgsMi41ODYsNS4yNzgsNS44OTQsMCw1LjAxNC00LjA2NCw3LjAzNy05LjE4NCw3LjAzN2gtMTAuNTIxVjcuNDAxWm0xMy45NjksNi44MjZjMC0yLjE2NC0xLjQ5Ni0yLjk3My00LjI0LTIuOTczaC01LjA0OXY2LjI5OGg0Ljg5MWMzLjIwMiwwLDQuMzk4LTEuMTYxLDQuMzk4LTMuMzI1Wm0xLjAyMSwxMC41MjFjMC0yLjM1Ny0xLjc3Ny0zLjQ2Ni00LjgzOS0zLjQ2NmgtNS40NzF2Ny4wNTVoNS41MDZjMi44MTUsMCw0LjgwNC0uNzc0LDQuODA0LTMuNTg5WiIvPjxwYXRoIGZpbGw9IiMwMDJhODYiIGQ9Im0xMDkuMDUxLDExLjVoLTcuNTgzdi00LjA5OWgxOS44NDZ2NC4wOTloLTcuNTY1djIwLjY5aC00LjY5N1YxMS41WiIvPjxwYXRoIGZpbGw9IiMwMDJhODYiIGQ9Im0xMjUuMTQ4LDcuNDAxaDEwLjUwNGM2LjE5MiwwLDkuMDk2LDMuMTg1LDkuMDk2LDcuODk5LDAsNC4zOTgtMi44MzMsOC4xNDYtOC44NSw4LjE0NmgtNi4wN3Y4Ljc0NGgtNC42OFY3LjQwMVptMTQuOTAyLDcuOTUyYzAtMi41NTEtMS42ODktMy45MjMtNC45NDQtMy45MjNoLTUuMjc4djguMDRoNS40MTljMy4yNzIsMCw0LjgwNC0xLjU4Myw0LjgwNC00LjExN1oiLz48L3N2Zz4=;strokeWidth=1.5;" parent="1" vertex="1">
          <mxGeometry x="89.99999999999994" y="178.55000000000007" width="67.25" height="18.55" as="geometry" />
        </mxCell>
        <mxCell id="QTPRlEsnN05-uR4Lkp8C-14" value="&lt;font face=&quot;arial&quot; style=&quot;font-size: 16px;&quot;&gt;&lt;b style=&quot;font-size: 16px;&quot;&gt;Subaccount&lt;/b&gt;&lt;/font&gt;" style="text;html=1;align=left;verticalAlign=middle;resizable=0;points=[];autosize=1;strokeColor=none;fillColor=none;fontSize=12;fontColor=#1d2d3e;fontFamily=Helvetica;" parent="1" vertex="1">
          <mxGeometry x="110" y="220" width="120" height="30" as="geometry" />
        </mxCell>
        <mxCell id="QTPRlEsnN05-uR4Lkp8C-28" value="" style="group" parent="1" vertex="1" connectable="0">
          <mxGeometry x="642" y="160.88" width="242.00000000000006" height="70" as="geometry" />
        </mxCell>
        <mxCell id="QTPRlEsnN05-uR4Lkp8C-29" value="" style="rounded=1;whiteSpace=wrap;html=1;strokeColor=#0070F2;strokeWidth=1.5;arcSize=14;fillColor=#FFFFFF;perimeterSpacing=0;" parent="QTPRlEsnN05-uR4Lkp8C-28" vertex="1">
          <mxGeometry width="240" height="70" as="geometry" />
        </mxCell>
        <mxCell id="QTPRlEsnN05-uR4Lkp8C-30" value="" style="shape=image;verticalLabelPosition=bottom;labelBackgroundColor=default;verticalAlign=top;aspect=fixed;imageAspect=0;image=data:image/svg+xml,PHN2ZyB4bWxucz0iaHR0cDovL3d3dy53My5vcmcvMjAwMC9zdmciIGZpbGw9Im5vbmUiIHZpZXdCb3g9IjAgMCAxNiAxNyIgaGVpZ2h0PSIxNyIgd2lkdGg9IjE2Ij4mI3hhOzxwYXRoIGZpbGw9InVybCgjcGFpbnQwX2xpbmVhcl83MjRfMTIpIiBkPSJNMTQuMzMzNSA1LjgzNDk0QzE0LjU4MzUgNi4wODQ5NCAxNC43ODE0IDYuMzc2NjEgMTQuOTI3MiA2LjcwOTk0QzE1LjA5MzkgNy4wMjI0NCAxNS4xNzcyIDcuMzY2MTkgMTUuMTc3MiA3Ljc0MTE5VjE0LjQyODdDMTUuMTc3MiAxNS4xMzcgMTQuOTM3NiAxNS43MjA0IDE0LjQ1ODUgMTYuMTc4N0MxMy45NzkzIDE2LjY1NzkgMTMuMzg1NSAxNi44OTc1IDEyLjY3NzIgMTYuODk3NUgyLjc3MDk0QzIuMDgzNDQgMTYuODk3NSAxLjUwMDExIDE2LjY1NzkgMS4wMjA5NCAxNi4xNzg3QzAuNTQxNzY4IDE1LjcyMDQgMC4zMDIxODUgMTUuMTM3IDAuMzAyMTg1IDE0LjQyODdWNy43NDExOUMwLjMwMjE4NSA2Ljk0OTUyIDAuNTgzNDM1IDYuMzE0MTEgMS4xNDU5NCA1LjgzNDk0TDYuMDgzNDQgMS41NTM2OUM2LjU4MzQ0IDEuMTM3MDIgNy4xNDU5NCAwLjkyODY4OCA3Ljc3MDk0IDAuOTI4Njg4QzguMzk1OTQgMC45Mjg2ODggOC45Mzc2MSAxLjEzNzAyIDkuMzk1OTQgMS41NTM2OUwxNC4zMzM1IDUuODM0OTRaTTguOTg5NjkgMTAuMzAzN0g2LjQ4OTY5VjE1LjI3MjVIOC45ODk2OVYxMC4zMDM3Wk0xMy40MjcyIDcuNzQxMTlDMTMuNDI3MiA3LjQ3MDM2IDEzLjM0MzkgNy4yNTE2MSAxMy4xNzcyIDcuMDg0OTRMOC4yMzk2OSAyLjgwMzY5QzcuODg1NTIgMi41MzI4NiA3LjUyMDk0IDIuNTMyODYgNy4xNDU5NCAyLjgwMzY5TDIuMjA4NDQgNy4wODQ5NEMyLjA0MTc3IDcuMjUxNjEgMS45NTg0NCA3LjQ3MDM2IDEuOTU4NDQgNy43NDExOVYxNC40Mjg3QzEuOTU4NDQgMTQuNjc4NyAyLjAzMTM2IDE0Ljg4NyAyLjE3NzE5IDE1LjA1MzdDMi4zNDM4NiAxNS4xOTk1IDIuNTQxNzcgMTUuMjcyNSAyLjc3MDk0IDE1LjI3MjVINC44MzM0NFYxMC4zMDM3QzQuODMzNDQgOS44NDUzNiA0Ljk4OTY5IDkuNDU5OTQgNS4zMDIxOSA5LjE0NzQ0QzUuNjM1NTIgOC44MTQxMSA2LjAzMTM2IDguNjQ3NDQgNi40ODk2OSA4LjY0NzQ0SDguOTg5NjlDOS40NDgwMiA4LjY0NzQ0IDkuODMzNDkgOC44MTQxMSAxMC4xNDU5IDkuMTQ3NDRDMTAuNDU4NSA5LjQ1OTk0IDEwLjYxNDcgOS44NDUzNiAxMC42MTQ3IDEwLjMwMzdWMTUuMjcyNUgxMi42NzcyQzEyLjkyNzIgMTUuMjcyNSAxMy4xMjUxIDE1LjE5OTUgMTMuMjcwOSAxNS4wNTM3QzEzLjQzNzYgMTQuODg3IDEzLjUyMDkgMTQuNjc4NyAxMy41MjA5IDE0LjQyODdMMTMuNDI3MiA3Ljc0MTE5WiIvPiYjeGE7PGRlZnM+JiN4YTs8bGluZWFyR3JhZGllbnQgZ3JhZGllbnRVbml0cz0idXNlclNwYWNlT25Vc2UiIHkyPSI5Ljg1NDkiIHgyPSIxNS44MTkzIiB5MT0iMi40MzA4NCIgeDE9IjIuMjI0NjQiIGlkPSJwYWludDBfbGluZWFyXzcyNF8xMiI+JiN4YTs8c3RvcCBzdG9wLWNvbG9yPSIjMjM5NUZGIi8+JiN4YTs8c3RvcCBzdG9wLWNvbG9yPSIjMDA1N0QyIiBvZmZzZXQ9IjEiLz4mI3hhOzwvbGluZWFyR3JhZGllbnQ+JiN4YTs8L2RlZnM+JiN4YTs8L3N2Zz4=;strokeWidth=1.5;" parent="QTPRlEsnN05-uR4Lkp8C-28" vertex="1">
          <mxGeometry x="14" y="13.82000000000005" width="28.24" height="30" as="geometry" />
        </mxCell>
        <mxCell id="QTPRlEsnN05-uR4Lkp8C-31" value="&lt;font face=&quot;arial&quot; style=&quot;font-size: 16px;&quot;&gt;&lt;b style=&quot;font-size: 16px;&quot;&gt;SAP S/4HANA&lt;br&gt;On-Premise Solutions&lt;/b&gt;&lt;/font&gt;" style="text;html=1;align=left;verticalAlign=middle;resizable=0;points=[];autosize=1;strokeColor=none;fillColor=none;fontSize=12;fontColor=#1d2d3e;fontFamily=Helvetica;" parent="QTPRlEsnN05-uR4Lkp8C-28" vertex="1">
          <mxGeometry x="52.00000000000006" y="10" width="190" height="50" as="geometry" />
        </mxCell>
        <mxCell id="QTPRlEsnN05-uR4Lkp8C-32" value="" style="group" parent="1" vertex="1" connectable="0">
          <mxGeometry x="642" y="354.88" width="240" height="70" as="geometry" />
        </mxCell>
        <mxCell id="QTPRlEsnN05-uR4Lkp8C-33" value="" style="rounded=1;whiteSpace=wrap;html=1;strokeColor=#0070F2;strokeWidth=1.5;arcSize=14;fillColor=#FFFFFF;perimeterSpacing=0;" parent="QTPRlEsnN05-uR4Lkp8C-32" vertex="1">
          <mxGeometry width="239.99999999999997" height="70" as="geometry" />
        </mxCell>
        <mxCell id="QTPRlEsnN05-uR4Lkp8C-34" value="" style="shape=image;verticalLabelPosition=bottom;labelBackgroundColor=default;verticalAlign=top;aspect=fixed;imageAspect=0;image=data:image/svg+xml,PHN2ZyB4bWxucz0iaHR0cDovL3d3dy53My5vcmcvMjAwMC9zdmciIGZpbGw9Im5vbmUiIHZpZXdCb3g9IjAgMCAxNyAxMiIgaGVpZ2h0PSIxMiIgd2lkdGg9IjE3Ij4mI3hhOzxwYXRoIGZpbGw9InVybCgjcGFpbnQwX2xpbmVhcl83MjRfMTQpIiBkPSJNMTIuMzQ2MSAxMS45OTc0SDMuODE0ODVDMy4zNTY1MiAxMS45OTc0IDIuOTE5MDIgMTEuOTAzNiAyLjUwMjM1IDExLjcxNjJDMi4wODU2OCAxMS41MDc4IDEuNzIxMSAxMS4yMzcgMS40MDg2IDEwLjkwMzZDMS4wOTYxIDEwLjU0OTUgMC44NDYxIDEwLjE0MzIgMC42NTg2IDkuNjg0OTFDMC40OTE5MyA5LjIyNjYxIDAuNDA4NiA4LjczNzAxIDAuNDA4NiA4LjIxNjIxQzAuNDA4NiA3LjcxNjE2IDAuNDkxOTMgNy4yMzY5OSAwLjY1ODYgNi43Nzg2NkMwLjg0NjEgNi4zMjAzMyAxLjA4NTY4IDUuOTI0NDkgMS4zNzczNSA1LjU5MTE2QzEuNjY5MDIgNS4yMzY5OSAyLjAxMjc3IDQuOTY2MTYgMi40MDg2IDQuNzc4NjZDMi44MjUyNyA0LjU3MDMzIDMuMjYyNzcgNC40NjYxNiAzLjcyMTEgNC40NjYxNkMzLjgyNTI3IDMuODQxMTYgNC4wMTI3NyAzLjI1NzgzIDQuMjgzNiAyLjcxNjE2QzQuNTU0NDMgMi4xNTM2NiA0Ljg5ODE4IDEuNjc0NDkgNS4zMTQ4NSAxLjI3ODY2QzUuNzMxNTIgMC44ODI4MzQgNi4yMDAyNyAwLjU3MDMzNCA2LjcyMTEgMC4zNDExNjRDNy4yNjI3NyAwLjExMTk5NCA3LjgyNTI3IC0wLjAwMjU4NjM2IDguNDA4NiAtMC4wMDI1ODYzNkM5LjMwNDQzIC0wLjAwMjU4NjM2IDEwLjEzNzcgMC4yNjgyNDQgMTAuOTA4NiAwLjgwOTkxNEMxMS42Nzk0IDEuMzUxNTggMTIuMjczMSAyLjA4MDc0IDEyLjY4OTggMi45OTc0MUMxMy4yMTA2IDMuMDM5MDggMTMuNzAwMiAzLjE4NDkxIDE0LjE1ODYgMy40MzQ5MUMxNC42MTY5IDMuNjg0OTEgMTUuMDEyOCA0LjAxODI0IDE1LjM0NjEgNC40MzQ5MUMxNS42Nzk1IDQuODMwNzQgMTUuOTM5OCA1LjI4OTA4IDE2LjEyNzMgNS44MDk5MUMxNi4zMTQ4IDYuMzMwNzQgMTYuNDA4NiA2Ljg5MzI0IDE2LjQwODYgNy40OTc0MUMxNi40MDg2IDguMTIyNDEgMTYuMzA0NSA4LjcxNjIxIDE2LjA5NjEgOS4yNzg2MUMxNS44ODc4IDkuODIwMzEgMTUuNTk2MSAxMC4yOTk1IDE1LjIyMTEgMTAuNzE2MkMxNC44NjcgMTEuMTEyIDE0LjQzOTggMTEuNDI0NSAxMy45Mzk4IDExLjY1MzZDMTMuNDM5OCAxMS44ODI4IDEyLjkwODcgMTEuOTk3NCAxMi4zNDYxIDExLjk5NzRaTTMuODE0ODUgNi4wNTk5MUMzLjMxNDg1IDYuMDU5OTEgMi44ODc3NyA2LjI2ODI0IDIuNTMzNiA2LjY4NDkxQzIuMTc5NDMgNy4xMDE1OCAyLjAwMjM1IDcuNjExOTkgMi4wMDIzNSA4LjIxNjIxQzIuMDAyMzUgOC44MjAzMSAyLjE3OTQzIDkuMzQxMjEgMi41MzM2IDkuNzc4NjFDMi44ODc3NyAxMC4xOTUzIDMuMzE0ODUgMTAuNDAzNiAzLjgxNDg1IDEwLjQwMzZIMTIuMzQ2MUMxMy4wMzM3IDEwLjQwMzYgMTMuNjE3IDEwLjEyMjQgMTQuMDk2MSA5LjU1OTkxQzE0LjU3NTMgOC45OTc0MSAxNC44MTQ4IDguMzA5OTEgMTQuODE0OCA3LjQ5NzQxQzE0LjgxNDggNi42NjQwOCAxNC41NzUzIDUuOTY2MTYgMTQuMDk2MSA1LjQwMzY2QzEzLjYxNyA0Ljg0MTE2IDEzLjAzMzcgNC41NTk5MSAxMi4zNDYxIDQuNTU5OTFIMTIuMTI3M0MxMS43NzMxIDQuNTU5OTEgMTEuNTIzMSA0LjM4MjgzIDExLjM3NzMgNC4wMjg2NkMxMS4xMjczIDMuMjk5NDkgMTAuNzMxNSAyLjcxNjE2IDEwLjE4OTggMi4yNzg2NkM5LjY0ODE1IDEuODIwMzMgOS4wNTQ0MyAxLjU5MTE2IDguNDA4NiAxLjU5MTE2QzcuOTcxMSAxLjU5MTE2IDcuNTY0ODUgMS42OTUzMyA3LjE4OTg1IDEuOTAzNjZDNi44MTQ4NSAyLjA5MTE2IDYuNDgxNTIgMi4zNTE1OCA2LjE4OTg1IDIuNjg0OTFDNS45MTkwMiAyLjk5NzQxIDUuNzAwMjcgMy4zODI4MyA1LjUzMzYgMy44NDExNkM1LjM2NjkzIDQuMjc4NjYgNS4yODM2IDQuNzQ3NDEgNS4yODM2IDUuMjQ3NDFDNS4yODM2IDUuNDc2NTggNS4yMDAyNyA1LjY3NDQ5IDUuMDMzNiA1Ljg0MTE2QzQuODg3NzcgNS45ODY5OSA0LjcwMDI3IDYuMDU5OTEgNC40NzExIDYuMDU5OTFIMy44MTQ4NVoiLz4mI3hhOzxkZWZzPiYjeGE7PGxpbmVhckdyYWRpZW50IGdyYWRpZW50VW5pdHM9InVzZXJTcGFjZU9uVXNlIiB5Mj0iMTAuMzM3MyIgeDI9IjE0LjI2MDIiIHkxPSIxLjEyNjIzIiB4MT0iMi40NzY0NiIgaWQ9InBhaW50MF9saW5lYXJfNzI0XzE0Ij4mI3hhOzxzdG9wIHN0b3AtY29sb3I9IiMyMzk1RkYiLz4mI3hhOzxzdG9wIHN0b3AtY29sb3I9IiMwMDU3RDIiIG9mZnNldD0iMSIvPiYjeGE7PC9saW5lYXJHcmFkaWVudD4mI3hhOzwvZGVmcz4mI3hhOzwvc3ZnPg==;strokeWidth=1.5;" parent="QTPRlEsnN05-uR4Lkp8C-32" vertex="1">
          <mxGeometry x="16.884422110552762" y="16.639999999999986" width="34.52" height="24.36" as="geometry" />
        </mxCell>
        <mxCell id="QTPRlEsnN05-uR4Lkp8C-35" value="&lt;font face=&quot;arial&quot;&gt;&lt;span style=&quot;font-size: 16px;&quot;&gt;&lt;b&gt;Third-Party&amp;nbsp;&lt;/b&gt;&lt;/span&gt;&lt;/font&gt;&lt;div&gt;&lt;font face=&quot;arial&quot;&gt;&lt;span style=&quot;font-size: 16px;&quot;&gt;&lt;b&gt;System&amp;nbsp;&lt;/b&gt;&lt;/span&gt;&lt;/font&gt;&lt;b style=&quot;font-size: 16px; font-family: arial; background-color: initial;&quot;&gt;(XPTO)&lt;/b&gt;&lt;/div&gt;" style="text;html=1;align=left;verticalAlign=middle;resizable=0;points=[];autosize=1;strokeColor=none;fillColor=none;fontSize=12;fontColor=#1d2d3e;fontFamily=Helvetica;" parent="QTPRlEsnN05-uR4Lkp8C-32" vertex="1">
          <mxGeometry x="67.53768844221105" y="10" width="140" height="50" as="geometry" />
        </mxCell>
        <mxCell id="T-5nq4_tc--cqMoNUP7C-8" style="edgeStyle=orthogonalEdgeStyle;rounded=0;orthogonalLoop=1;jettySize=auto;html=1;entryX=0;entryY=0.5;entryDx=0;entryDy=0;exitX=0.5;exitY=1;exitDx=0;exitDy=0;exitPerimeter=0;" parent="1" source="tiygej8wyyzkuKFIpxlg-3" target="QTPRlEsnN05-uR4Lkp8C-33" edge="1">
          <mxGeometry relative="1" as="geometry">
            <mxPoint x="495" y="389" as="sourcePoint" />
          </mxGeometry>
        </mxCell>
        <mxCell id="T-5nq4_tc--cqMoNUP7C-10" style="edgeStyle=orthogonalEdgeStyle;rounded=0;orthogonalLoop=1;jettySize=auto;html=1;entryX=0.5;entryY=0;entryDx=0;entryDy=0;" parent="1" source="QTPRlEsnN05-uR4Lkp8C-30" target="tiygej8wyyzkuKFIpxlg-2" edge="1">
          <mxGeometry relative="1" as="geometry">
            <mxPoint x="471" y="238" as="targetPoint" />
          </mxGeometry>
        </mxCell>
        <mxCell id="tiygej8wyyzkuKFIpxlg-1" value="" style="group" parent="1" vertex="1" connectable="0">
          <mxGeometry x="420" y="250" width="110" height="95" as="geometry" />
        </mxCell>
        <mxCell id="tiygej8wyyzkuKFIpxlg-2" value="" style="shape=image;verticalLabelPosition=bottom;verticalAlign=top;imageAspect=0;aspect=fixed;image=data:image/svg+xml,PHN2ZyB4bWxucz0iaHR0cDovL3d3dy53My5vcmcvMjAwMC9zdmciIGZpbGw9Im5vbmUiIHZpZXdCb3g9IjAgMCA0OCA0OCIgaGVpZ2h0PSI0OCIgd2lkdGg9IjQ4Ij4mI3hhOzxjaXJjbGUgc3Ryb2tlLXdpZHRoPSIwLjg1NzE0MyIgc3Ryb2tlPSIjRDVEQUREIiBmaWxsPSJ1cmwoI3BhaW50MF9saW5lYXJfMzIzMl80NjI2KSIgcj0iMjMuNTcxNCIgY3k9IjI0IiBjeD0iMjQiLz4mI3hhOzxnIGNsaXAtcGF0aD0idXJsKCNjbGlwMF8zMjMyXzQ2MjYpIj4mI3hhOzxwYXRoIGZpbGw9InVybCgjcGFpbnQxX2xpbmVhcl8zMjMyXzQ2MjYpIiBkPSJNMTUuNTc4MiAxOC40NjI1QzE2LjAwMTkgMTUuNDE2MyAxOC41NDU0IDEyLjQ5ODUgMjIuMTI1MyAxMi40OTg1QzI0Ljk3MzMgMTIuNDk4NSAyNy4xMDU1IDE0LjA5ODEgMjguMjU0MiAxNi40NzY0QzI5Ljc4MjUgMTYuNjIxIDMxLjE3MjcgMTcuNDE3NCAzMi4xMzc1IDE4LjYzNTFDMzEuNzY3NCAxOS4wNzUyIDMxLjU0NDQgMTkuNjQzMiAzMS41NDQ0IDIwLjI2MzJWMjAuNDMyNEgzMS4zNzU1QzI5Ljk3NzUgMjAuNDMyNCAyOC44NDQyIDIxLjU2NTcgMjguODQ0MiAyMi45NjM3QzI4Ljg0NDIgMjMuMzYwNiAyOC45MzU1IDIzLjczNjEgMjkuMDk4MyAyNC4wNzA0QzI5LjA4MzYgMjQuMDcwMiAyOS4wNjg4IDI0LjA3MDEgMjkuMDU0MSAyNC4wNzAxQzI3LjYzMzUgMjQuMDcwMSAyNi4zODgxIDI0Ljk5MzUgMjUuOTU4MyAyNi4zMzYxTDI1Ljg5NDcgMjYuNTM1TDI1LjgyNTcgMjYuMzI0MkMyNS4zODgyIDI0Ljk4NjggMjQuMTQzMiAyNC4wNzAxIDIyLjcyNTQgMjQuMDcwMUMyMC45MDkzIDI0LjA3MDEgMTkuNDYyMiAyNS41NTEgMTkuNDYyMiAyNy4zNDY3VjI4LjgwMTRIMTYuMzAwOUMxNC42OTc2IDI4LjgwMTQgMTMuMzM2IDI4LjMwMjIgMTIuMzc2OSAyNy4zMTY3QzExLjQyNDIgMjYuMzM3OSAxMC45OTk5IDI1LjAxMzkgMTAuOTk5OSAyMy42MTMzQzEwLjk5OTkgMjIuMTA2MSAxMS41NTE3IDIwLjY3NjkgMTIuNjIwMSAxOS42OTIzQzEzLjQwOTggMTguOTY0NCAxNC40MjY2IDE4LjUzMTEgMTUuNTc4MiAxOC40NjI1WiIvPiYjeGE7PHBhdGggZmlsbD0idXJsKCNwYWludDJfbGluZWFyXzMyMzJfNDYyNikiIGQ9Ik0zMy4yMzIgMjAuNzU3MkMzMy40MDU2IDIxLjM0NzggMzMuNDk5OSAyMS45ODEgMzMuNDk5OSAyMi42NDQ3QzMzLjQ5OTkgMjMuMzI4NSAzMy40MDU1IDIzLjk2NiAzMy4yMzIgMjQuNTUxNlYyMy44MDc1SDMxLjM3NTVDMzAuOTA5NSAyMy44MDc1IDMwLjUzMTcgMjMuNDI5NyAzMC41MzE3IDIyLjk2MzdDMzAuNTMxNyAyMi40OTc3IDMwLjkwOTUgMjIuMTE5OSAzMS4zNzU1IDIyLjExOTlIMzMuMjMyVjIwLjc1NzJaIi8+JiN4YTs8cGF0aCBmaWxsPSJ1cmwoI3BhaW50M19saW5lYXJfMzIzMl80NjI2KSIgZD0iTTMzLjc2MjUgMzUuODk5OUMzMy4zNjcgMzYuMzAyMiAzMi45NzYyIDM2LjkyNTkgMzMuMzcxOCAzNy4zMjgyQzMzLjc2NzMgMzcuNzMwNiAzNC4yMTYyIDM3Ljc1ODcgMzQuNjExNyAzNy4zNTYzTDM3LjY0ODcgMzQuMjY3NEMzOC4wNDQzIDMzLjg2NSAzOC4wNDQzIDMzLjIxMzMgMzcuNjQ4NyAzMi44MTA5TDM0LjYxMTcgMjkuNzIyQzM0LjIxNjIgMjkuMzE5NiAzMy43NTE0IDI5LjE1MjEgMzMuMzU1OCAyOS41NTQ1QzMyLjg2MTEgMjkuOTQwNyAzMy41NDk4IDMwLjc3NjEgMzMuOTQ1MyAzMS4xNzg0TDM1LjA3OTIgMzIuNTMyTDI4LjgzNTcgMzIuNTM4M0wyOC44MzUzIDMzLjMzOTVDMjguODM0OSAzMy44OTIxIDI5LjI3OTIgMzQuMzM5OCAyOS44MjcgMzQuMzM5MkwzNS4xOTA5IDM0LjMzMzVMMzMuNzYyNSAzNS44OTk5WiIvPiYjeGE7PHBhdGggZmlsbD0idXJsKCNwYWludDRfbGluZWFyXzMyMzJfNDYyNikiIGQ9Ik0yMS4xNTMgMjcuMjE0MUMyMS4xNTMgMjYuMzU3NCAyMS44NDE2IDI1LjY2MjggMjIuNjkxIDI1LjY2MjhDMjMuMzU0NyAyNS42NjI4IDIzLjk0MzYgMjYuMDkyMyAyNC4xNTE2IDI2LjcyODFMMjUuNDEzIDMwLjU4NDFDMjUuNDgzMiAzMC43OTY1IDI1LjU2NTggMzEuMDk0MiAyNS42NjA3IDMxLjQ3NzJDMjUuNzU1NiAzMS44NjAzIDI1LjgxNzYgMzIuMTE0MyAyNS44NDY1IDMyLjIzOTJDMjUuODc5NSAzMi4xMTQzIDI1Ljk0NTUgMzEuODY0NCAyNi4wNDQ2IDMxLjQ4OTdDMjYuMTQ3OCAzMS4xMTA4IDI2LjIzNDUgMzAuODE5NCAyNi4zMDQ3IDMwLjYxNTRMMjcuNTQ4NCAyNi43Mjk1QzI3Ljc1MTkgMjYuMDkzNyAyOC4zMzg3IDI1LjY2MjggMjkuMDAxMSAyNS42NjI4QzI5Ljg0NDIgMjUuNjYyOCAzMC41Mjc2IDI2LjM1MjIgMzAuNTI3NiAyNy4yMDI1VjMyLjUzNjZMMjguODM1NyAzMi41MzgzTDI4LjgzNzIgMjkuMTI5QzI4LjgzNzIgMjguNjc5MyAyOC44NDc1IDI4LjI1NDYgMjguODY4MSAyNy44NTQ5QzI4Ljg5MjkgMjcuNDU1MiAyOC44ODI3IDI3LjI5NjMgMjguOTA1MyAyNy4yMjQyQzI4LjkwMTIgMjcuMjI4MyAyOC44NTk5IDI3LjM3NDEgMjguNzgxNSAyNy42NjEzQzI4Ljc0MDIgMjcuNzk4NyAyOC42NTM1IDI4LjA5NDQgMjguNTIxNCAyOC41NDgyQzI4LjM5MzQgMjkuMDAyIDI4LjI5MjMgMjkuMzM3MiAyOC4yMTggMjkuNTUzN0wyNi44MTk5IDMzLjc1MjFDMjYuNjc4NSAzNC4xNzY1IDI2LjI4NDIgMzQuNDYyNSAyNS44NDAzIDM0LjQ2MjVDMjUuMzk2MyAzNC40NjI1IDI1LjAwMiAzNC4xNzY1IDI0Ljg2MDcgMzMuNzUyMUwyMy40NjI2IDI5LjU1MzdDMjMuMzc1OSAyOS4yOTk3IDIzLjI1MiAyOC45MDIxIDIzLjA5MSAyOC4zNjA4QzIyLjkzNDIgMjcuODE1NCAyMi44MjQ4IDI3LjQzNjUgMjIuNzYyOSAyNy4yMjQyTDIyLjc3NTIgMjcuNDA1M0MyMi43Nzk0IDI3LjQ3MTkgMjIuNzkxOCAyNy43MDcxIDIyLjgxMjQgMjguMTExQzIyLjgzMyAyOC41MTA3IDIyLjg0MzQgMjguODUgMjIuODQzNCAyOS4xMjlWMzMuNjFDMjIuODQzNCAzNC4wODA4IDIyLjQ2NDkgMzQuNDYyNSAyMS45OTgyIDM0LjQ2MjVDMjEuNTMxNCAzNC40NjI1IDIxLjE1MyAzNC4wODA4IDIxLjE1MyAzMy42MVYyNy4yMTQxWiIvPiYjeGE7PHBhdGggZmlsbD0idXJsKCNwYWludDVfbGluZWFyXzMyMzJfNDYyNikiIGQ9Ik0zNC45MTk1IDIwLjI2MzJDMzQuOTE5NSAxOS43OTcyIDM0LjU0MTggMTkuNDE5NCAzNC4wNzU4IDE5LjQxOTRDMzMuNjA5OCAxOS40MTk0IDMzLjIzMiAxOS43OTcyIDMzLjIzMiAyMC4yNjMyVjIyLjExOTlIMzEuMzc1NUMzMC45MDk1IDIyLjExOTkgMzAuNTMxNyAyMi40OTc3IDMwLjUzMTcgMjIuOTYzN0MzMC41MzE3IDIzLjQyOTcgMzAuOTA5NSAyMy44MDc1IDMxLjM3NTUgMjMuODA3NUgzMy4yMzJWMjUuNjYzM0MzMy4yMzIgMjYuMTI5MyAzMy42MDk4IDI2LjUwNzEgMzQuMDc1OCAyNi41MDcxQzM0LjU0MTggMjYuNTA3MSAzNC45MTk1IDI2LjEyOTMgMzQuOTE5NSAyNS42NjMzVjIzLjgwNzVIMzYuNzc1NUMzNy4yNDE1IDIzLjgwNzUgMzcuNjE5MyAyMy40Mjk3IDM3LjYxOTMgMjIuOTYzN0MzNy42MTkzIDIyLjQ5NzcgMzcuMjQxNSAyMi4xMTk5IDM2Ljc3NTUgMjIuMTE5OUgzNC45MTk1VjIwLjI2MzJaIi8+JiN4YTs8L2c+JiN4YTs8ZGVmcz4mI3hhOzxsaW5lYXJHcmFkaWVudCBncmFkaWVudFVuaXRzPSJ1c2VyU3BhY2VPblVzZSIgeTI9IjQ0LjI0NDMiIHgyPSI0MS4wNjQ1IiB5MT0iNi44MTI4NCIgeDE9IjQuMzUyODciIGlkPSJwYWludDBfbGluZWFyXzMyMzJfNDYyNiI+JiN4YTs8c3RvcCBzdG9wLWNvbG9yPSJ3aGl0ZSIvPiYjeGE7PHN0b3Agc3RvcC1jb2xvcj0iI0VBRUNFRSIgb2Zmc2V0PSIxIi8+JiN4YTs8L2xpbmVhckdyYWRpZW50PiYjeGE7PGxpbmVhckdyYWRpZW50IGdyYWRpZW50VW5pdHM9InVzZXJTcGFjZU9uVXNlIiB5Mj0iMjkuOTEwOCIgeDI9IjI1LjIxODkiIHkxPSIxNC45MzY1IiB4MT0iMTQuMzcyNyIgaWQ9InBhaW50MV9saW5lYXJfMzIzMl80NjI2Ij4mI3hhOzxzdG9wIHN0b3AtY29sb3I9IiMwMTk1RkYiLz4mI3hhOzxzdG9wIHN0b3AtY29sb3I9IiMxMTQ3RTkiIG9mZnNldD0iMC45OTEwMjgiLz4mI3hhOzwvbGluZWFyR3JhZGllbnQ+JiN4YTs8bGluZWFyR3JhZGllbnQgZ3JhZGllbnRVbml0cz0idXNlclNwYWNlT25Vc2UiIHkyPSIyOS45MTA4IiB4Mj0iMjUuMjE4OSIgeTE9IjE0LjkzNjUiIHgxPSIxNC4zNzI3IiBpZD0icGFpbnQyX2xpbmVhcl8zMjMyXzQ2MjYiPiYjeGE7PHN0b3Agc3RvcC1jb2xvcj0iIzAxOTVGRiIvPiYjeGE7PHN0b3Agc3RvcC1jb2xvcj0iIzExNDdFOSIgb2Zmc2V0PSIwLjk5MTAyOCIvPiYjeGE7PC9saW5lYXJHcmFkaWVudD4mI3hhOzxsaW5lYXJHcmFkaWVudCBncmFkaWVudFVuaXRzPSJ1c2VyU3BhY2VPblVzZSIgeTI9IjM4LjU3MDgiIHgyPSIzMS41NTM3IiB5MT0iMjcuNDI1NiIgeDE9IjIzLjYzNTYiIGlkPSJwYWludDNfbGluZWFyXzMyMzJfNDYyNiI+JiN4YTs8c3RvcCBzdG9wLWNvbG9yPSIjMTM0OEZGIi8+JiN4YTs8c3RvcCBzdG9wLWNvbG9yPSIjMDYyMzhEIiBvZmZzZXQ9IjEiLz4mI3hhOzwvbGluZWFyR3JhZGllbnQ+JiN4YTs8bGluZWFyR3JhZGllbnQgZ3JhZGllbnRVbml0cz0idXNlclNwYWNlT25Vc2UiIHkyPSIzOC41NzA4IiB4Mj0iMzEuNTUzNyIgeTE9IjI3LjQyNTYiIHgxPSIyMy42MzU2IiBpZD0icGFpbnQ0X2xpbmVhcl8zMjMyXzQ2MjYiPiYjeGE7PHN0b3Agc3RvcC1jb2xvcj0iIzEzNDhGRiIvPiYjeGE7PHN0b3Agc3RvcC1jb2xvcj0iIzA2MjM4RCIgb2Zmc2V0PSIxIi8+JiN4YTs8L2xpbmVhckdyYWRpZW50PiYjeGE7PGxpbmVhckdyYWRpZW50IGdyYWRpZW50VW5pdHM9InVzZXJTcGFjZU9uVXNlIiB5Mj0iMjUuNDQyIiB4Mj0iMzYuNTU1MiIgeTE9IjIwLjQ4MjgiIHgxPSIzMS41OTI0IiBpZD0icGFpbnQ1X2xpbmVhcl8zMjMyXzQ2MjYiPiYjeGE7PHN0b3Agc3RvcC1jb2xvcj0iIzAwQkJGRiIvPiYjeGE7PHN0b3Agc3RvcC1jb2xvcj0iIzAwOEJGRiIgb2Zmc2V0PSIxIi8+JiN4YTs8L2xpbmVhckdyYWRpZW50PiYjeGE7PGNsaXBQYXRoIGlkPSJjbGlwMF8zMjMyXzQ2MjYiPiYjeGE7PHJlY3QgdHJhbnNmb3JtPSJ0cmFuc2xhdGUoMTEgMTIuNSkiIGZpbGw9IndoaXRlIiBoZWlnaHQ9IjI3LjAwMDYiIHdpZHRoPSIyNyIvPiYjeGE7PC9jbGlwUGF0aD4mI3hhOzwvZGVmcz4mI3hhOzwvc3ZnPg==" parent="tiygej8wyyzkuKFIpxlg-1" vertex="1">
          <mxGeometry x="31.5" width="48" height="48" as="geometry" />
        </mxCell>
        <mxCell id="tiygej8wyyzkuKFIpxlg-3" value="&lt;font color=&quot;#1d2d3e&quot; size=&quot;1&quot; face=&quot;arial&quot; style=&quot;&quot;&gt;&lt;b style=&quot;font-size: 14px;&quot;&gt;Advanced Event Mesh&lt;br&gt;&lt;/b&gt;&lt;/font&gt;" style="text;html=1;align=center;verticalAlign=top;resizable=1;points=[[0,0.5,0,0,0],[0.21,1,0,0,0],[0.5,1,0,0,0],[0.85,1,0,0,0],[1,0.5,0,0,0]];autosize=0;strokeColor=none;fillColor=none;fontSize=12;fontColor=default;fontFamily=Helvetica;fixedWidth=1;imageWidth=24;whiteSpace=wrap;labelBackgroundColor=none;" parent="tiygej8wyyzkuKFIpxlg-1" vertex="1">
          <mxGeometry y="49" width="110" height="46" as="geometry" />
        </mxCell>
        <mxCell id="owWD3BY2YzLdkqEScvCn-1" value="&lt;font size=&quot;1&quot; face=&quot;arial&quot; style=&quot;&quot;&gt;&lt;span style=&quot;font-size: 12px;&quot;&gt;Custo: 1.257,00 EUR&lt;/span&gt;&lt;/font&gt;" style="text;html=1;align=center;verticalAlign=middle;resizable=0;points=[[0,0.5,0,0,0],[0.5,0,0,0,0],[0.5,1,0,0,0],[1,0.5,0,0,0]];autosize=1;strokeColor=none;fillColor=none;fontSize=12;fontColor=#1D2D3E;fontFamily=Helvetica;" vertex="1" parent="1">
          <mxGeometry x="600" y="510" width="140" height="30" as="geometry" />
        </mxCell>
      </root>
    </mxGraphModel>
  </diagram>
  <diagram id="SLe9ZER-PcgBBUiKEBNR" name="Case3">
    <mxGraphModel dx="1306" dy="835" grid="1" gridSize="10" guides="1" tooltips="1" connect="1" arrows="1" fold="1" page="1" pageScale="1" pageWidth="850" pageHeight="1100" math="0" shadow="0">
      <root>
        <mxCell id="0" />
        <mxCell id="1" parent="0" />
        <mxCell id="5KLEMIwTa-Wp3jbqrs4p-1" value="" style="rounded=1;whiteSpace=wrap;html=1;strokeColor=#0070F2;fillColor=#EBF8FF;arcSize=32;absoluteArcSize=1;imageWidth=64;imageHeight=64;strokeWidth=1.5;" parent="1" vertex="1">
          <mxGeometry x="330" y="210" width="390" height="380" as="geometry" />
        </mxCell>
        <mxCell id="5KLEMIwTa-Wp3jbqrs4p-2" value="" style="rounded=1;whiteSpace=wrap;html=1;strokeColor=#0070F2;strokeWidth=1.5;arcSize=16;fillColor=#FFFFFF;perimeterSpacing=0;absoluteArcSize=1;" parent="1" vertex="1">
          <mxGeometry x="348.55" y="264.13" width="351.45" height="295.87" as="geometry" />
        </mxCell>
        <mxCell id="5KLEMIwTa-Wp3jbqrs4p-3" value="" style="shape=image;verticalLabelPosition=bottom;labelBackgroundColor=default;verticalAlign=top;aspect=fixed;imageAspect=0;image=data:image/svg+xml,PHN2ZyB4bWxuczp4bGluaz0iaHR0cDovL3d3dy53My5vcmcvMTk5OS94bGluayIgeG1sbnM9Imh0dHA6Ly93d3cudzMub3JnLzIwMDAvc3ZnIiB2aWV3Qm94PSIwIDAgMTQ0Ljc0NyAzOS44MzIiIGlkPSJhIj48ZGVmcz48bGluZWFyR3JhZGllbnQgZ3JhZGllbnRVbml0cz0idXNlclNwYWNlT25Vc2UiIHkyPSIzOS44MzIiIHgyPSI0MC4yNTgiIHkxPSIwIiB4MT0iNDAuMjU4IiBpZD0iYiI+PHN0b3Agc3RvcC1jb2xvcj0iIzAwYjhmMSIgb2Zmc2V0PSIwIi8+PHN0b3Agc3RvcC1jb2xvcj0iIzAwYjVlZiIgb2Zmc2V0PSIuMDE2Ii8+PHN0b3Agc3RvcC1jb2xvcj0iIzBkOTBkOCIgb2Zmc2V0PSIuMzA4Ii8+PHN0b3Agc3RvcC1jb2xvcj0iIzE2NzVjOCIgb2Zmc2V0PSIuNTc4Ii8+PHN0b3Agc3RvcC1jb2xvcj0iIzFjNjRiZSIgb2Zmc2V0PSIuODE3Ii8+PHN0b3Agc3RvcC1jb2xvcj0iIzFlNWZiYiIgb2Zmc2V0PSIxIi8+PC9saW5lYXJHcmFkaWVudD48L2RlZnM+PHBvbHlsaW5lIGZpbGwtcnVsZT0iZXZlbm9kZCIgZmlsbD0idXJsKCNiKSIgcG9pbnRzPSIwIDM5LjgzMiA0MC42OTIgMzkuODMyIDgwLjUxNyAwIDAgMCAwIDM5LjgzMiIvPjxwYXRoIGZpbGwtcnVsZT0iZXZlbm9kZCIgZmlsbD0iI2ZmZiIgZD0ibTQ3Ljc4Miw3LjQ4OWwtNy45MjUtLjAwNXYxOC44NDVsLTYuOTI0LTE4Ljg0NWgtNi44NjVsLTUuOTEyLDE1Ljc1OWMtLjYzLTMuOTczLTQuNzQtNS4zNDUtNy45NzQtNi4zNzQtMi4xMzUtLjY4Ni00LjQwMS0xLjY5NC00LjM4LTIuODA5LjAxNy0uOTE1LDEuMjE1LTEuNzY1LDMuNTg5LTEuNjM3LDEuNTk1LjA4NCwzLjAwMS4yMTMsNS44LDEuNTYzbDIuNzUzLTQuNzk1Yy0yLjU1NS0xLjMtNi4wODYtMi4xMjEtOC45NzgtMi4xMjRoLS4wMTdjLTMuMzc0LDAtNi4xODUsMS4wOTMtNy45MjgsMi44OTQtMS4yMTQsMS4yNTgtMS44NjksMi44NTYtMS44OTYsNC42MjMtLjA0NCwyLjQzMi44NDgsNC4xNTcsMi43MjEsNS41MzMsMS41ODMsMS4xNiwzLjYwNiwxLjkxMiw1LjM5LDIuNDY1LDIuMjAxLjY4MSwzLjk5NiwxLjI3NCwzLjk3NSwyLjUzOS0uMDE2LjQ1OS0uMTkxLjg4OC0uNTIxLDEuMjM2LS41NDguNTY2LTEuMzkxLjc3OS0yLjU1NS43OTktMi4yNDQuMDQ4LTMuOTEtLjMwMy02LjU2Mi0xLjg3bC0yLjQ0OCw0Ljg2MWMyLjY0NCwxLjUwNiw1Ljc3NiwyLjM4OCw4Ljk3MiwyLjM4OGwuNDExLS4wMDZjMi43ODItLjA1LDUuMDI2LS44NDIsNi44Mi0yLjI4Ni4xMDMtLjA4MS4xOTYtLjE2Ni4yOTEtLjI1bC0uNzk1LDIuMTIzaDcuMmwxLjIwOC0zLjY3NGMxLjI2NS40MzMsMi43MDQuNjcxLDQuMjMyLjY3MSwxLjQ4NywwLDIuODg5LS4yMjksNC4xMzEtLjYzNWwxLjE2NCwzLjYzN2gxMS43NDJ2LTcuNjA3aDIuNTYxYzYuMTg4LDAsOS44NTEtMy4xNTQsOS44NTEtOC40MzYsMC01Ljg4NS0zLjU1Ny04LjU4NS0xMS4xMzItOC41ODVabS0xOC4zMTcsMTYuMTI0Yy0uOTI1LDAtMS43OTItLjE2LTIuNTM5LS40NDNsMi41MTItNy45MjZoLjA0OGwyLjQ2OCw3Ljk0OGMtLjc0Mi4yNjMtMS41ODkuNDIxLTIuNDg4LjQyMVptMTguNzgzLTQuNTUzaC0xLjc0NnYtNi4zODZoMS43NDZjMi4zMjgsMCw0LjE4NS43NzMsNC4xODUsMy4xNTEsMCwyLjQ2MS0xLjg1NywzLjIzNi00LjE4NSwzLjIzNiIvPjxwYXRoIGZpbGw9IiMwMDJhODYiIGQ9Im04MC4yMTcsNy40MDFoMTAuMDYzYzUuNTk1LDAsOC42NzQsMS45MTcsOC42NzQsNi4xNTgsMCwyLjkwMy0xLjUxMyw1LjAxNC00LjMxMSw1LjcsMy4yOS40NTgsNS4yNzgsMi41ODYsNS4yNzgsNS44OTQsMCw1LjAxNC00LjA2NCw3LjAzNy05LjE4NCw3LjAzN2gtMTAuNTIxVjcuNDAxWm0xMy45NjksNi44MjZjMC0yLjE2NC0xLjQ5Ni0yLjk3My00LjI0LTIuOTczaC01LjA0OXY2LjI5OGg0Ljg5MWMzLjIwMiwwLDQuMzk4LTEuMTYxLDQuMzk4LTMuMzI1Wm0xLjAyMSwxMC41MjFjMC0yLjM1Ny0xLjc3Ny0zLjQ2Ni00LjgzOS0zLjQ2NmgtNS40NzF2Ny4wNTVoNS41MDZjMi44MTUsMCw0LjgwNC0uNzc0LDQuODA0LTMuNTg5WiIvPjxwYXRoIGZpbGw9IiMwMDJhODYiIGQ9Im0xMDkuMDUxLDExLjVoLTcuNTgzdi00LjA5OWgxOS44NDZ2NC4wOTloLTcuNTY1djIwLjY5aC00LjY5N1YxMS41WiIvPjxwYXRoIGZpbGw9IiMwMDJhODYiIGQ9Im0xMjUuMTQ4LDcuNDAxaDEwLjUwNGM2LjE5MiwwLDkuMDk2LDMuMTg1LDkuMDk2LDcuODk5LDAsNC4zOTgtMi44MzMsOC4xNDYtOC44NSw4LjE0NmgtNi4wN3Y4Ljc0NGgtNC42OFY3LjQwMVptMTQuOTAyLDcuOTUyYzAtMi41NTEtMS42ODktMy45MjMtNC45NDQtMy45MjNoLTUuMjc4djguMDRoNS40MTljMy4yNzIsMCw0LjgwNC0xLjU4Myw0LjgwNC00LjExN1oiLz48L3N2Zz4=;strokeWidth=1.5;" parent="1" vertex="1">
          <mxGeometry x="348.54999999999995" y="228.55000000000007" width="67.25" height="18.55" as="geometry" />
        </mxCell>
        <mxCell id="5KLEMIwTa-Wp3jbqrs4p-14" value="&lt;font face=&quot;arial&quot; style=&quot;font-size: 16px;&quot;&gt;&lt;b style=&quot;font-size: 16px;&quot;&gt;Subaccount&lt;/b&gt;&lt;/font&gt;" style="text;html=1;align=left;verticalAlign=middle;resizable=0;points=[];autosize=1;strokeColor=none;fillColor=none;fontSize=12;fontColor=#1d2d3e;fontFamily=Helvetica;" parent="1" vertex="1">
          <mxGeometry x="360" y="274.14" width="120" height="30" as="geometry" />
        </mxCell>
        <mxCell id="5KLEMIwTa-Wp3jbqrs4p-32" value="" style="group" parent="1" vertex="1" connectable="0">
          <mxGeometry x="747" y="432.88" width="240" height="70" as="geometry" />
        </mxCell>
        <mxCell id="5KLEMIwTa-Wp3jbqrs4p-33" value="" style="rounded=1;whiteSpace=wrap;html=1;strokeColor=#0070F2;strokeWidth=1.5;arcSize=14;fillColor=#FFFFFF;perimeterSpacing=0;" parent="5KLEMIwTa-Wp3jbqrs4p-32" vertex="1">
          <mxGeometry y="-22" width="239.99999999999997" height="70" as="geometry" />
        </mxCell>
        <mxCell id="fcamXWbQVCFegSQGi5p3-1" value="" style="shape=image;verticalLabelPosition=bottom;labelBackgroundColor=default;verticalAlign=top;aspect=fixed;imageAspect=0;image=data:image/svg+xml,PHN2ZyB4bWxuczp4bGluaz0iaHR0cDovL3d3dy53My5vcmcvMTk5OS94bGluayIgeG1sbnM9Imh0dHA6Ly93d3cudzMub3JnLzIwMDAvc3ZnIiB2aWV3Qm94PSIwIDAgMzMxLjQxIDM5LjgzIiBpZD0iTGF5b3V0Ij48ZGVmcz48c3R5bGU+LmNscy0xe2ZpbGw6dXJsKCNsaW5lYXItZ3JhZGllbnQpO30uY2xzLTEsLmNscy0ye2ZpbGwtcnVsZTpldmVub2RkO30uY2xzLTN7ZmlsbDojMDAyYTg2O30uY2xzLTJ7ZmlsbDojZmZmO308L3N0eWxlPjxsaW5lYXJHcmFkaWVudCBncmFkaWVudFVuaXRzPSJ1c2VyU3BhY2VPblVzZSIgeTI9IjM5LjgzIiB4Mj0iNDAuMjYiIHkxPSIwIiB4MT0iNDAuMjYiIGlkPSJsaW5lYXItZ3JhZGllbnQiPjxzdG9wIHN0b3AtY29sb3I9IiMwMGI4ZjEiIG9mZnNldD0iMCIvPjxzdG9wIHN0b3AtY29sb3I9IiMwMGI1ZWYiIG9mZnNldD0iLjAyIi8+PHN0b3Agc3RvcC1jb2xvcj0iIzBkOTBkOCIgb2Zmc2V0PSIuMzEiLz48c3RvcCBzdG9wLWNvbG9yPSIjMTY3NWM4IiBvZmZzZXQ9Ii41OCIvPjxzdG9wIHN0b3AtY29sb3I9IiMxYzY0YmUiIG9mZnNldD0iLjgyIi8+PHN0b3Agc3RvcC1jb2xvcj0iIzFlNWZiYiIgb2Zmc2V0PSIxIi8+PC9saW5lYXJHcmFkaWVudD48L2RlZnM+PHBvbHlsaW5lIHBvaW50cz0iMCAzOS44MyA0MC42OSAzOS44MyA4MC41MiAwIDAgMCAwIDM5LjgzIiBjbGFzcz0iY2xzLTEiLz48cGF0aCBkPSJtNDcuNzgsNy40OWgtNy45MnMwLDE4Ljg0LDAsMTguODRsLTYuOTItMTguODRoLTYuODZsLTUuOTEsMTUuNzZjLS42My0zLjk3LTQuNzQtNS4zNS03Ljk3LTYuMzctMi4xNC0uNjktNC40LTEuNjktNC4zOC0yLjgxLjAyLS45MiwxLjIyLTEuNzcsMy41OS0xLjY0LDEuNi4wOCwzLC4yMSw1LjgsMS41NmwyLjc1LTQuNzljLTIuNTYtMS4zLTYuMDktMi4xMi04Ljk4LTIuMTJoLS4wMmMtMy4zNywwLTYuMTgsMS4wOS03LjkzLDIuODktMS4yMSwxLjI2LTEuODcsMi44Ni0xLjksNC42Mi0uMDQsMi40My44NSw0LjE2LDIuNzIsNS41MywxLjU4LDEuMTYsMy42MSwxLjkxLDUuMzksMi40NywyLjIuNjgsNCwxLjI3LDMuOTgsMi41NC0uMDIuNDYtLjE5Ljg5LS41MiwxLjI0LS41NS41Ny0xLjM5Ljc4LTIuNTUuOC0yLjI0LjA1LTMuOTEtLjMtNi41Ni0xLjg3bC0yLjQ1LDQuODZjMi42NCwxLjUxLDUuNzgsMi4zOSw4Ljk3LDIuMzloLjQxYzIuNzgtLjA2LDUuMDMtLjg1LDYuODItMi4yOS4xLS4wOC4yLS4xNy4yOS0uMjVsLS44LDIuMTJoNy4ybDEuMjEtMy42N2MxLjI2LjQzLDIuNy42Nyw0LjIzLjY3czIuODktLjIzLDQuMTMtLjYzbDEuMTYsMy42NGgxMS43NHYtNy42MWgyLjU2YzYuMTksMCw5Ljg1LTMuMTUsOS44NS04LjQ0LDAtNS44OC0zLjU2LTguNTktMTEuMTMtOC41OVptLTE4LjMyLDE2LjEyYy0uOTIsMC0xLjc5LS4xNi0yLjU0LS40NGwyLjUxLTcuOTNoLjA1bDIuNDcsNy45NWMtLjc0LjI2LTEuNTkuNDItMi40OS40MlptMTguNzgtNC41NWgtMS43NXYtNi4zOWgxLjc1YzIuMzMsMCw0LjE4Ljc3LDQuMTgsMy4xNXMtMS44NiwzLjI0LTQuMTgsMy4yNCIgY2xhc3M9ImNscy0yIi8+PHBhdGggZD0ibTc4LjYxLDI4LjM5bDIuOTktMy4wMWMxLjUxLDEuOTcsMy42MiwzLjI5LDcuMTEsMy4yOSwyLjg1LDAsNS4wMS0uOTUsNS4wMS0zLjI3LDAtMi40NS0yLjUtMy4xNS01Ljg4LTMuOTgtMy44OS0uOTMtOC4xMS0yLjIyLTguMTEtNy4zOSwwLTQuODcsMy45OS03LDkuMTMtNyw0LjA1LDAsNi45NywxLjM0LDguODksMy41N2wtMi45LDIuOWMtMS41My0xLjc0LTMuNDMtMi42OS02LjE0LTIuNjktMy4wNiwwLTQuMzgsMS4yNy00LjM4LDIuOTYsMCwyLjIzLDIuMjcsMi44Myw1LjQsMy42Miw0LjE3Ljk4LDguNiwyLjE2LDguNiw3LjY1LDAsNC40NS0zLjMzLDcuNS05LjcxLDcuNS00LjY4LDAtNy45OS0xLjU3LTEwLjAxLTQuMTVaIiBjbGFzcz0iY2xzLTMiLz48cGF0aCBkPSJtMTAxLjY3LDI1LjYzdi0xMi42OGg0LjQ3djExLjYzYzAsMi41Ny44OCw0LjE1LDMuNDcsNC4xNXM0LjMxLTEuNzgsNC4zMS01LjAxdi0xMC43N2g0LjQzdjE5LjI1aC00LjI5di00LjA2aC0uMDljLS44OCwyLjIyLTIuNjIsNC40Mi02LjMyLDQuNDItNC4xMiwwLTUuOTgtMi44MS01Ljk4LTYuOTFaIiBjbGFzcz0iY2xzLTMiLz48cGF0aCBkPSJtMTIxLjgxLDIyLjU3YzAtNi40LDQuMDEtOS45OSw5LjY5LTkuOTksMy42NCwwLDYuMTYsMS40NCw3LjY5LDMuNTJsLTIuODUsMi41MmMtMS4xMS0xLjU1LTIuNTktMi40MS00LjY0LTIuNDEtMy4xMSwwLTUuMjMsMi4xMS01LjIzLDYuMzdzMi4xMSw2LjM3LDUuMjMsNi4zN2MyLjA0LDAsMy41Mi0uODgsNC42NC0yLjQzbDIuODUsMi41M2MtMS41MywyLjA4LTQuMDUsMy41LTcuNjksMy41LTUuNjgsMC05LjY5LTMuNTktOS42OS05Ljk4WiIgY2xhc3M9ImNscy0zIi8+PHBhdGggZD0ibTE0MC4yNiwyMi41N2MwLTYuNCw0LjAxLTkuOTksOS42OS05Ljk5LDMuNjQsMCw2LjE2LDEuNDQsNy42OSwzLjUybC0yLjg1LDIuNTJjLTEuMTEtMS41NS0yLjU5LTIuNDEtNC42NC0yLjQxLTMuMTEsMC01LjIzLDIuMTEtNS4yMyw2LjM3czIuMTEsNi4zNyw1LjIzLDYuMzdjMi4wNCwwLDMuNTItLjg4LDQuNjQtMi40M2wyLjg1LDIuNTNjLTEuNTMsMi4wOC00LjA1LDMuNS03LjY5LDMuNS01LjY4LDAtOS42OS0zLjU5LTkuNjktOS45OFoiIGNsYXNzPSJjbHMtMyIvPjxwYXRoIGQ9Im0xNTguNzEsMjIuNTdjMC02LjcsNC40Mi05Ljk5LDkuNjYtOS45OSw2LjQ0LDAsOC43Myw0LjcyLDguNzMsOS40LDAsLjU2LS4wNCwxLjE0LS4wNywxLjY5aC0xMy42MmMuMzIsMy42NiwyLjIyLDUuNCw1LjU2LDUuNCwyLjE2LDAsMy42MS0uNjMsNC45MS0yLjE1bDIuNTksMi41OWMtMS43OSwyLjAyLTMuOTksMy4wNC03LjcxLDMuMDQtNi4xOCwwLTEwLjA1LTMuNTQtMTAuMDUtOS45OFptMTMuOTUtMS42N2MtLjI1LTMuNC0xLjktNC44OS00LjQtNC44OXMtNC4zNCwxLjUtNC43OSw0Ljg5aDkuMThaIiBjbGFzcz0iY2xzLTMiLz48cGF0aCBkPSJtMTc4Ljc2LDI5LjU3bDIuNjctMi42N2MxLjUzLDEuNjksMy4xOCwyLjIyLDUuMjEsMi4yMnMzLjQ4LS41NiwzLjQ4LTIuMTVjMC0xLjc0LTEuNjQtMi4yMi00LjQtMi45NC0yLjk3LS43Ny02LjA3LTIuMDItNi4wNy01LjgyLDAtMy41NywyLjc1LTUuNjMsNy4zLTUuNjMsMi45NywwLDUuNDIuOTIsNy4xNCwyLjYybC0yLjYsMi42Yy0xLjMtMS4zNC0yLjktMS44My00LjQ3LTEuODMtMS44NSwwLTMuMDYuNjMtMy4wNiwyLjA0czEuNTcsMS44OCw0LjE3LDIuNTdjMy4wNC43Nyw2LjMyLDEuODMsNi4zMiw2LjA3LDAsMy43My0zLjAxLDUuODktNy43NCw1Ljg5LTMuMzYsMC02LjA5LS45NS03Ljk1LTIuOTdaIiBjbGFzcz0iY2xzLTMiLz48cGF0aCBkPSJtMTk2LjA3LDI5LjU3bDIuNjctMi42N2MxLjUzLDEuNjksMy4xOCwyLjIyLDUuMjEsMi4yMnMzLjQ4LS41NiwzLjQ4LTIuMTVjMC0xLjc0LTEuNjQtMi4yMi00LjQtMi45NC0yLjk3LS43Ny02LjA3LTIuMDItNi4wNy01LjgyLDAtMy41NywyLjc1LTUuNjMsNy4zLTUuNjMsMi45NywwLDUuNDIuOTIsNy4xNCwyLjYybC0yLjYsMi42Yy0xLjMtMS4zNC0yLjktMS44My00LjQ3LTEuODMtMS44NSwwLTMuMDYuNjMtMy4wNiwyLjA0czEuNTcsMS44OCw0LjE3LDIuNTdjMy4wNC43Nyw2LjMyLDEuODMsNi4zMiw2LjA3LDAsMy43My0zLjAxLDUuODktNy43NCw1Ljg5LTMuMzYsMC02LjA5LS45NS03Ljk1LTIuOTdaIiBjbGFzcz0iY2xzLTMiLz48cGF0aCBkPSJtMjE0LjYzLDcuNGgxNi4yN3Y0LjFoLTExLjU5djYuNzRoMTEuMTl2NC4wNmgtMTEuMTl2OS44OWgtNC42OFY3LjRaIiBjbGFzcz0iY2xzLTMiLz48cGF0aCBkPSJtMjMyLjU2LDI2Ljk1YzAtNC4xMywzLjM4LTYuMDcsOC4zOC02LjA3aDMuNDh2LTEuMTFjMC0yLjMyLTEuMTMtMy41OS0zLjQ3LTMuNTktMi4xOCwwLTMuNzEuOTMtNC45MSwyLjQ1bC0yLjY2LTIuNjRjMS43OC0xLjk0LDQuMTktMy40MSw4LjA0LTMuNDEsNC44OSwwLDcuNDIsMi41NSw3LjQyLDcuMjF2MTIuNGgtNC4yOXYtMy41N2gtLjExYy0xLjE4LDIuNjktMy4xMSwzLjkyLTYuMTQsMy45Mi0zLjM2LDAtNS43NS0yLjAxLTUuNzUtNS41OVptNy4zNCwyLjE2YzIuODcsMCw0LjUyLTIuMTYsNC41Mi00LjQzdi0xLjI1aC0yLjczYy0yLjU1LDAtNC43LjY5LTQuNywzLjEsMCwxLjYsMS4wOSwyLjU5LDIuOSwyLjU5WiIgY2xhc3M9ImNscy0zIi8+PHBhdGggZD0ibTI1MS4xMiwyMi41N2MwLTYuNCw0LjAxLTkuOTksOS42OS05Ljk5LDMuNjQsMCw2LjE2LDEuNDQsNy42OSwzLjUybC0yLjg1LDIuNTJjLTEuMTEtMS41NS0yLjU5LTIuNDEtNC42NC0yLjQxLTMuMTEsMC01LjIzLDIuMTEtNS4yMyw2LjM3czIuMTEsNi4zNyw1LjIzLDYuMzdjMi4wNCwwLDMuNTItLjg4LDQuNjQtMi40M2wyLjg1LDIuNTNjLTEuNTMsMi4wOC00LjA1LDMuNS03LjY5LDMuNS01LjY4LDAtOS42OS0zLjU5LTkuNjktOS45OFoiIGNsYXNzPSJjbHMtMyIvPjxwYXRoIGQ9Im0yNzIuMDMsMjcuMzl2LTExaC0yLjgxdi0yLjA0bDYuNDItNi40aC44NHY1aDQuMTd2My40NWgtNC4xN3YxMC4xM2MwLDEuNjkuNTUsMi4xNSwyLjA2LDIuMTUuNzYsMCwxLjQ4LS4xMiwyLjExLS4zdjMuODJjLS43Ny4xOS0xLjkyLjMyLTMuMDQuMzItMy44NywwLTUuNTgtMS40My01LjU4LTUuMTJaIiBjbGFzcz0iY2xzLTMiLz48cGF0aCBkPSJtMjgyLjE3LDIyLjU3YzAtNi4wNyw0LjA1LTkuOTksOS44LTkuOTlzOS44LDMuOTIsOS44LDkuOTktNC4wNSw5Ljk4LTkuOCw5Ljk4LTkuOC0zLjkxLTkuOC05Ljk4Wm0xNC45NCwwYzAtNC4xNS0yLjE1LTYuMzctNS4xNC02LjM3cy01LjE0LDIuMjItNS4xNCw2LjM3LDIuMTUsNi4zNyw1LjE0LDYuMzcsNS4xNC0yLjIzLDUuMTQtNi4zN1oiIGNsYXNzPSJjbHMtMyIvPjxwYXRoIGQ9Im0zMDQuNTUsMTIuOTRoNC4zMXY0LjEzaC4wN2MuNjUtMy4wOCwyLjA5LTQuNSw0LjUtNC41LjcsMCwxLjMuMTIsMS42NS4yNXY0LjE3Yy0uNDctLjEyLTEuMTgtLjIzLTEuODUtLjIzLTMuMTcsMC00LjI0LDIuMTgtNC4yNCw1Ljc1djkuNjhoLTQuNDVWMTIuOTRaIiBjbGFzcz0iY2xzLTMiLz48cGF0aCBkPSJtMzE1LjcxLDI5LjU3bDIuNjctMi42N2MxLjUzLDEuNjksMy4xOCwyLjIyLDUuMjEsMi4yMnMzLjQ4LS41NiwzLjQ4LTIuMTVjMC0xLjc0LTEuNjQtMi4yMi00LjQtMi45NC0yLjk3LS43Ny02LjA3LTIuMDItNi4wNy01LjgyLDAtMy41NywyLjc1LTUuNjMsNy4zLTUuNjMsMi45NywwLDUuNDIuOTIsNy4xNCwyLjYybC0yLjYsMi42Yy0xLjMtMS4zNC0yLjktMS44My00LjQ3LTEuODMtMS44NSwwLTMuMDYuNjMtMy4wNiwyLjA0czEuNTcsMS44OCw0LjE3LDIuNTdjMy4wNC43Nyw2LjMyLDEuODMsNi4zMiw2LjA3LDAsMy43My0zLjAxLDUuODktNy43NCw1Ljg5LTMuMzYsMC02LjA5LS45NS03Ljk1LTIuOTdaIiBjbGFzcz0iY2xzLTMiLz48L3N2Zz4=;" parent="5KLEMIwTa-Wp3jbqrs4p-32" vertex="1">
          <mxGeometry x="44" y="5.1200000000000045" width="153.51" height="18.55" as="geometry" />
        </mxCell>
        <mxCell id="fcamXWbQVCFegSQGi5p3-2" value="" style="group" parent="1" vertex="1" connectable="0">
          <mxGeometry x="745" y="210" width="240" height="70" as="geometry" />
        </mxCell>
        <mxCell id="fcamXWbQVCFegSQGi5p3-3" value="" style="rounded=1;whiteSpace=wrap;html=1;strokeColor=#0070F2;strokeWidth=1.5;arcSize=14;fillColor=#FFFFFF;perimeterSpacing=0;" parent="fcamXWbQVCFegSQGi5p3-2" vertex="1">
          <mxGeometry width="239.99999999999997" height="70" as="geometry" />
        </mxCell>
        <mxCell id="fcamXWbQVCFegSQGi5p3-5" value="" style="shape=image;verticalLabelPosition=bottom;labelBackgroundColor=default;verticalAlign=top;aspect=fixed;imageAspect=0;image=data:image/svg+xml,PHN2ZyB4bWxuczp4bGluaz0iaHR0cDovL3d3dy53My5vcmcvMTk5OS94bGluayIgeG1sbnM9Imh0dHA6Ly93d3cudzMub3JnLzIwMDAvc3ZnIiB2aWV3Qm94PSIwIDAgMzMzLjg3NCAzOS44MzIiIGlkPSJhIj48ZGVmcz48bGluZWFyR3JhZGllbnQgZ3JhZGllbnRVbml0cz0idXNlclNwYWNlT25Vc2UiIHkyPSIzOS44MzIiIHgyPSI0MC4yNTgiIHkxPSIwIiB4MT0iNDAuMjU4IiBpZD0iYiI+PHN0b3Agc3RvcC1jb2xvcj0iIzAwYjhmMSIgb2Zmc2V0PSIwIi8+PHN0b3Agc3RvcC1jb2xvcj0iIzAwYjVlZiIgb2Zmc2V0PSIuMDE2Ii8+PHN0b3Agc3RvcC1jb2xvcj0iIzBkOTBkOCIgb2Zmc2V0PSIuMzA4Ii8+PHN0b3Agc3RvcC1jb2xvcj0iIzE2NzVjOCIgb2Zmc2V0PSIuNTc4Ii8+PHN0b3Agc3RvcC1jb2xvcj0iIzFjNjRiZSIgb2Zmc2V0PSIuODE3Ii8+PHN0b3Agc3RvcC1jb2xvcj0iIzFlNWZiYiIgb2Zmc2V0PSIxIi8+PC9saW5lYXJHcmFkaWVudD48L2RlZnM+PHBvbHlsaW5lIGZpbGwtcnVsZT0iZXZlbm9kZCIgZmlsbD0idXJsKCNiKSIgcG9pbnRzPSIwIDM5LjgzMiA0MC42OTIgMzkuODMyIDgwLjUxNyAwIDAgMCAwIDM5LjgzMiIvPjxwYXRoIGZpbGwtcnVsZT0iZXZlbm9kZCIgZmlsbD0iI2ZmZiIgZD0ibTQ3Ljc4Miw3LjQ4OWwtNy45MjUtLjAwNXYxOC44NDVsLTYuOTI0LTE4Ljg0NWgtNi44NjVsLTUuOTEyLDE1Ljc1OWMtLjYzLTMuOTczLTQuNzQtNS4zNDUtNy45NzQtNi4zNzQtMi4xMzUtLjY4Ni00LjQwMS0xLjY5NC00LjM4LTIuODA5LjAxNy0uOTE1LDEuMjE1LTEuNzY1LDMuNTg5LTEuNjM3LDEuNTk1LjA4NCwzLjAwMS4yMTMsNS44LDEuNTYzbDIuNzUzLTQuNzk1Yy0yLjU1NS0xLjMtNi4wODYtMi4xMjEtOC45NzgtMi4xMjRoLS4wMTdjLTMuMzc0LDAtNi4xODUsMS4wOTMtNy45MjgsMi44OTQtMS4yMTQsMS4yNTgtMS44NjksMi44NTYtMS44OTYsNC42MjMtLjA0NCwyLjQzMi44NDgsNC4xNTcsMi43MjEsNS41MzMsMS41ODMsMS4xNiwzLjYwNiwxLjkxMiw1LjM5LDIuNDY1LDIuMjAxLjY4MSwzLjk5NiwxLjI3NCwzLjk3NSwyLjUzOS0uMDE2LjQ1OS0uMTkxLjg4OC0uNTIxLDEuMjM2LS41NDguNTY2LTEuMzkxLjc3OS0yLjU1NS43OTktMi4yNDQuMDQ4LTMuOTEtLjMwMy02LjU2Mi0xLjg3bC0yLjQ0OCw0Ljg2MWMyLjY0NCwxLjUwNiw1Ljc3NiwyLjM4OCw4Ljk3MiwyLjM4OGwuNDExLS4wMDZjMi43ODItLjA1LDUuMDI2LS44NDIsNi44Mi0yLjI4Ni4xMDMtLjA4MS4xOTYtLjE2Ni4yOTEtLjI1bC0uNzk1LDIuMTIzaDcuMmwxLjIwOC0zLjY3NGMxLjI2NS40MzMsMi43MDQuNjcxLDQuMjMyLjY3MSwxLjQ4NywwLDIuODg5LS4yMjksNC4xMzEtLjYzNWwxLjE2NCwzLjYzN2gxMS43NDJ2LTcuNjA3aDIuNTYxYzYuMTg4LDAsOS44NTEtMy4xNTQsOS44NTEtOC40MzYsMC01Ljg4NS0zLjU1Ny04LjU4NS0xMS4xMzItOC41ODVabS0xOC4zMTcsMTYuMTI0Yy0uOTI1LDAtMS43OTItLjE2LTIuNTM5LS40NDNsMi41MTItNy45MjZoLjA0OGwyLjQ2OCw3Ljk0OGMtLjc0Mi4yNjMtMS41ODkuNDIxLTIuNDg4LjQyMVptMTguNzgzLTQuNTUzaC0xLjc0NnYtNi4zODZoMS43NDZjMi4zMjgsMCw0LjE4NS43NzMsNC4xODUsMy4xNTEsMCwyLjQ2MS0xLjg1NywzLjIzNi00LjE4NSwzLjIzNiIvPjxwYXRoIGZpbGw9IiMwMDJhODYiIGQ9Im03OC42MDUsMjguMzlsMi45OTEtMy4wMDhjMS41MTMsMS45NywzLjYyNCwzLjI5LDcuMTA3LDMuMjksMi44NSwwLDUuMDE0LS45NSw1LjAxNC0zLjI3MiwwLTIuNDQ1LTIuNDk4LTMuMTQ5LTUuODc2LTMuOTc2LTMuODg4LS45MzMtOC4xMTEtMi4yMTctOC4xMTEtNy4zODksMC00Ljg3NCwzLjk5NC03LjAwMiw5LjEzMS03LjAwMiw0LjA0NiwwLDYuOTY3LDEuMzM3LDguODg1LDMuNTcybC0yLjkwMywyLjkwM2MtMS41My0xLjc0Mi0zLjQzMS0yLjY5Mi02LjE0LTIuNjkyLTMuMDYxLDAtNC4zODEsMS4yNjctNC4zODEsMi45NTYsMCwyLjIzNCwyLjI3LDIuODMzLDUuNDAxLDMuNjI1LDQuMTcuOTg1LDguNjA0LDIuMTY0LDguNjA0LDcuNjUzLDAsNC40NTEtMy4zMjUsNy40OTUtOS43MTEsNy40OTUtNC42OCwwLTcuOTg3LTEuNTY2LTEwLjAxMS00LjE1MloiLz48cGF0aCBmaWxsPSIjMDAyYTg2IiBkPSJtMTA5Ljk0LDYuMjc1aDMuODdsLTEwLjg1NCwyNy4wNDFoLTMuODcxbDEwLjg1NS0yNy4wNDFaIi8+PHBhdGggZmlsbD0iIzAwMmE4NiIgZD0ibTEyMy40NTYsMjcuMjk5aC0xMS4zNjV2LTMuNjc3bDEwLjgxOS0xNi4yMjFoNC43MTV2MTYuMjU2aDMuMzA4djMuNjQyaC0zLjMwOHY0Ljg5MWgtNC4xNjl2LTQuODkxWm0wLTMuNjQydi04LjA0YzAtLjk4NSwwLTIuMTgyLjA3LTMuMjItLjMzNS42MTYtLjg5NywxLjQ3OC0xLjI2NywyLjA3NmwtNS4wNjcsNy42Yy0uMjk5LjQ0LS43OTIsMS4xNzktMS4wOTEsMS41ODNoNy4zNTRaIi8+PHBhdGggZmlsbD0iIzAwMmE4NiIgZD0ibTEzNC4xMjQsNy40MDFoNC42OHY5LjgxN2gxMC45NzlWNy40MDFoNC42OTd2MjQuNzg5aC00LjY5N3YtMTAuNjYyaC0xMC45Nzl2MTAuNjYyaC00LjY4VjcuNDAxWiIvPjxwYXRoIGZpbGw9IiMwMDJhODYiIGQ9Im0xNjUuODUsNy40MDFoNS40NzJsOS4wOTYsMjQuNzg5aC00LjgwM2wtMi4wMjMtNi4wMzVoLTEwLjExNmwtMi4wMjMsNi4wMzVoLTQuNjhsOS4wNzgtMjQuNzg5Wm02LjQ3NSwxNC45NzJsLTIuNTMzLTcuNTY1Yy0uNDIzLTEuMjMxLTEuMDAzLTIuOTAzLTEuMjY4LTMuODE4LS4yNjQuOTE1LS44MDksMi41ODYtMS4yMzEsMy44MThsLTIuNTMzLDcuNTY1aDcuNTY1WiIvPjxwYXRoIGZpbGw9IiMwMDJhODYiIGQ9Im0xODIuNjkzLDcuNDAxaDUuNTA3bDExLjIwNywxOS41NDZjLS4wODgtMS4wMDMtLjE1OC0zLjI1NS0uMTU4LTUuNDU0VjcuNDAxaDQuMjR2MjQuNzg5aC01LjY0N2wtMTEuMDY2LTE5LjNjLjA4OCwxLjAwMy4xNTgsMy4yMzcuMTU4LDUuNDU0djEzLjg0NmgtNC4yNFY3LjQwMVoiLz48cGF0aCBmaWxsPSIjMDAyYTg2IiBkPSJtMjE0Ljg1OSw3LjQwMWg1LjQ3Mmw5LjA5NiwyNC43ODloLTQuODAzbC0yLjAyMy02LjAzNWgtMTAuMTE2bC0yLjAyMyw2LjAzNWgtNC42OGw5LjA3OC0yNC43ODlabTYuNDc1LDE0Ljk3MmwtMi41MzMtNy41NjVjLS40MjMtMS4yMzEtMS4wMDMtMi45MDMtMS4yNjgtMy44MTgtLjI2NC45MTUtLjgwOSwyLjU4Ni0xLjIzMSwzLjgxOGwtMi41MzMsNy41NjVoNy41NjVaIi8+PHBhdGggZmlsbD0iIzAwMmE4NiIgZD0ibTIzNy4yNSwxOS43ODdjMC04LjY3Myw1LjU2LTEyLjc1NSwxMi42MTQtMTIuNzU1LDQuMjkzLDAsNy40OTUsMS40OTYsOS43NDcsNC4wODJsLTMuMTQ5LDMuMTQ5Yy0xLjQyNS0xLjg0Ny0zLjQ0OC0zLjA3OS02LjU4LTMuMDc5LTQuODkxLDAtNy43OTQsMi45OTEtNy43OTQsOC42MDNzMi45MDMsOC42MjEsNy43OTQsOC42MjFjMy4xMzIsMCw1LjE1NS0xLjIzMSw2LjU4LTMuMDc5bDMuMTQ5LDMuMTQ5Yy0yLjIzNCwyLjU2OS01LjQ3Miw0LjA2NC05Ljc0Nyw0LjA2NC03LjA1NSwwLTEyLjYxNC00LjA2NC0xMi42MTQtMTIuNzU1WiIvPjxwYXRoIGZpbGw9IiMwMDJhODYiIGQ9Im0yNjIuMDg3LDI3LjQ1OFY1Ljk1OGg0LjQ2OXYyMC43MjVjMCwxLjQ5Ni4zNTIsMi4wMjMsMS42MzYsMi4wMjMuNTQ2LDAsMS4wMjEtLjA4OCwxLjUzMS0uMTk0djMuNjc3Yy0uNzA0LjE3Ni0xLjY1NC4zMTctMi42MjIuMzE3LTMuNjI0LDAtNS4wMTQtMS43MjQtNS4wMTQtNS4wNDlaIi8+PHBhdGggZmlsbD0iIzAwMmE4NiIgZD0ibTI3MS40NDQsMjIuNTY3YzAtNi4wNyw0LjA0Ny05Ljk5Myw5LjgtOS45OTNzOS43OTksMy45MjMsOS43OTksOS45OTMtNC4wNDYsOS45NzYtOS43OTksOS45NzYtOS44LTMuOTA2LTkuOC05Ljk3NlptMTQuOTM3LDBjMC00LjE1Mi0yLjE0Ni02LjM2OS01LjEzNy02LjM2OXMtNS4xMzgsMi4yMTctNS4xMzgsNi4zNjksMi4xNDYsNi4zNjksNS4xMzgsNi4zNjksNS4xMzctMi4yMzQsNS4xMzctNi4zNjlaIi8+PHBhdGggZmlsbD0iIzAwMmE4NiIgZD0ibTI5NC4zNDYsMjUuNjI4di0xMi42ODVoNC40Njl2MTEuNjI5YzAsMi41NjkuODgsNC4xNTIsMy40NjYsNC4xNTIsMi42NTYsMCw0LjMxMS0xLjc3Nyw0LjMxMS01LjAxNHYtMTAuNzY3aDQuNDM0djE5LjI0N2gtNC4yOTN2LTQuMDY0aC0uMDg4Yy0uODgsMi4yMTctMi42MjEsNC40MTYtNi4zMTYsNC40MTYtNC4xMTYsMC01Ljk4MS0yLjgxNS01Ljk4MS02LjkxNVoiLz48cGF0aCBmaWxsPSIjMDAyYTg2IiBkPSJtMzE0LjUzOSwyMi41NjdjMC02LDMuMDA5LTkuOTkzLDcuOTg3LTkuOTkzLDMuNzQ3LDAsNS45MTEsMi4wMDYsNi44MDksNC4xODhoLjA4OFY1Ljk1OGg0LjQ1MXYyNi4yMzJoLTQuMjkzdi0zLjk1OGgtLjA4OGMtLjkzMiwyLjIxNy0yLjcyNyw0LjMxMS02Ljc5MSw0LjMxMS00Ljg5MSwwLTguMTYzLTMuNzgzLTguMTYzLTkuOTc2Wm0xNC45MTksMGMwLTQuMTUyLTIuMTI5LTYuMzY5LTUuMTE5LTYuMzY5LTMuMDA5LDAtNS4xMzgsMi4yMTctNS4xMzgsNi4zNjlzMi4xMjksNi4zNjksNS4xMzgsNi4zNjljMi45OSwwLDUuMTE5LTIuMjM0LDUuMTE5LTYuMzY5WiIvPjwvc3ZnPg==;" parent="fcamXWbQVCFegSQGi5p3-2" vertex="1">
          <mxGeometry x="43" y="26" width="154.89" height="18.55" as="geometry" />
        </mxCell>
        <mxCell id="fcamXWbQVCFegSQGi5p3-9" value="" style="group" parent="1" vertex="1" connectable="0">
          <mxGeometry x="407" y="373" width="110" height="95" as="geometry" />
        </mxCell>
        <mxCell id="fcamXWbQVCFegSQGi5p3-10" value="&lt;font color=&quot;#1d2d3e&quot; size=&quot;1&quot; face=&quot;arial&quot; style=&quot;&quot;&gt;&lt;b style=&quot;font-size: 14px;&quot;&gt;SAP Build Process Automation&lt;br&gt;&lt;/b&gt;&lt;/font&gt;" style="text;html=1;align=center;verticalAlign=top;resizable=1;points=[[0,0.5,0,0,0],[0.21,1,0,0,0],[0.5,1,0,0,0],[0.85,1,0,0,0],[1,0.5,0,0,0]];autosize=0;strokeColor=none;fillColor=none;fontSize=12;fontColor=default;fontFamily=Helvetica;fixedWidth=1;imageWidth=24;whiteSpace=wrap;labelBackgroundColor=none;" parent="fcamXWbQVCFegSQGi5p3-9" vertex="1">
          <mxGeometry y="49" width="110" height="46" as="geometry" />
        </mxCell>
        <mxCell id="fcamXWbQVCFegSQGi5p3-11" value="" style="shape=image;verticalLabelPosition=bottom;labelBackgroundColor=default;verticalAlign=top;aspect=fixed;imageAspect=0;image=data:image/svg+xml,PHN2ZyB4bWxucz0iaHR0cDovL3d3dy53My5vcmcvMjAwMC9zdmciIGZpbGw9Im5vbmUiIHZpZXdCb3g9IjAgMCAxNiAxNiIgaGVpZ2h0PSIxNiIgd2lkdGg9IjE2Ij4mI3hhOzxnIGNsaXAtcGF0aD0idXJsKCNjbGlwMF8zMTA2XzI3MDY1KSI+JiN4YTs8Y2lyY2xlIHN0cm9rZS13aWR0aD0iMC4yNzM4OTMiIHN0cm9rZT0iI0Q1REFERCIgZmlsbD0idXJsKCNwYWludDBfbGluZWFyXzMxMDZfMjcwNjUpIiByPSI3LjUzMjA1IiBjeT0iOC4wMDAwNSIgY3g9IjcuOTk5MzIiLz4mI3hhOzxnIGNsaXAtcGF0aD0idXJsKCNjbGlwMV8zMTA2XzI3MDY1KSI+JiN4YTs8bWFzayBoZWlnaHQ9IjEyIiB3aWR0aD0iMTMiIHk9IjIiIHg9IjIiIG1hc2tVbml0cz0idXNlclNwYWNlT25Vc2UiIHN0eWxlPSJtYXNrLXR5cGU6YWxwaGEiIGlkPSJtYXNrMF8zMTA2XzI3MDY1Ij4mI3hhOzxwYXRoIGZpbGw9ImJsYWNrIiBkPSJNOS41MzU2MyA5LjM1MTM1QzEwLjUxMDMgOS4wNDIyMSAxMS4yMTU0IDguMTQxNyAxMS4yMTU0IDcuMDc4OThDMTEuMjE1NCA1Ljc2MDc3IDEwLjEzMDQgNC42OTIxNCA4Ljc5MjAzIDQuNjkyMTRMNy44NzM4OCA0LjY5MjE0QzYuNTU1NjggNC42OTIxNCA1LjQ4NzA2IDUuNzYwNzYgNS40ODcwNiA3LjA3ODk3VjkuOTQzMTdDNS40ODcwNiAxMC43MzQxIDYuMTI4MjMgMTEuMzc1MyA2LjkxOTE1IDExLjM3NTNDNy43MTAwOCAxMS4zNzUzIDguMzUxMjUgMTAuNzM0MSA4LjM1MTI1IDkuOTQzMTdMOC4zNTEyNSA3LjIzNjYyQzguMzUxMjUgNy4wNTIxNiA4LjYxNTY4IDcuMDIxNzkgOC42NTc0OSA3LjIwMTQ1TDkuMDg2NTEgOS4wNDQ5MUM5LjE0ODA0IDkuMzAwNzEgOS4zMDMwOSA5LjQyNTExIDkuNTM1NjMgOS4zNTEzNVoiLz4mI3hhOzwvbWFzaz4mI3hhOzxnIG1hc2s9InVybCgjbWFzazBfMzEwNl8yNzA2NSkiPiYjeGE7PGcgZmlsdGVyPSJ1cmwoI2ZpbHRlcjBfZF8zMTA2XzI3MDY1KSI+JiN4YTs8cGF0aCBmaWxsPSJ1cmwoI3BhaW50MV9yYWRpYWxfMzEwNl8yNzA2NSkiIGQ9Ik0xMy44NTA3IDQuMjM3MUMxMi45NDE0IDUuMDg3MjMgMTEuNTk5NiA1LjQxMTcxIDExLjQzODYgOS4yNTgyNEMxMS4yNzc2IDEzLjEwNDggNi42NDA5MyAxMS45MTQyIDUuNjU3MTEgMTEuNDc3OUMzLjkxNzAxIDEwLjcwNjIgMS4zOTI5NCA1LjYxNTYxIDQuMzAxMTggNC4wMjE1MkM3LjIwOTQyIDIuNDI3NDIgOS4wMDAyOSAxLjA5OTM5IDEwLjc0MDQgMS44NzExQzEyLjQ4MDUgMi42NDI4IDE0Ljc2IDMuMzg2OTcgMTMuODUwNyA0LjIzNzFaIi8+JiN4YTs8L2c+JiN4YTs8ZyBmaWx0ZXI9InVybCgjZmlsdGVyMV9kXzMxMDZfMjcwNjUpIj4mI3hhOzxwYXRoIGZpbGw9InVybCgjcGFpbnQyX3JhZGlhbF8zMTA2XzI3MDY1KSIgZD0iTTEzLjIwNjcgNi41NDU1OEMxMi4xNDgzIDYuNzg5NCA5LjkzOTM1IDUuNzY1MTcgOC4xMzQ2NSA4LjU5ODIyQzYuMzI5OTYgMTEuNDMxMyAzLjE0NTgzIDkuMTQzOTYgMi41OTQxMiA4LjM4NDEyQzEuNjE4MzEgNy4wNDAxNyAxLjc1NjggMi43NTE5MSA0LjY0OTU5IDIuODIxMjFDNy41NDIzOSAyLjg5MDUxIDEwLjc3ODEgMy4zMTU2MiAxMS43NTM5IDQuNjU5NTZDMTIuNzI5NyA2LjAwMzUgMTQuMjY1IDYuMzAxNzUgMTMuMjA2NyA2LjU0NTU4WiIvPiYjeGE7PC9nPiYjeGE7PGcgZmlsdGVyPSJ1cmwoI2ZpbHRlcjJfZF8zMTA2XzI3MDY1KSI+JiN4YTs8cGF0aCBmaWxsPSJ1cmwoI3BhaW50M19yYWRpYWxfMzEwNl8yNzA2NSkiIGQ9Ik0zLjU3OTA1IDkuMzAyODlDMi4yOTU4OSA4LjkzODcgMS41NTA5MiA3LjYwMzI3IDEuOTE1MTEgNi4zMjAxMUMyLjI3OTI5IDUuMDM2OTYgNC44OTE3NSAyLjQ2NjA5IDYuMTc0OTEgMi44MzAyN0M3LjQ1ODA2IDMuMTk0NDYgNy45Njk5NCA1LjYwNDEgNy42MDU3NSA2Ljg4NzI1QzcuMjQxNTcgOC4xNzA0MSA1LjIzOTU4IDkuNzc0MTggMy41NzkwNSA5LjMwMjg5WiIvPiYjeGE7PC9nPiYjeGE7PC9nPiYjeGE7PC9nPiYjeGE7PC9nPiYjeGE7PGRlZnM+JiN4YTs8ZmlsdGVyIGNvbG9yLWludGVycG9sYXRpb24tZmlsdGVycz0ic1JHQiIgZmlsdGVyVW5pdHM9InVzZXJTcGFjZU9uVXNlIiBoZWlnaHQ9IjExLjY5ODciIHdpZHRoPSIxMi40Mjk0IiB5PSIxLjAxNzUiIHg9IjIuNTI0OTgiIGlkPSJmaWx0ZXIwX2RfMzEwNl8yNzA2NSI+JiN4YTs8ZmVGbG9vZCByZXN1bHQ9IkJhY2tncm91bmRJbWFnZUZpeCIgZmxvb2Qtb3BhY2l0eT0iMCIvPiYjeGE7PGZlQ29sb3JNYXRyaXggcmVzdWx0PSJoYXJkQWxwaGEiIHZhbHVlcz0iMCAwIDAgMCAwIDAgMCAwIDAgMCAwIDAgMCAwIDAgMCAwIDAgMTI3IDAiIHR5cGU9Im1hdHJpeCIgaW49IlNvdXJjZUFscGhhIi8+JiN4YTs8ZmVPZmZzZXQgZHk9IjAuMDQ0ODQwNSIgZHg9IjAuMjI0MjAyIi8+JiN4YTs8ZmVHYXVzc2lhbkJsdXIgc3RkRGV2aWF0aW9uPSIwLjMzNjMwNCIvPiYjeGE7PGZlQ29tcG9zaXRlIG9wZXJhdG9yPSJvdXQiIGluMj0iaGFyZEFscGhhIi8+JiN4YTs8ZmVDb2xvck1hdHJpeCB2YWx1ZXM9IjAgMCAwIDAgMCAwIDAgMCAwIDAgMCAwIDAgMCAwIDAgMCAwIDAuNCAwIiB0eXBlPSJtYXRyaXgiLz4mI3hhOzxmZUJsZW5kIHJlc3VsdD0iZWZmZWN0MV9kcm9wU2hhZG93XzMxMDZfMjcwNjUiIGluMj0iQmFja2dyb3VuZEltYWdlRml4IiBtb2RlPSJub3JtYWwiLz4mI3hhOzxmZUJsZW5kIHJlc3VsdD0ic2hhcGUiIGluMj0iZWZmZWN0MV9kcm9wU2hhZG93XzMxMDZfMjcwNjUiIGluPSJTb3VyY2VHcmFwaGljIiBtb2RlPSJub3JtYWwiLz4mI3hhOzwvZmlsdGVyPiYjeGE7PGZpbHRlciBjb2xvci1pbnRlcnBvbGF0aW9uLWZpbHRlcnM9InNSR0IiIGZpbHRlclVuaXRzPSJ1c2VyU3BhY2VPblVzZSIgaGVpZ2h0PSI4LjUwMjIiIHdpZHRoPSIxMi44NjAxIiB5PSIyLjE5MjU1IiB4PSIxLjYwMDkxIiBpZD0iZmlsdGVyMV9kXzMxMDZfMjcwNjUiPiYjeGE7PGZlRmxvb2QgcmVzdWx0PSJCYWNrZ3JvdW5kSW1hZ2VGaXgiIGZsb29kLW9wYWNpdHk9IjAiLz4mI3hhOzxmZUNvbG9yTWF0cml4IHJlc3VsdD0iaGFyZEFscGhhIiB2YWx1ZXM9IjAgMCAwIDAgMCAwIDAgMCAwIDAgMCAwIDAgMCAwIDAgMCAwIDEyNyAwIiB0eXBlPSJtYXRyaXgiIGluPSJTb3VyY2VBbHBoYSIvPiYjeGE7PGZlT2Zmc2V0IGR5PSIwLjA0NDg0MDUiIGR4PSIwLjIyNDIwMiIvPiYjeGE7PGZlR2F1c3NpYW5CbHVyIHN0ZERldmlhdGlvbj0iMC4zMzYzMDQiLz4mI3hhOzxmZUNvbXBvc2l0ZSBvcGVyYXRvcj0ib3V0IiBpbjI9ImhhcmRBbHBoYSIvPiYjeGE7PGZlQ29sb3JNYXRyaXggdmFsdWVzPSIwIDAgMCAwIDAgMCAwIDAgMCAwIDAgMCAwIDAgMCAwIDAgMCAwLjQgMCIgdHlwZT0ibWF0cml4Ii8+JiN4YTs8ZmVCbGVuZCByZXN1bHQ9ImVmZmVjdDFfZHJvcFNoYWRvd18zMTA2XzI3MDY1IiBpbjI9IkJhY2tncm91bmRJbWFnZUZpeCIgbW9kZT0ibm9ybWFsIi8+JiN4YTs8ZmVCbGVuZCByZXN1bHQ9InNoYXBlIiBpbjI9ImVmZmVjdDFfZHJvcFNoYWRvd18zMTA2XzI3MDY1IiBpbj0iU291cmNlR3JhcGhpYyIgbW9kZT0ibm9ybWFsIi8+JiN4YTs8L2ZpbHRlcj4mI3hhOzxmaWx0ZXIgY29sb3ItaW50ZXJwb2xhdGlvbi1maWx0ZXJzPSJzUkdCIiBmaWx0ZXJVbml0cz0idXNlclNwYWNlT25Vc2UiIGhlaWdodD0iNy45MzY3NyIgd2lkdGg9IjcuMjQyNjgiIHk9IjIuMTY3NjQiIHg9IjEuMzc0MzUiIGlkPSJmaWx0ZXIyX2RfMzEwNl8yNzA2NSI+JiN4YTs8ZmVGbG9vZCByZXN1bHQ9IkJhY2tncm91bmRJbWFnZUZpeCIgZmxvb2Qtb3BhY2l0eT0iMCIvPiYjeGE7PGZlQ29sb3JNYXRyaXggcmVzdWx0PSJoYXJkQWxwaGEiIHZhbHVlcz0iMCAwIDAgMCAwIDAgMCAwIDAgMCAwIDAgMCAwIDAgMCAwIDAgMTI3IDAiIHR5cGU9Im1hdHJpeCIgaW49IlNvdXJjZUFscGhhIi8+JiN4YTs8ZmVPZmZzZXQgZHk9IjAuMDQ0ODQwNSIgZHg9IjAuMjI0MjAyIi8+JiN4YTs8ZmVHYXVzc2lhbkJsdXIgc3RkRGV2aWF0aW9uPSIwLjMzNjMwNCIvPiYjeGE7PGZlQ29tcG9zaXRlIG9wZXJhdG9yPSJvdXQiIGluMj0iaGFyZEFscGhhIi8+JiN4YTs8ZmVDb2xvck1hdHJpeCB2YWx1ZXM9IjAgMCAwIDAgMCAwIDAgMCAwIDAgMCAwIDAgMCAwIDAgMCAwIDAuNCAwIiB0eXBlPSJtYXRyaXgiLz4mI3hhOzxmZUJsZW5kIHJlc3VsdD0iZWZmZWN0MV9kcm9wU2hhZG93XzMxMDZfMjcwNjUiIGluMj0iQmFja2dyb3VuZEltYWdlRml4IiBtb2RlPSJub3JtYWwiLz4mI3hhOzxmZUJsZW5kIHJlc3VsdD0ic2hhcGUiIGluMj0iZWZmZWN0MV9kcm9wU2hhZG93XzMxMDZfMjcwNjUiIGluPSJTb3VyY2VHcmFwaGljIiBtb2RlPSJub3JtYWwiLz4mI3hhOzwvZmlsdGVyPiYjeGE7PGxpbmVhckdyYWRpZW50IGdyYWRpZW50VW5pdHM9InVzZXJTcGFjZU9uVXNlIiB5Mj0iMTQuNDY4OSIgeDI9IjEzLjQ1MjEiIHkxPSIyLjUwODA0IiB4MT0iMS43MjEyNCIgaWQ9InBhaW50MF9saW5lYXJfMzEwNl8yNzA2NSI+JiN4YTs8c3RvcCBzdG9wLWNvbG9yPSJ3aGl0ZSIvPiYjeGE7PHN0b3Agc3RvcC1jb2xvcj0iI0VBRUNFRSIgb2Zmc2V0PSIxIi8+JiN4YTs8L2xpbmVhckdyYWRpZW50PiYjeGE7PHJhZGlhbEdyYWRpZW50IGdyYWRpZW50VHJhbnNmb3JtPSJ0cmFuc2xhdGUoOC4zMzg3IDUuMjU4NzgpIHJvdGF0ZSg3OS4wOTY3KSBzY2FsZSgxMC45MDQ0IDEwLjA5OCkiIGdyYWRpZW50VW5pdHM9InVzZXJTcGFjZU9uVXNlIiByPSIxIiBjeT0iMCIgY3g9IjAiIGlkPSJwYWludDFfcmFkaWFsXzMxMDZfMjcwNjUiPiYjeGE7PHN0b3Agc3RvcC1jb2xvcj0iIzEzNDhGRiIvPiYjeGE7PHN0b3Agc3RvcC1jb2xvcj0iIzA2MjM4RCIgb2Zmc2V0PSIxIi8+JiN4YTs8L3JhZGlhbEdyYWRpZW50PiYjeGE7PHJhZGlhbEdyYWRpZW50IGdyYWRpZW50VHJhbnNmb3JtPSJ0cmFuc2xhdGUoOS4yNTAwNSAxLjYzODAyKSByb3RhdGUoMTA4LjU0OSkgc2NhbGUoMTQuMzUxOCAyNS40NykiIGdyYWRpZW50VW5pdHM9InVzZXJTcGFjZU9uVXNlIiByPSIxIiBjeT0iMCIgY3g9IjAiIGlkPSJwYWludDJfcmFkaWFsXzMxMDZfMjcwNjUiPiYjeGE7PHN0b3Agc3RvcC1jb2xvcj0iIzAxOTVGRiIvPiYjeGE7PHN0b3Agc3RvcC1jb2xvcj0iIzExNDdFOSIgb2Zmc2V0PSIxIi8+JiN4YTs8L3JhZGlhbEdyYWRpZW50PiYjeGE7PHJhZGlhbEdyYWRpZW50IGdyYWRpZW50VHJhbnNmb3JtPSJ0cmFuc2xhdGUoNy4xNDEzNiAzLjc4NzA2KSByb3RhdGUoMTQ0Ljc0Nikgc2NhbGUoOC43MDE2NSAxMS44MzcxKSIgZ3JhZGllbnRVbml0cz0idXNlclNwYWNlT25Vc2UiIHI9IjEiIGN5PSIwIiBjeD0iMCIgaWQ9InBhaW50M19yYWRpYWxfMzEwNl8yNzA2NSI+JiN4YTs8c3RvcCBzdG9wLWNvbG9yPSIjMDBCQkZGIi8+JiN4YTs8c3RvcCBzdG9wLWNvbG9yPSIjMDA4QkZGIiBvZmZzZXQ9IjEiLz4mI3hhOzwvcmFkaWFsR3JhZGllbnQ+JiN4YTs8Y2xpcFBhdGggaWQ9ImNsaXAwXzMxMDZfMjcwNjUiPiYjeGE7PHJlY3QgdHJhbnNmb3JtPSJ0cmFuc2xhdGUoLTAuMDAwNzMyNDIyKSIgZmlsbD0id2hpdGUiIGhlaWdodD0iMTYiIHdpZHRoPSIxNiIvPiYjeGE7PC9jbGlwUGF0aD4mI3hhOzxjbGlwUGF0aCBpZD0iY2xpcDFfMzEwNl8yNzA2NSI+JiN4YTs8cmVjdCB0cmFuc2Zvcm09InRyYW5zbGF0ZSgzLjQ5OTI3IDMuMTY2NzUpIiBmaWxsPSJ3aGl0ZSIgaGVpZ2h0PSI5LjY2NjY3IiB3aWR0aD0iOS42NjY2NiIvPiYjeGE7PC9jbGlwUGF0aD4mI3hhOzwvZGVmcz4mI3hhOzwvc3ZnPg==;points=[[0,0,0,0,0],[0,0.25,0,0,0],[0,0.5,0,0,0],[0,0.75,0,0,0],[0.25,0,0,0,0],[0.5,0,0,0,0],[0.75,0,0,0,0],[1,0,0,0,0],[1,0.25,0,0,0],[1,0.5,0,0,0],[1,0.75,0,0,0]];" parent="fcamXWbQVCFegSQGi5p3-9" vertex="1">
          <mxGeometry x="30.5" width="49" height="49" as="geometry" />
        </mxCell>
        <mxCell id="fcamXWbQVCFegSQGi5p3-12" style="edgeStyle=orthogonalEdgeStyle;rounded=0;orthogonalLoop=1;jettySize=auto;html=1;entryX=0.5;entryY=0;entryDx=0;entryDy=0;entryPerimeter=0;" parent="1" source="fcamXWbQVCFegSQGi5p3-3" target="fcamXWbQVCFegSQGi5p3-11" edge="1">
          <mxGeometry relative="1" as="geometry" />
        </mxCell>
        <mxCell id="8n7peT-14dQjZCu0egMe-5" style="edgeStyle=orthogonalEdgeStyle;rounded=0;orthogonalLoop=1;jettySize=auto;html=1;" parent="1" source="8n7peT-14dQjZCu0egMe-2" target="5KLEMIwTa-Wp3jbqrs4p-33" edge="1">
          <mxGeometry relative="1" as="geometry" />
        </mxCell>
        <mxCell id="8n7peT-14dQjZCu0egMe-2" value="" style="shape=image;verticalLabelPosition=bottom;labelBackgroundColor=default;verticalAlign=top;aspect=fixed;imageAspect=0;image=data:image/svg+xml,PHN2ZyB4bWxucz0iaHR0cDovL3d3dy53My5vcmcvMjAwMC9zdmciIGZpbGw9Im5vbmUiIHZpZXdCb3g9IjAgMCA0OCA0OCIgaGVpZ2h0PSI0OCIgd2lkdGg9IjQ4Ij4mI3hhOzxjaXJjbGUgc3Ryb2tlLXdpZHRoPSIwLjg1NzE0MyIgc3Ryb2tlPSIjRDVEQUREIiBmaWxsPSJ1cmwoI3BhaW50MF9saW5lYXJfMzIzMl80NjAyKSIgcj0iMjMuNTcxNCIgY3k9IjI0IiBjeD0iMjQiLz4mI3hhOzxnIGNsaXAtcGF0aD0idXJsKCNjbGlwMF8zMjMyXzQ2MDIpIj4mI3hhOzxwYXRoIGZpbGw9InVybCgjcGFpbnQxX2xpbmVhcl8zMjMyXzQ2MDIpIiBkPSJNMTUuNzUwNSAxNi42Njc3QzE2LjcyNDkgMTMuMzM2MiAxOS43OTc0IDEwLjQ5NjEgMjMuODY3NyAxMC40OTYxQzI3LjE2MzUgMTAuNDk2MSAyOS43MzQxIDEyLjE0NDYgMzEuMjU2MSAxNC42Mjg4QzM0LjYzOTYgMTUuMzAwMSAzNy4zNjc3IDE4LjMyMTcgMzcuMzY3NyAyMi4yMzE3QzM3LjM2NzcgMjUuNTg1NSAzNS40OTQ5IDI3Ljk4MzcgMzMuMDI0OCAyOS4xNDkyQzMzLjExMzYgMjguODUwNyAzMy4xNjEzIDI4LjUzNDQgMzMuMTYxMyAyOC4yMDdWMjYuOTgzOEMzMy4xNjEzIDI2LjE1ODkgMzIuODU4NiAyNS40MDQ4IDMyLjM1ODMgMjQuODI2M0MzMy4wMDkxIDI0LjIyMzcgMzMuNDE2NSAyMy4zNjE4IDMzLjQxNjUgMjIuNDA0OVYyMS40ODk2QzMzLjQxNjUgMTkuNjY3MyAzMS45MzkzIDE4LjE5MDEgMzAuMTE3IDE4LjE5MDFIMjkuMjA2NkMyOC4xOTkzIDE4LjE5MDEgMjcuMjk3MyAxOC42NDE1IDI2LjY5MjEgMTkuMzUzMVYxOC41ODkzQzI2LjY5MjEgMTYuNzY3IDI1LjIxNDkgMTUuMjg5OCAyMy4zOTI2IDE1LjI4OThIMjIuNDgyMkMyMC42NiAxNS4yODk4IDE5LjE4MjcgMTYuNzY3IDE5LjE4MjcgMTguNTg5M1YxOS41MDQ2QzE5LjE4MjcgMTkuNzQ5NyAxOS4yMDk1IDE5Ljk4ODUgMTkuMjYwMiAyMC4yMTg0QzE5LjIyODMgMjAuMjE3NSAxOS4xOTYyIDIwLjIxNyAxOS4xNjQxIDIwLjIxN0gxOC4yNTM3QzE2LjQzMTUgMjAuMjE3IDE0Ljk1NDIgMjEuNjk0MiAxNC45NTQyIDIzLjUxNjVWMjQuNDMxOEMxNC45NTQyIDI1LjkxNzkgMTUuOTM2OCAyNy4xNzQ2IDE3LjI4NzcgMjcuNTg3NkMxNi43OTIxIDI4LjE2NDkgMTYuNDkyNiAyOC45MTU0IDE2LjQ5MjYgMjkuNzM1OVYyOS44NjI4QzE0Ljk4OTcgMjkuNjY2NCAxMy42MTU5IDI5LjA4MjQgMTIuNTQ1MyAyOC4wMzU1QzExLjE5NTMgMjYuNzE1NiAxMC42MzIxIDI0Ljk1NjkgMTAuNjMyMSAyMy4yMDk3QzEwLjYzMjEgMjEuMjg3NyAxMS4zNzY1IDE5LjQxMjYgMTIuODYxMiAxOC4xMTA2QzEzLjY4ODIgMTcuMzg1MiAxNC42NzM2IDE2LjkgMTUuNzUwNSAxNi42Njc3WiIgY2xpcC1ydWxlPSJldmVub2RkIiBmaWxsLXJ1bGU9ImV2ZW5vZGQiLz4mI3hhOzxwYXRoIGZpbGw9InVybCgjcGFpbnQyX2xpbmVhcl8zMjMyXzQ2MDIpIiBkPSJNMjMuMzkyNiAxNi42NDAxQzI0LjQ2OTMgMTYuNjQwMSAyNS4zNDIxIDE3LjUxMyAyNS4zNDIxIDE4LjU4OTZWMTkuNTA0OUMyNS4zNDIxIDIwLjEwNTYgMjUuMDcwNCAyMC42NDI4IDI0LjY0MzMgMjEuMDAwNEwyNS4wMTM0IDIyLjIxMzhDMjUuNDk5MiAyMi4yNDMyIDI1LjkzNjkgMjIuNDUwNCAyNi4yNjI0IDIyLjc3MTJMMjcuMjU3MSAyMi4xOTYxVjIxLjQ4OTlDMjcuMjU3MSAyMC40MTMyIDI4LjEyOTkgMTkuNTQwNCAyOS4yMDY2IDE5LjU0MDRIMzAuMTE3QzMxLjE5MzcgMTkuNTQwNCAzMi4wNjY1IDIwLjQxMzIgMzIuMDY2NSAyMS40ODk5VjIyLjQwNTJDMzIuMDY2NSAyMy40ODE5IDMxLjE5MzcgMjQuMzU0NyAzMC4xMTcgMjQuMzU0N0gyOS4yMDY2QzI4LjY3ODQgMjQuMzU0NyAyOC4xOTkzIDI0LjE0NDcgMjcuODQ4MiAyMy44MDM2TDI2Ljg2MTMgMjQuMzc0MkwyNi44NDM0IDI0LjM0MzNWMjUuMDcwMUMyNi44NDM0IDI1LjA3NDUgMjYuODQzNCAyNS4wNzkgMjYuODQzNCAyNS4wODM0TDI3LjQyMzcgMjUuNDYzN0MyNy43NTc3IDI1LjE5NTMgMjguMTgyMSAyNS4wMzQ3IDI4LjY0MzkgMjUuMDM0N0gyOS44NjE3QzMwLjkzODQgMjUuMDM0NyAzMS44MTEyIDI1LjkwNzUgMzEuODExMiAyNi45ODQyVjI4LjIwNzRDMzEuODExMiAyOS4yODQxIDMwLjkzODQgMzAuMTU2OSAyOS44NjE3IDMwLjE1NjlIMjguNjQzOUMyNy41NjcyIDMwLjE1NjkgMjYuNjk0NCAyOS4yODQxIDI2LjY5NDQgMjguMjA3NFYyNy4wMDMzTDI2LjA5MTYgMjYuNjA4NEMyNS43NjExIDI2Ljg2NiAyNS4zNDU1IDI3LjAxOTYgMjQuODkzOSAyNy4wMTk2SDIzLjk4MzVDMjMuOTI5OCAyNy4wMTk2IDIzLjg3NjYgMjcuMDE3NCAyMy44MjM5IDI3LjAxMzFMMjIuNDQ2MSAyOC44NjMzQzIyLjU3NzggMjkuMTI1OSAyMi42NTE5IDI5LjQyMjQgMjIuNjUxOSAyOS43MzYyVjMwLjY1MTVDMjIuNjUxOSAzMS43MjgyIDIxLjc3OTEgMzIuNjAxIDIwLjcwMjQgMzIuNjAxSDE5Ljc5MjFDMTguNzE1NCAzMi42MDEgMTcuODQyNiAzMS43MjgyIDE3Ljg0MjYgMzAuNjUxNUwxNy44NDI2IDI5LjczNjJDMTcuODQyNiAyOC42NTk2IDE4LjcxNTQgMjcuNzg2NyAxOS43OTIxIDI3Ljc4NjdIMjAuNzAyNEMyMC44NDI4IDI3Ljc4NjcgMjAuOTc5OCAyNy44MDE2IDIxLjExMTcgMjcuODI5OEwyMi4zNjE0IDI2LjE1MThDMjIuMTU0NiAyNS44NDIyIDIyLjAzNCAyNS40NzAyIDIyLjAzNCAyNS4wNzAxVjI1LjA0NDVMMjEuMDE1NSAyNS4wNDQ1QzIwLjc1ODcgMjUuODIxMiAyMC4wMjY4IDI2LjM4MTcgMTkuMTY0MSAyNi4zODE3SDE4LjI1MzdDMTcuMTc3IDI2LjM4MTcgMTYuMzA0MiAyNS41MDg5IDE2LjMwNDIgMjQuNDMyMlYyMy41MTY5QzE2LjMwNDIgMjIuNDQwMiAxNy4xNzcgMjEuNTY3NCAxOC4yNTM3IDIxLjU2NzRIMTkuMTY0MUMyMC4xODY5IDIxLjU2NzQgMjEuMDI1OCAyMi4zNTUxIDIxLjEwNzEgMjMuMzU3TDIyLjIwNjQgMjMuMzU3QzIyLjQxNzQgMjIuODkwNiAyMi44MDY2IDIyLjUyMjEgMjMuMjg3MSAyMi4zMzgzTDIzLjAxNzUgMjEuNDU0NEgyMi40ODIyQzIxLjQwNTUgMjEuNDU0NCAyMC41MzI3IDIwLjU4MTYgMjAuNTMyNyAxOS41MDQ5VjE4LjU4OTZDMjAuNTMyNyAxNy41MTMgMjEuNDA1NSAxNi42NDAxIDIyLjQ4MjIgMTYuNjQwMUgyMy4zOTI2Wk0yMy42NTQ2IDE4LjU4OTZDMjMuNjU0NiAxOC40NDQ5IDIzLjUzNzMgMTguMzI3NiAyMy4zOTI2IDE4LjMyNzZMMjIuNDgyMiAxOC4zMjc2QzIyLjMzNzUgMTguMzI3NiAyMi4yMjAyIDE4LjQ0NDkgMjIuMjIwMiAxOC41ODk2VjE5LjUwNDlDMjIuMjIwMiAxOS42NDk2IDIyLjMzNzUgMTkuNzY2OSAyMi40ODIyIDE5Ljc2NjlIMjMuMzkyNkMyMy41MzczIDE5Ljc2NjkgMjMuNjU0NiAxOS42NDk2IDIzLjY1NDYgMTkuNTA0OVYxOC41ODk2Wk0zMC4zNzkgMjEuNDg5OUMzMC4zNzkgMjEuMzQ1MiAzMC4yNjE3IDIxLjIyNzkgMzAuMTE3IDIxLjIyNzlIMjkuMjA2NkMyOS4wNjE5IDIxLjIyNzkgMjguOTQ0NiAyMS4zNDUyIDI4Ljk0NDYgMjEuNDg5OVYyMi40MDUyQzI4Ljk0NDYgMjIuNTQ5OSAyOS4wNjE5IDIyLjY2NzIgMjkuMjA2NiAyMi42NjcySDMwLjExN0MzMC4yNjE3IDIyLjY2NzIgMzAuMzc5IDIyLjU0OTkgMzAuMzc5IDIyLjQwNTJWMjEuNDg5OVpNMzAuMTIzNyAyNi45ODQyQzMwLjEyMzcgMjYuODM5NSAzMC4wMDY0IDI2LjcyMjIgMjkuODYxNyAyNi43MjIySDI4LjY0MzlDMjguNDk5MiAyNi43MjIyIDI4LjM4MTkgMjYuODM5NSAyOC4zODE5IDI2Ljk4NDJWMjguMjA3NEMyOC4zODE5IDI4LjM1MjEgMjguNDk5MiAyOC40Njk0IDI4LjY0MzkgMjguNDY5NEgyOS44NjE3QzMwLjAwNjQgMjguNDY5NCAzMC4xMjM3IDI4LjM1MjEgMzAuMTIzNyAyOC4yMDc0VjI2Ljk4NDJaTTI0Ljg5MzkgMjMuODk3N0MyNS4wMzg2IDIzLjg5NzcgMjUuMTU1OSAyNC4wMTUgMjUuMTU1OSAyNC4xNTk3VjI1LjA3MDFDMjUuMTU1OSAyNS4yMTQ4IDI1LjAzODYgMjUuMzMyMSAyNC44OTM5IDI1LjMzMjFIMjMuOTgzNUMyMy44Mzg4IDI1LjMzMjEgMjMuNzIxNSAyNS4yMTQ4IDIzLjcyMTUgMjUuMDcwMVYyNC4xNTk3QzIzLjcyMTUgMjQuMDE1IDIzLjgzODggMjMuODk3NyAyMy45ODM1IDIzLjg5NzdIMjQuODkzOVpNMTkuMTY0MSAyMy4yNTQ5QzE5LjMwODggMjMuMjU0OSAxOS40MjYxIDIzLjM3MjIgMTkuNDI2MSAyMy41MTY5VjI0LjQzMjJDMTkuNDI2MSAyNC41NzY5IDE5LjMwODggMjQuNjk0MiAxOS4xNjQxIDI0LjY5NDJIMTguMjUzN0MxOC4xMDkgMjQuNjk0MiAxNy45OTE3IDI0LjU3NjkgMTcuOTkxNyAyNC40MzIyTDE3Ljk5MTcgMjMuNTE2OUMxNy45OTE3IDIzLjM3MjIgMTguMTA5IDIzLjI1NDkgMTguMjUzNyAyMy4yNTQ5SDE5LjE2NDFaTTIwLjk2NDQgMjkuNzM2MkMyMC45NjQ0IDI5LjU5MTUgMjAuODQ3MSAyOS40NzQyIDIwLjcwMjQgMjkuNDc0MkgxOS43OTIxQzE5LjY0NzQgMjkuNDc0MiAxOS41MzAxIDI5LjU5MTUgMTkuNTMwMSAyOS43MzYyVjMwLjY1MTVDMTkuNTMwMSAzMC43OTYyIDE5LjY0NzQgMzAuOTEzNSAxOS43OTIxIDMwLjkxMzVIMjAuNzAyNEMyMC44NDcxIDMwLjkxMzUgMjAuOTY0NCAzMC43OTYyIDIwLjk2NDQgMzAuNjUxNVYyOS43MzYyWiIgY2xpcC1ydWxlPSJldmVub2RkIiBmaWxsLXJ1bGU9ImV2ZW5vZGQiLz4mI3hhOzxwYXRoIGZpbGw9InVybCgjcGFpbnQzX2xpbmVhcl8zMjMyXzQ2MDIpIiBkPSJNMTMuMzEwNiAzMC44NjA4QzEzLjk2MyAzMC44NjA4IDE0LjQ5MTkgMzEuMzg5NyAxNC40OTE5IDMyLjA0MjFWMzMuMzcyOUMxNC40OTE5IDM0LjIxMTcgMTUuMTcxOSAzNC44OTE2IDE2LjAxMDYgMzQuODkxNkgzMS45ODk5QzMyLjgyODcgMzQuODkxNiAzMy41MDg2IDM0LjIxMTcgMzMuNTA4NiAzMy4zNzI5VjMyLjA0MjFDMzMuNTA4NiAzMS4zODk3IDM0LjAzNzUgMzAuODYwOCAzNC42ODk5IDMwLjg2MDhDMzUuMzQyMyAzMC44NjA4IDM1Ljg3MTIgMzEuMzg5NyAzNS44NzEyIDMyLjA0MjFWMzMuMzcyOUMzNS44NzEyIDM1LjUxNjQgMzQuMTMzNSAzNy4yNTQxIDMxLjk4OTkgMzcuMjU0MUgxNi4wMTA2QzEzLjg2NzEgMzcuMjU0MSAxMi4xMjk0IDM1LjUxNjQgMTIuMTI5NCAzMy4zNzI5VjMyLjA0MjFDMTIuMTI5NCAzMS4zODk3IDEyLjY1ODMgMzAuODYwOCAxMy4zMTA2IDMwLjg2MDhaTTMwLjgxNSAzMy4zMzIxQzMxLjM3NDIgMzMuMzMyMSAzMS44Mjc1IDMyLjg3ODggMzEuODI3NSAzMi4zMTk2QzMxLjgyNzUgMzEuNzYwNCAzMS4zNzQyIDMxLjMwNzEgMzAuODE1IDMxLjMwNzFDMzAuMjU1OCAzMS4zMDcxIDI5LjgwMjUgMzEuNzYwNCAyOS44MDI1IDMyLjMxOTZDMjkuODAyNSAzMi44Nzg4IDMwLjI1NTggMzMuMzMyMSAzMC44MTUgMzMuMzMyMVpNMjguNzI2MSAzMi4zMTk2QzI4LjcyNjEgMzIuODc4OCAyOC4yNzI3IDMzLjMzMjEgMjcuNzEzNiAzMy4zMzIxQzI3LjE1NDQgMzMuMzMyMSAyNi43MDExIDMyLjg3ODggMjYuNzAxMSAzMi4zMTk2QzI2LjcwMTEgMzEuNzYwNCAyNy4xNTQ0IDMxLjMwNzEgMjcuNzEzNiAzMS4zMDcxQzI4LjI3MjcgMzEuMzA3MSAyOC43MjYxIDMxLjc2MDQgMjguNzI2MSAzMi4zMTk2WiIgY2xpcC1ydWxlPSJldmVub2RkIiBmaWxsLXJ1bGU9ImV2ZW5vZGQiLz4mI3hhOzwvZz4mI3hhOzxkZWZzPiYjeGE7PGxpbmVhckdyYWRpZW50IGdyYWRpZW50VW5pdHM9InVzZXJTcGFjZU9uVXNlIiB5Mj0iNDQuMjQ0MyIgeDI9IjQxLjA2NDUiIHkxPSI2LjgxMjg0IiB4MT0iNC4zNTI4NyIgaWQ9InBhaW50MF9saW5lYXJfMzIzMl80NjAyIj4mI3hhOzxzdG9wIHN0b3AtY29sb3I9IndoaXRlIi8+JiN4YTs8c3RvcCBzdG9wLWNvbG9yPSIjRUFFQ0VFIiBvZmZzZXQ9IjEiLz4mI3hhOzwvbGluZWFyR3JhZGllbnQ+JiN4YTs8bGluZWFyR3JhZGllbnQgZ3JhZGllbnRVbml0cz0idXNlclNwYWNlT25Vc2UiIHkyPSIzMS4xODQiIHgyPSIyNy41MjMzIiB5MT0iMTMuMzkyMyIgeDE9IjE0LjYzOTkiIGlkPSJwYWludDFfbGluZWFyXzMyMzJfNDYwMiI+JiN4YTs8c3RvcCBzdG9wLWNvbG9yPSIjMDE5NUZGIi8+JiN4YTs8c3RvcCBzdG9wLWNvbG9yPSIjMTE0N0U5IiBvZmZzZXQ9IjAuOTkxMDI4Ii8+JiN4YTs8L2xpbmVhckdyYWRpZW50PiYjeGE7PGxpbmVhckdyYWRpZW50IGdyYWRpZW50VW5pdHM9InVzZXJTcGFjZU9uVXNlIiB5Mj0iMzAuMDY2NyIgeDI9IjI5LjgwNDQiIHkxPSIxOC45ODgzIiB4MT0iMTguNjM0NSIgaWQ9InBhaW50Ml9saW5lYXJfMzIzMl80NjAyIj4mI3hhOzxzdG9wIHN0b3AtY29sb3I9IiMxMzQ4RkYiLz4mI3hhOzxzdG9wIHN0b3AtY29sb3I9IiMwNjIzOEQiIG9mZnNldD0iMSIvPiYjeGE7PC9saW5lYXJHcmFkaWVudD4mI3hhOzxsaW5lYXJHcmFkaWVudCBncmFkaWVudFVuaXRzPSJ1c2VyU3BhY2VPblVzZSIgeTI9IjQwLjE0OTkiIHgyPSIxNy44Nzc5IiB5MT0iMzEuODAxNCIgeDE9IjE1LjYzOTUiIGlkPSJwYWludDNfbGluZWFyXzMyMzJfNDYwMiI+JiN4YTs8c3RvcCBzdG9wLWNvbG9yPSIjMTM0OEZGIi8+JiN4YTs8c3RvcCBzdG9wLWNvbG9yPSIjMDYyMzhEIiBvZmZzZXQ9IjEiLz4mI3hhOzwvbGluZWFyR3JhZGllbnQ+JiN4YTs8Y2xpcFBhdGggaWQ9ImNsaXAwXzMyMzJfNDYwMiI+JiN4YTs8cmVjdCB0cmFuc2Zvcm09InRyYW5zbGF0ZSgxMC41IDEwLjUpIiBmaWxsPSJ3aGl0ZSIgaGVpZ2h0PSIyNyIgd2lkdGg9IjI3Ii8+JiN4YTs8L2NsaXBQYXRoPiYjeGE7PC9kZWZzPiYjeGE7PC9zdmc+;points=[[0,0,0,0,0],[0,0.25,0,0,0],[0,0.5,0,0,0],[0,0.75,0,0,0],[0.25,0,0,0,0],[0.5,0,0,0,0],[0.75,0,0,0,0],[1,0,0,0,0],[1,0.25,0,0,0],[1,0.5,0,0,0],[1,0.75,0,0,0]];" parent="1" vertex="1">
          <mxGeometry x="581" y="421" width="48" height="48" as="geometry" />
        </mxCell>
        <mxCell id="8n7peT-14dQjZCu0egMe-3" value="&lt;font color=&quot;#1d2d3e&quot; size=&quot;1&quot; face=&quot;arial&quot; style=&quot;&quot;&gt;&lt;b style=&quot;font-size: 14px;&quot;&gt;Integration Suite&lt;br&gt;&lt;/b&gt;&lt;/font&gt;" style="text;html=1;align=center;verticalAlign=top;resizable=1;points=[[0,0.5,0,0,0],[0.21,1,0,0,0],[0.5,1,0,0,0],[0.85,1,0,0,0],[1,0.5,0,0,0]];autosize=0;strokeColor=none;fillColor=none;fontSize=12;fontColor=default;fontFamily=Helvetica;fixedWidth=1;imageWidth=24;whiteSpace=wrap;labelBackgroundColor=none;" parent="1" vertex="1">
          <mxGeometry x="550" y="469" width="110" height="46" as="geometry" />
        </mxCell>
        <mxCell id="8n7peT-14dQjZCu0egMe-4" style="edgeStyle=orthogonalEdgeStyle;rounded=0;orthogonalLoop=1;jettySize=auto;html=1;entryX=0;entryY=0.5;entryDx=0;entryDy=0;entryPerimeter=0;" parent="1" source="fcamXWbQVCFegSQGi5p3-10" target="8n7peT-14dQjZCu0egMe-2" edge="1">
          <mxGeometry relative="1" as="geometry" />
        </mxCell>
        <mxCell id="Jt5pJl7dlPCUI5NRMiMX-1" value="&lt;span style=&quot;color: rgb(29, 45, 62); font-family: arial; font-size: 12px; font-style: normal; font-variant-ligatures: normal; font-variant-caps: normal; font-weight: 400; letter-spacing: normal; orphans: 2; text-align: center; text-indent: 0px; text-transform: none; widows: 2; word-spacing: 0px; -webkit-text-stroke-width: 0px; white-space: nowrap; background-color: rgb(251, 251, 251); text-decoration-thickness: initial; text-decoration-style: initial; text-decoration-color: initial; display: inline !important; float: none;&quot;&gt;Custo: 4.635,00 EUR - IS&lt;/span&gt;&lt;div&gt;&lt;span style=&quot;color: rgb(29, 45, 62); font-family: arial; font-size: 12px; font-style: normal; font-variant-ligatures: normal; font-variant-caps: normal; font-weight: 400; letter-spacing: normal; orphans: 2; text-align: center; text-indent: 0px; text-transform: none; widows: 2; word-spacing: 0px; -webkit-text-stroke-width: 0px; white-space: nowrap; background-color: rgb(251, 251, 251); text-decoration-thickness: initial; text-decoration-style: initial; text-decoration-color: initial; display: inline !important; float: none;&quot;&gt;940,00 EUR BPA&lt;/span&gt;&lt;/div&gt;" style="text;whiteSpace=wrap;html=1;" vertex="1" parent="1">
          <mxGeometry x="760" y="540" width="150" height="40" as="geometry" />
        </mxCell>
      </root>
    </mxGraphModel>
  </diagram>
  <diagram id="nH8eJGEehkTAb7F4rYhb" name="Case4">
    <mxGraphModel dx="1306" dy="835" grid="1" gridSize="10" guides="1" tooltips="1" connect="1" arrows="1" fold="1" page="1" pageScale="1" pageWidth="850" pageHeight="1100" math="0" shadow="0">
      <root>
        <mxCell id="0" />
        <mxCell id="1" parent="0" />
        <mxCell id="hyqJJPxovuY4nRSlYYbf-1" value="" style="rounded=1;whiteSpace=wrap;html=1;strokeColor=#0070F2;fillColor=#EBF8FF;arcSize=32;absoluteArcSize=1;imageWidth=64;imageHeight=64;strokeWidth=1.5;" parent="1" vertex="1">
          <mxGeometry x="340" y="160" width="460" height="600" as="geometry" />
        </mxCell>
        <mxCell id="hyqJJPxovuY4nRSlYYbf-2" value="" style="rounded=1;whiteSpace=wrap;html=1;strokeColor=#0070F2;strokeWidth=1.5;arcSize=16;fillColor=#FFFFFF;perimeterSpacing=0;absoluteArcSize=1;" parent="1" vertex="1">
          <mxGeometry x="358.55" y="214.13" width="421.45" height="305.87" as="geometry" />
        </mxCell>
        <mxCell id="hyqJJPxovuY4nRSlYYbf-3" value="" style="shape=image;verticalLabelPosition=bottom;labelBackgroundColor=default;verticalAlign=top;aspect=fixed;imageAspect=0;image=data:image/svg+xml,PHN2ZyB4bWxuczp4bGluaz0iaHR0cDovL3d3dy53My5vcmcvMTk5OS94bGluayIgeG1sbnM9Imh0dHA6Ly93d3cudzMub3JnLzIwMDAvc3ZnIiB2aWV3Qm94PSIwIDAgMTQ0Ljc0NyAzOS44MzIiIGlkPSJhIj48ZGVmcz48bGluZWFyR3JhZGllbnQgZ3JhZGllbnRVbml0cz0idXNlclNwYWNlT25Vc2UiIHkyPSIzOS44MzIiIHgyPSI0MC4yNTgiIHkxPSIwIiB4MT0iNDAuMjU4IiBpZD0iYiI+PHN0b3Agc3RvcC1jb2xvcj0iIzAwYjhmMSIgb2Zmc2V0PSIwIi8+PHN0b3Agc3RvcC1jb2xvcj0iIzAwYjVlZiIgb2Zmc2V0PSIuMDE2Ii8+PHN0b3Agc3RvcC1jb2xvcj0iIzBkOTBkOCIgb2Zmc2V0PSIuMzA4Ii8+PHN0b3Agc3RvcC1jb2xvcj0iIzE2NzVjOCIgb2Zmc2V0PSIuNTc4Ii8+PHN0b3Agc3RvcC1jb2xvcj0iIzFjNjRiZSIgb2Zmc2V0PSIuODE3Ii8+PHN0b3Agc3RvcC1jb2xvcj0iIzFlNWZiYiIgb2Zmc2V0PSIxIi8+PC9saW5lYXJHcmFkaWVudD48L2RlZnM+PHBvbHlsaW5lIGZpbGwtcnVsZT0iZXZlbm9kZCIgZmlsbD0idXJsKCNiKSIgcG9pbnRzPSIwIDM5LjgzMiA0MC42OTIgMzkuODMyIDgwLjUxNyAwIDAgMCAwIDM5LjgzMiIvPjxwYXRoIGZpbGwtcnVsZT0iZXZlbm9kZCIgZmlsbD0iI2ZmZiIgZD0ibTQ3Ljc4Miw3LjQ4OWwtNy45MjUtLjAwNXYxOC44NDVsLTYuOTI0LTE4Ljg0NWgtNi44NjVsLTUuOTEyLDE1Ljc1OWMtLjYzLTMuOTczLTQuNzQtNS4zNDUtNy45NzQtNi4zNzQtMi4xMzUtLjY4Ni00LjQwMS0xLjY5NC00LjM4LTIuODA5LjAxNy0uOTE1LDEuMjE1LTEuNzY1LDMuNTg5LTEuNjM3LDEuNTk1LjA4NCwzLjAwMS4yMTMsNS44LDEuNTYzbDIuNzUzLTQuNzk1Yy0yLjU1NS0xLjMtNi4wODYtMi4xMjEtOC45NzgtMi4xMjRoLS4wMTdjLTMuMzc0LDAtNi4xODUsMS4wOTMtNy45MjgsMi44OTQtMS4yMTQsMS4yNTgtMS44NjksMi44NTYtMS44OTYsNC42MjMtLjA0NCwyLjQzMi44NDgsNC4xNTcsMi43MjEsNS41MzMsMS41ODMsMS4xNiwzLjYwNiwxLjkxMiw1LjM5LDIuNDY1LDIuMjAxLjY4MSwzLjk5NiwxLjI3NCwzLjk3NSwyLjUzOS0uMDE2LjQ1OS0uMTkxLjg4OC0uNTIxLDEuMjM2LS41NDguNTY2LTEuMzkxLjc3OS0yLjU1NS43OTktMi4yNDQuMDQ4LTMuOTEtLjMwMy02LjU2Mi0xLjg3bC0yLjQ0OCw0Ljg2MWMyLjY0NCwxLjUwNiw1Ljc3NiwyLjM4OCw4Ljk3MiwyLjM4OGwuNDExLS4wMDZjMi43ODItLjA1LDUuMDI2LS44NDIsNi44Mi0yLjI4Ni4xMDMtLjA4MS4xOTYtLjE2Ni4yOTEtLjI1bC0uNzk1LDIuMTIzaDcuMmwxLjIwOC0zLjY3NGMxLjI2NS40MzMsMi43MDQuNjcxLDQuMjMyLjY3MSwxLjQ4NywwLDIuODg5LS4yMjksNC4xMzEtLjYzNWwxLjE2NCwzLjYzN2gxMS43NDJ2LTcuNjA3aDIuNTYxYzYuMTg4LDAsOS44NTEtMy4xNTQsOS44NTEtOC40MzYsMC01Ljg4NS0zLjU1Ny04LjU4NS0xMS4xMzItOC41ODVabS0xOC4zMTcsMTYuMTI0Yy0uOTI1LDAtMS43OTItLjE2LTIuNTM5LS40NDNsMi41MTItNy45MjZoLjA0OGwyLjQ2OCw3Ljk0OGMtLjc0Mi4yNjMtMS41ODkuNDIxLTIuNDg4LjQyMVptMTguNzgzLTQuNTUzaC0xLjc0NnYtNi4zODZoMS43NDZjMi4zMjgsMCw0LjE4NS43NzMsNC4xODUsMy4xNTEsMCwyLjQ2MS0xLjg1NywzLjIzNi00LjE4NSwzLjIzNiIvPjxwYXRoIGZpbGw9IiMwMDJhODYiIGQ9Im04MC4yMTcsNy40MDFoMTAuMDYzYzUuNTk1LDAsOC42NzQsMS45MTcsOC42NzQsNi4xNTgsMCwyLjkwMy0xLjUxMyw1LjAxNC00LjMxMSw1LjcsMy4yOS40NTgsNS4yNzgsMi41ODYsNS4yNzgsNS44OTQsMCw1LjAxNC00LjA2NCw3LjAzNy05LjE4NCw3LjAzN2gtMTAuNTIxVjcuNDAxWm0xMy45NjksNi44MjZjMC0yLjE2NC0xLjQ5Ni0yLjk3My00LjI0LTIuOTczaC01LjA0OXY2LjI5OGg0Ljg5MWMzLjIwMiwwLDQuMzk4LTEuMTYxLDQuMzk4LTMuMzI1Wm0xLjAyMSwxMC41MjFjMC0yLjM1Ny0xLjc3Ny0zLjQ2Ni00LjgzOS0zLjQ2NmgtNS40NzF2Ny4wNTVoNS41MDZjMi44MTUsMCw0LjgwNC0uNzc0LDQuODA0LTMuNTg5WiIvPjxwYXRoIGZpbGw9IiMwMDJhODYiIGQ9Im0xMDkuMDUxLDExLjVoLTcuNTgzdi00LjA5OWgxOS44NDZ2NC4wOTloLTcuNTY1djIwLjY5aC00LjY5N1YxMS41WiIvPjxwYXRoIGZpbGw9IiMwMDJhODYiIGQ9Im0xMjUuMTQ4LDcuNDAxaDEwLjUwNGM2LjE5MiwwLDkuMDk2LDMuMTg1LDkuMDk2LDcuODk5LDAsNC4zOTgtMi44MzMsOC4xNDYtOC44NSw4LjE0NmgtNi4wN3Y4Ljc0NGgtNC42OFY3LjQwMVptMTQuOTAyLDcuOTUyYzAtMi41NTEtMS42ODktMy45MjMtNC45NDQtMy45MjNoLTUuMjc4djguMDRoNS40MTljMy4yNzIsMCw0LjgwNC0xLjU4Myw0LjgwNC00LjExN1oiLz48L3N2Zz4=;strokeWidth=1.5;" parent="1" vertex="1">
          <mxGeometry x="358.54999999999995" y="178.55000000000018" width="67.25" height="18.55" as="geometry" />
        </mxCell>
        <mxCell id="hyqJJPxovuY4nRSlYYbf-5" value="" style="endArrow=blockThin;html=1;strokeColor=#475E75;bendable=1;rounded=0;endFill=1;endSize=4;strokeWidth=1.5;entryX=0.5;entryY=0;entryDx=0;entryDy=0;startSize=4;" parent="1" source="hyqJJPxovuY4nRSlYYbf-17" edge="1">
          <mxGeometry width="50" height="50" relative="1" as="geometry">
            <mxPoint x="243.5" y="232.8800000000001" as="sourcePoint" />
            <mxPoint x="245" y="300.8800000000001" as="targetPoint" />
            <Array as="points" />
          </mxGeometry>
        </mxCell>
        <mxCell id="hyqJJPxovuY4nRSlYYbf-7" value="&lt;font color=&quot;#1a2733&quot; face=&quot;arial&quot; style=&quot;font-size: 16px;&quot;&gt;&lt;b style=&quot;font-size: 16px;&quot;&gt;Application Clients&lt;/b&gt;&lt;/font&gt;" style="text;html=1;align=center;verticalAlign=middle;resizable=0;points=[];autosize=1;strokeColor=none;fillColor=none;fontSize=12;fontColor=default;fontFamily=Helvetica;strokeWidth=1.5;" parent="1" vertex="1">
          <mxGeometry x="160" y="331.8800000000001" width="170" height="30" as="geometry" />
        </mxCell>
        <mxCell id="hyqJJPxovuY4nRSlYYbf-13" value="&lt;font size=&quot;1&quot; face=&quot;arial&quot; style=&quot;&quot;&gt;&lt;span style=&quot;font-size: 12px;&quot;&gt;Desktop&lt;/span&gt;&lt;/font&gt;" style="text;html=1;align=center;verticalAlign=middle;resizable=0;points=[];autosize=1;strokeColor=none;fillColor=none;fontSize=12;fontColor=#1D2D3E;fontFamily=Helvetica;" parent="1" vertex="1">
          <mxGeometry x="210" y="353.1300000000001" width="70" height="30" as="geometry" />
        </mxCell>
        <mxCell id="hyqJJPxovuY4nRSlYYbf-14" value="&lt;font face=&quot;arial&quot; style=&quot;font-size: 16px;&quot;&gt;&lt;b style=&quot;font-size: 16px;&quot;&gt;Subaccount&lt;/b&gt;&lt;/font&gt;" style="text;html=1;align=left;verticalAlign=middle;resizable=0;points=[];autosize=1;strokeColor=none;fillColor=none;fontSize=12;fontColor=#1d2d3e;fontFamily=Helvetica;" parent="1" vertex="1">
          <mxGeometry x="370" y="224.1400000000001" width="120" height="30" as="geometry" />
        </mxCell>
        <mxCell id="hyqJJPxovuY4nRSlYYbf-15" value="" style="group" parent="1" vertex="1" connectable="0">
          <mxGeometry x="205" y="165.1400000000001" width="80" height="80.00000000000001" as="geometry" />
        </mxCell>
        <mxCell id="hyqJJPxovuY4nRSlYYbf-16" value="" style="shape=image;verticalLabelPosition=bottom;verticalAlign=top;imageAspect=0;aspect=fixed;image=data:image/svg+xml,PHN2ZyB4bWxucz0iaHR0cDovL3d3dy53My5vcmcvMjAwMC9zdmciIGZpbGw9Im5vbmUiIHZpZXdCb3g9IjAgMCAxNyAxNyIgaGVpZ2h0PSIxNyIgd2lkdGg9IjE3Ij4mI3hhOzxwYXRoIGZpbGw9InVybCgjcGFpbnQwX2xpbmVhcl8yXzI4Nzk4KSIgZD0iTTAuMjEzODY3IDguNTUyNzNDMC4yMTM4NjcgNy40Njk0IDAuNDIyMjAxIDYuNDU4OTggMC44Mzg4NjcgNS41MjE0OEMxLjI1NTUzIDQuNTYzMTUgMS44MTgwMyAzLjcyOTgyIDIuNTI2MzcgMy4wMjE0OEMzLjIzNDcgMi4zMTMxNSA0LjA2ODAzIDEuNzUwNjUgNS4wMjYzNyAxLjMzMzk4QzUuOTg0NyAwLjkxNzMxOCA3LjAwNTUzIDAuNzA4OTg0IDguMDg4ODcgMC43MDg5ODRDOS4xNzIyIDAuNzA4OTg0IDEwLjE4MjYgMC45MTczMTggMTEuMTIwMSAxLjMzMzk4QzEyLjA3ODUgMS43NTA2NSAxMi45MTE4IDIuMzEzMTUgMTMuNjIwMSAzLjAyMTQ4QzE0LjMyODUgMy43Mjk4MiAxNC44OTEgNC41NjMxNSAxNS4zMDc2IDUuNTIxNDhDMTUuNzI0MyA2LjQ1ODk4IDE1LjkzMjYgNy40Njk0IDE1LjkzMjYgOC41NTI3M0MxNS45MzI2IDkuNjM2MDcgMTUuNzI0MyAxMC42NTY5IDE1LjMwNzYgMTEuNjE1MkMxNC44OTEgMTIuNTczNiAxNC4zMjg1IDEzLjQwNjkgMTMuNjIwMSAxNC4xMTUyQzEyLjkxMTggMTQuODIzNiAxMi4wNzg1IDE1LjM4NjEgMTEuMTIwMSAxNS44MDI3QzEwLjE4MjYgMTYuMjE5NCA5LjE3MjIgMTYuNDI3NyA4LjA4ODg3IDE2LjQyNzdDNy4wMDU1MyAxNi40Mjc3IDUuOTg0NyAxNi4yMTk0IDUuMDI2MzcgMTUuODAyN0M0LjA2ODAzIDE1LjM4NjEgMy4yMzQ3IDE0LjgyMzYgMi41MjYzNyAxNC4xMTUyQzEuODE4MDMgMTMuNDA2OSAxLjI1NTUzIDEyLjU3MzYgMC44Mzg4NjcgMTEuNjE1MkMwLjQyMjIwMSAxMC42NTY5IDAuMjEzODY3IDkuNjM2MDcgMC4yMTM4NjcgOC41NTI3M1pNOS42NTEzNyAxMC45Mjc3QzEwLjMxOCAxMC45Mjc3IDEwLjkzMjYgMTEuMDg0IDExLjQ5NTEgMTEuMzk2NUMxMi4wNTc2IDExLjY4ODIgMTIuNTE2IDEyLjA5NDQgMTIuODcwMSAxMi42MTUyQzEzLjM0OTMgMTIuMDczNiAxMy43MTM5IDExLjQ1OSAxMy45NjM5IDEwLjc3MTVDMTQuMjM0NyAxMC4wODQgMTQuMzcwMSA5LjM0NDQgMTQuMzcwMSA4LjU1MjczQzE0LjM3MDEgNy42Nzc3MyAxNC4yMDM1IDYuODY1MjMgMTMuODcwMSA2LjExNTIzQzEzLjUzNjggNS4zNDQ0IDEzLjA4ODkgNC42Nzc3MyAxMi41MjY0IDQuMTE1MjNDMTEuOTYzOSAzLjU1MjczIDExLjI5NzIgMy4xMDQ4MiAxMC41MjY0IDIuNzcxNDhDOS43NzYzNyAyLjQzODE1IDguOTYzODcgMi4yNzE0OCA4LjA4ODg3IDIuMjcxNDhDNy4yMTM4NyAyLjI3MTQ4IDYuMzkwOTUgMi40MzgxNSA1LjYyMDEyIDIuNzcxNDhDNC44NzAxMiAzLjEwNDgyIDQuMjAzNDUgMy41NTI3MyAzLjYyMDEyIDQuMTE1MjNDMy4wNTc2MiA0LjY3NzczIDIuNjA5NyA1LjM0NDQgMi4yNzYzNyA2LjExNTIzQzEuOTQzMDMgNi44NjUyMyAxLjc3NjM3IDcuNjc3NzMgMS43NzYzNyA4LjU1MjczQzEuNzc2MzcgOS4zNDQ0IDEuOTAxMzcgMTAuMDg0IDIuMTUxMzcgMTAuNzcxNUMyLjQyMjIgMTEuNDU5IDIuNzk3MiAxMi4wNzM2IDMuMjc2MzcgMTIuNjE1MkMzLjYzMDUzIDEyLjA5NDQgNC4wODg4NyAxMS42ODgyIDQuNjUxMzcgMTEuMzk2NUM1LjIxMzg3IDExLjA4NCA1LjgyODQ1IDEwLjkyNzcgNi40OTUxMiAxMC45Mjc3SDkuNjUxMzdaTTExLjIxMzkgNi45OTAyM0MxMS4yMTM5IDcuNDI3NzMgMTEuMTMwNSA3Ljg0NDQgMTAuOTYzOSA4LjI0MDIzQzEwLjc5NzIgOC42MTUyMyAxMC41NjggOC45NDg1NyAxMC4yNzY0IDkuMjQwMjNDMTAuMDA1NSA5LjUxMTA3IDkuNjgyNjIgOS43Mjk4MiA5LjMwNzYyIDkuODk2NDhDOC45MzI2MiAxMC4wNjMyIDguNTI2MzcgMTAuMTQ2NSA4LjA4ODg3IDEwLjE0NjVDNy42NTEzNyAxMC4xNDY1IDcuMjM0NyAxMC4wNjMyIDYuODM4ODcgOS44OTY0OEM2LjQ2Mzg3IDkuNzI5ODIgNi4xMzA1MyA5LjUxMTA3IDUuODM4ODcgOS4yNDAyM0M1LjU2ODAzIDguOTQ4NTcgNS4zNDkyOCA4LjYxNTIzIDUuMTgyNjIgOC4yNDAyM0M1LjAxNTk1IDcuODQ0NCA0LjkzMjYyIDcuNDI3NzMgNC45MzI2MiA2Ljk5MDIzQzQuOTMyNjIgNi41NTI3MyA1LjAxNTk1IDYuMTQ2NDggNS4xODI2MiA1Ljc3MTQ4QzUuMzQ5MjggNS4zOTY0OCA1LjU2ODAzIDUuMDYzMTUgNS44Mzg4NyA0Ljc3MTQ4QzYuMTMwNTMgNC40Nzk4MiA2LjQ2Mzg3IDQuMjUwNjUgNi44Mzg4NyA0LjA4Mzk4QzcuMjM0NyAzLjkxNzMyIDcuNjUxMzcgMy44MzM5OCA4LjA4ODg3IDMuODMzOThDOC41MjYzNyAzLjgzMzk4IDguOTMyNjIgMy45MTczMiA5LjMwNzYyIDQuMDgzOThDOS42ODI2MiA0LjI1MDY1IDEwLjAwNTUgNC40Nzk4MiAxMC4yNzY0IDQuNzcxNDhDMTAuNTY4IDUuMDYzMTUgMTAuNzk3MiA1LjM5NjQ4IDEwLjk2MzkgNS43NzE0OEMxMS4xMzA1IDYuMTQ2NDggMTEuMjEzOSA2LjU1MjczIDExLjIxMzkgNi45OTAyM1pNOS42NTEzNyA2Ljk5MDIzQzkuNjUxMzcgNi41NTI3MyA5LjQ5NTEyIDYuMTg4MTUgOS4xODI2MiA1Ljg5NjQ4QzguODcwMTIgNS41ODM5OCA4LjUwNTUzIDUuNDI3NzMgOC4wODg4NyA1LjQyNzczQzcuNjUxMzcgNS40Mjc3MyA3LjI3NjM3IDUuNTgzOTggNi45NjM4NyA1Ljg5NjQ4QzYuNjUxMzcgNi4xODgxNSA2LjQ5NTEyIDYuNTUyNzMgNi40OTUxMiA2Ljk5MDIzQzYuNDk1MTIgNy40Mjc3MyA2LjY1MTM3IDcuODAyNzMgNi45NjM4NyA4LjExNTIzQzcuMjc2MzcgOC40MDY5IDcuNjUxMzcgOC41NTI3MyA4LjA4ODg3IDguNTUyNzNDOC41MDU1MyA4LjU1MjczIDguODcwMTIgOC40MDY5IDkuMTgyNjIgOC4xMTUyM0M5LjQ5NTEyIDcuODAyNzMgOS42NTEzNyA3LjQyNzczIDkuNjUxMzcgNi45OTAyM1pNNC40NjM4NyAxMy43MDlDNC45NjM4NyAxNC4wNjMyIDUuNTE1OTUgMTQuMzQ0NCA2LjEyMDEyIDE0LjU1MjdDNi43NDUxMiAxNC43NjExIDcuNDAxMzcgMTQuODY1MiA4LjA4ODg3IDE0Ljg2NTJDOC43NTU1MyAxNC44NjUyIDkuMzkwOTUgMTQuNzYxMSA5Ljk5NTEyIDE0LjU1MjdDMTAuNjIwMSAxNC4zNDQ0IDExLjE4MjYgMTQuMDYzMiAxMS42ODI2IDEzLjcwOUMxMS40NzQzIDEzLjMzNCAxMS4xODI2IDEzLjA0MjMgMTAuODA3NiAxMi44MzRDMTAuNDUzNSAxMi42MDQ4IDEwLjA2OCAxMi40OTAyIDkuNjUxMzcgMTIuNDkwMkg2LjQ5NTEyQzYuMDc4NDUgMTIuNDkwMiA1LjY4MjYyIDEyLjYwNDggNS4zMDc2MiAxMi44MzRDNC45NTM0NSAxMy4wNDIzIDQuNjcyMiAxMy4zMzQgNC40NjM4NyAxMy43MDlaIi8+JiN4YTs8ZGVmcz4mI3hhOzxsaW5lYXJHcmFkaWVudCBncmFkaWVudFVuaXRzPSJ1c2VyU3BhY2VPblVzZSIgeTI9IjE2LjQyNzciIHgyPSI4LjA3MzI0IiB5MT0iMC43MDg5ODQiIHgxPSI4LjA3MzI0IiBpZD0icGFpbnQwX2xpbmVhcl8yXzI4Nzk4Ij4mI3hhOzxzdG9wIHN0b3AtY29sb3I9IiM1QjczOEIiLz4mI3hhOzxzdG9wIHN0b3AtY29sb3I9IiMyMjM1NDgiIG9mZnNldD0iMSIvPiYjeGE7PC9saW5lYXJHcmFkaWVudD4mI3hhOzwvZGVmcz4mI3hhOzwvc3ZnPg==;strokeWidth=1.5;" parent="hyqJJPxovuY4nRSlYYbf-15" vertex="1">
          <mxGeometry x="16.5" width="50" height="50" as="geometry" />
        </mxCell>
        <mxCell id="hyqJJPxovuY4nRSlYYbf-17" value="&lt;font size=&quot;1&quot; color=&quot;#1a2733&quot; face=&quot;arial&quot; style=&quot;&quot;&gt;&lt;b style=&quot;font-size: 14px;&quot;&gt;End User&lt;/b&gt;&lt;/font&gt;" style="text;html=1;align=center;verticalAlign=middle;resizable=0;points=[];autosize=1;strokeColor=none;fillColor=none;fontSize=12;fontColor=default;fontFamily=Helvetica;strokeWidth=1.5;" parent="hyqJJPxovuY4nRSlYYbf-15" vertex="1">
          <mxGeometry y="50.00000000000001" width="80" height="30" as="geometry" />
        </mxCell>
        <mxCell id="hyqJJPxovuY4nRSlYYbf-18" value="" style="endArrow=blockThin;html=1;strokeColor=#475E75;bendable=1;rounded=0;endFill=1;endSize=4;strokeWidth=1.5;entryX=0;entryY=0.5;entryDx=0;entryDy=0;entryPerimeter=0;startSize=4;" parent="1" edge="1">
          <mxGeometry width="50" height="50" relative="1" as="geometry">
            <mxPoint x="270" y="312" as="sourcePoint" />
            <mxPoint x="532.5" y="312.3800000000001" as="targetPoint" />
            <Array as="points" />
          </mxGeometry>
        </mxCell>
        <mxCell id="hyqJJPxovuY4nRSlYYbf-19" value="" style="group" parent="1" vertex="1" connectable="0">
          <mxGeometry x="413.77" y="428.8800000000001" width="147" height="113" as="geometry" />
        </mxCell>
        <mxCell id="hyqJJPxovuY4nRSlYYbf-20" value="" style="rounded=1;whiteSpace=wrap;html=1;strokeColor=#0070F2;strokeWidth=1.5;arcSize=16;fillColor=#FFFFFF;perimeterSpacing=0;absoluteArcSize=1;" parent="hyqJJPxovuY4nRSlYYbf-19" vertex="1">
          <mxGeometry y="135" width="147" height="113" as="geometry" />
        </mxCell>
        <mxCell id="hyqJJPxovuY4nRSlYYbf-21" value="" style="shape=image;verticalLabelPosition=bottom;verticalAlign=top;imageAspect=0;aspect=fixed;image=data:image/svg+xml,PHN2ZyB4bWxucz0iaHR0cDovL3d3dy53My5vcmcvMjAwMC9zdmciIGZpbGw9Im5vbmUiIHZpZXdCb3g9IjAgMCA0OSA0OSIgaGVpZ2h0PSI0OSIgd2lkdGg9IjQ5Ij4mI3hhOzxjaXJjbGUgc3Ryb2tlLXdpZHRoPSIwLjg1NzE0MyIgc3Ryb2tlPSIjRDVEQUREIiBmaWxsPSJ1cmwoI3BhaW50MF9saW5lYXJfMjYyMl8yMDQ3NSkiIHI9IjIzLjU3MTQiIGN5PSIyNC4wMzQ5IiBjeD0iMjQuNSIvPiYjeGE7PHBhdGggZmlsbD0idXJsKCNwYWludDFfcmFkaWFsXzI2MjJfMjA0NzUpIiBkPSJNMjQuMzkzMSAxMi4yMzcxQzIwLjExMDcgMTIuMjM3MSAxNy4wNjgxIDE1LjcyMzEgMTYuNTYxMSAxOS4zNjI1QzE1LjE4MzYgMTkuNDQ0NCAxMy45NjcyIDE5Ljk2MjEgMTMuMDIyNSAyMC44MzE3QzExLjc0NDUgMjIuMDA4MSAxMS4wODQ0IDIzLjcxNTYgMTEuMDg0NCAyNS41MTYzQzExLjA4NDQgMjcuMTg5NyAxMS41OTIgMjguNzcxNSAxMi43MzE2IDI5Ljk0MDlDMTMuNTg2MSAzMC44MTc4IDE0LjcwNzcgMzEuMzcyNCAxNi4wMTcgMzEuNTk4NEMxNi4xMzc2IDMxLjM1MzUgMTYuMjczNSAzMS4xMTY4IDE2LjQyNTIgMzAuODg5MkwxNi40NDEgMzAuODY1NUwxNi40NTQ4IDMwLjg0NjFDMTYuNzA2OSAzMC40OTAxIDE2Ljk5NDggMzAuMTY2IDE3LjMxNjkgMjkuODc2MUMxNy4xODMxIDI5LjQzMTcgMTcuMTE4IDI4Ljk2NDUgMTcuMTE4IDI4LjQ4MzVDMTcuMTE4IDI3Ljg1NDkgMTcuMjM4NiAyNy4yNDEzIDE3LjQ4NDkgMjYuNjU5MkMxNy43MiAyNi4xMDMzIDE4LjA1MTMgMjUuNjAwMSAxOC40ODI0IDI1LjE2OTFDMTguOTE4IDI0LjczMzQgMTkuNDI1IDI0LjM5MTYgMTkuOTkyNiAyNC4xNTE1QzIwLjU3NDcgMjMuOTA1MiAyMS4xODgyIDIzLjc4NDYgMjEuODE2OCAyMy43ODQ2QzIyLjA3NTkgMjMuNzg0NiAyMi4zMzI0IDIzLjgwNTEgMjIuNTg1MyAyMy44NDY0QzIyLjkwNjUgMjMuNjE3OSAyMy4yNTIyIDIzLjQyNTEgMjMuNjIwNCAyMy4yNjkzQzI0LjI4NTEgMjIuOTg4MSAyNC45ODYzIDIyLjg0OTcgMjUuNzA4OSAyMi44NDk3QzI2LjQzMTYgMjIuODQ5NyAyNy4xMzI3IDIyLjk4ODEgMjcuNzk3NSAyMy4yNjkzQzI4LjQ0MzYgMjMuNTQyNyAyOS4wMTc2IDIzLjkzMjYgMjkuNTA0MyAyNC40MzY1QzMwLjAwODIgMjQuOTIzMiAzMC4zOTgxIDI1LjQ5NzIgMzAuNjcxNSAyNi4xNDMzQzMwLjk1MjcgMjYuODA4MSAzMS4wOTExIDI3LjUwOTMgMzEuMDkxMSAyOC4yMzE5QzMxLjA5MTEgMjguOTI1MiAzMC45NjM3IDI5LjU5ODggMzAuNzA1IDMwLjIzOTVDMzEuMTk2OSAzMC42Mjg4IDMxLjYzNDYgMzEuMDg3NyAzMi4wMTUyIDMxLjYxMjdDMzUuMjc5MiAzMS4wNDI2IDM3Ljk5OTkgMjguMzY4IDM3Ljk5OTkgMjQuMzU5MUMzNy45OTk5IDIwLjM3NTEgMzUuMTUyNiAxNy4zMTM1IDMxLjcyNDcgMTYuOTg5N0MzMC4zNTA3IDE0LjE0ODMgMjcuOCAxMi4yMzcxIDI0LjM5MzEgMTIuMjM3MVoiIGNsaXAtcnVsZT0iZXZlbm9kZCIgZmlsbC1ydWxlPSJldmVub2RkIi8+JiN4YTs8cGF0aCBmaWxsPSJ1cmwoI3BhaW50Ml9yYWRpYWxfMjYyMl8yMDQ3NSkiIGQ9Ik0yOC4zMzY4IDMwLjgwNzhDMjkuMzA4MiAzMS4xODk0IDMwLjA5NzQgMzEuODEzOCAzMC43MDQ1IDMyLjY4MTFDMzEuMzExNiAzMy41NDg0IDMxLjYxNTIgMzQuNTI4NSAzMS42MTUyIDM1LjYyMTNWMzcuMTA0NEMzMS42MTUyIDM3LjMxMjUgMzEuNTM3MSAzNy40ODYgMzEuMzgxIDM3LjYyNDdDMzEuMjQyMiAzNy43NjM1IDMxLjA3NzQgMzcuODMyOSAzMC44ODY2IDM3LjgzMjlIMjkuNDAzNkMyOS4xOTU0IDM3LjgzMjkgMjkuMDEzMyAzNy43NjM1IDI4Ljg1NzIgMzcuNjI0N0MyOC43MTg0IDM3LjQ4NiAyOC42NDkgMzcuMzEyNSAyOC42NDkgMzcuMTA0NEMyOC42NDkgMzYuODk2MiAyOC43MTg0IDM2LjcyMjcgMjguODU3MiAzNi41ODRDMjkuMDEzMyAzNi40Mjc5IDI5LjE5NTQgMzYuMzQ5OCAyOS40MDM2IDM2LjM0OThIMzAuMTMyMVYzNS42MjEzQzMwLjEzMjEgMzUuMTE4MiAzMC4wMzY3IDM0LjY0MTIgMjkuODQ1OSAzNC4xOTAyQzI5LjY1NTEgMzMuNzM5MiAyOS4zODYyIDMzLjM0OSAyOS4wMzkzIDMzLjAxOTRDMjguNzA5NyAzMi42NzI1IDI4LjMxOTUgMzIuNDAzNiAyNy44Njg1IDMyLjIxMjhDMjcuNDM0OCAzMi4wMjIgMjYuOTU3OCAzMS45MjY2IDI2LjQzNzUgMzEuOTI2NkgyNC45ODA0QzI0LjQ2IDMxLjkyNjYgMjMuOTc0NCAzMi4wMjIgMjMuNTIzNCAzMi4yMTI4QzIzLjA4OTcgMzIuNDAzNiAyMi42OTk0IDMyLjY3MjUgMjIuMzUyNSAzMy4wMTk0QzIyLjAyMyAzMy4zNDkgMjEuNzYyOCAzMy43MzkyIDIxLjU3MiAzNC4xOTAyQzIxLjM4MTIgMzQuNjQxMiAyMS4yODU4IDM1LjExODIgMjEuMjg1OCAzNS42MjEzVjM2LjM0OThIMjIuMDE0M0MyMi4yMjI0IDM2LjM0OTggMjIuMzk1OSAzNi40Mjc5IDIyLjUzNDcgMzYuNTg0QzIyLjY3MzQgMzYuNzIyNyAyMi43NDI4IDM2Ljg5NjIgMjIuNzQyOCAzNy4xMDQ0QzIyLjc0MjggMzcuMzEyNSAyMi42NzM0IDM3LjQ4NiAyMi41MzQ3IDM3LjYyNDdDMjIuMzk1OSAzNy43NjM1IDIyLjIyMjQgMzcuODMyOSAyMi4wMTQzIDM3LjgzMjlIMjAuNTMxMkMyMC4zNDA0IDM3LjgzMjkgMjAuMTY3IDM3Ljc2MzUgMjAuMDEwOSAzNy42MjQ3QzE5Ljg3MjEgMzcuNDg2IDE5LjgwMjcgMzcuMzEyNSAxOS44MDI3IDM3LjEwNDRMMTkuODAyNyAzNi4wNTAySDE3LjgyMzRDMTcuNjMyOCAzNi4wNTAyIDE3LjQ2MTYgMzUuOTc5NSAxNy4zMTQ2IDM1Ljg0ODhMMTcuMzA3NSAzNS44NDI1QzE3LjE2ODEgMzUuNzAzMSAxNy4wOTk4IDM1LjUyNzEgMTcuMDk5OCAzNS4zMjY1VjM0LjE4MjdDMTcuMDk5OCAzMy43MzkyIDE3LjE2MjEgMzMuMzIxIDE3LjI4ODEgMzIuOTI5MUwxNy4yODkyIDMyLjkyNTlDMTcuNDI3MiAzMi41MjU2IDE3LjYwNzEgMzIuMTU4NiAxNy44MjkzIDMxLjgyNTNMMTcuODMxOCAzMS44MjE1QzE4LjA2NzggMzEuNDg4MyAxOC4zNDU4IDMxLjE5NjQgMTguNjY1MiAzMC45NDYxQzE4LjkyNDIgMzAuNzMyNCAxOS4yMDU5IDMwLjU1NSAxOS41MTAxIDMwLjQxNEMxOS4wMzk4IDI5Ljg4ODUgMTguODA1NSAyOS4yNDE5IDE4LjgwNTUgMjguNDgzNUMxOC44MDU1IDI4LjA3NDUgMTguODgzMiAyNy42ODUxIDE5LjAzOSAyNy4zMTY3QzE5LjE5MzkgMjYuOTUwNyAxOS40MDYgMjYuNjMyIDE5LjY3NTYgMjYuMzYyM0MxOS45NTc5IDI2LjA4MDEgMjAuMjgzIDI1Ljg2MDkgMjAuNjUwMSAyNS43MDU2QzIxLjAxODQgMjUuNTQ5OCAyMS40MDc4IDI1LjQ3MjEgMjEuODE2OCAyNS40NzIxQzIyLjIyNTkgMjUuNDcyMSAyMi42MTUyIDI1LjU0OTggMjIuOTgzNiAyNS43MDU2TDIzLjAwMDggMjUuNzEzQzIzLjAyNzEgMjUuNjg0OSAyMy4wNTM4IDI1LjY1NzMgMjMuMDgxIDI1LjYzQzIzLjQyOCAyNS4yODMxIDIzLjgyNjkgMjUuMDE0MiAyNC4yNzc5IDI0LjgyMzRDMjQuNzI4OSAyNC42MzI2IDI1LjIwNTkgMjQuNTM3MiAyNS43MDg5IDI0LjUzNzJDMjYuMjEyIDI0LjUzNzIgMjYuNjg5IDI0LjYzMjYgMjcuMTQgMjQuODIzNEMyNy41OTA5IDI1LjAxNDIgMjcuOTgxMiAyNS4yODMxIDI4LjMxMDggMjUuNjNDMjguNjU3NyAyNS45NTk2IDI4LjkyNjYgMjYuMzQ5OSAyOS4xMTc0IDI2LjgwMDlDMjkuMzA4MiAyNy4yNTE5IDI5LjQwMzYgMjcuNzI4OSAyOS40MDM2IDI4LjIzMTlDMjkuNDAzNiAyOC43MzQ5IDI5LjMwODIgMjkuMjEyIDI5LjExNzQgMjkuNjYzQzI4LjkyNjYgMzAuMDk2NiAyOC42NjY0IDMwLjQ3ODIgMjguMzM2OCAzMC44MDc4Wk0yMC4wMzY5IDM0LjA2MDFDMTkuOTgyMiAzNC4yMzAxIDE5LjkzNzIgMzQuNDA0MyAxOS45MDE3IDM0LjU4MjdIMTguNTY3MlYzNC4xODI3QzE4LjU2NzIgMzMuODE1NyAxOC42MzY3IDMzLjQ2OTMgMTguNzc1MiAzMy4xNDJDMTguOTE0NiAzMi44MTI0IDE5LjEwMzkgMzIuNTI5IDE5LjM0MjYgMzIuMjkwM0MxOS41OTYyIDMyLjAzNjcgMTkuODgwMyAzMS44NDEyIDIwLjE5NTMgMzEuNzAyNEMyMC41MjE2IDMxLjU2NDUgMjAuODc0MyAzMS40OTQ5IDIxLjI1NDkgMzEuNDk0OUgyMS44NzA4QzIxLjgzMTUgMzEuNTI1NCAyMS43OTI2IDMxLjU1NjYgMjEuNzU0MSAzMS41ODg0QzIxLjM1NTEgMzEuOTAwNiAyMS4wMDgyIDMyLjI2NDggMjAuNzEzNCAzMi42ODExQzIwLjQzNTggMzMuMDk3NCAyMC4yMTAzIDMzLjU1NzEgMjAuMDM2OSAzNC4wNjAxWk0yNS43MDg5IDI2LjAyMDNDMjUuMTAxOCAyNi4wMjAzIDI0LjU4MTUgMjYuMjM3MSAyNC4xNDc4IDI2LjY3MDhDMjMuNzE0MiAyNy4xMDQ0IDIzLjQ5NzMgMjcuNjI0OCAyMy40OTczIDI4LjIzMTlDMjMuNDk3MyAyOC44MzkgMjMuNzE0MiAyOS4zNTk0IDI0LjE0NzggMjkuNzkzQzI0LjU4MTUgMzAuMjI2NyAyNS4xMDE4IDMwLjQ0MzUgMjUuNzA4OSAzMC40NDM1QzI2LjMxNiAzMC40NDM1IDI2LjgzNjQgMzAuMjI2NyAyNy4yNyAyOS43OTNDMjcuNzAzNyAyOS4zNTk0IDI3LjkyMDUgMjguODM5IDI3LjkyMDUgMjguMjMxOUMyNy45MjA1IDI3LjYyNDggMjcuNzAzNyAyNy4xMDQ0IDI3LjI3IDI2LjY3MDhDMjYuODM2NCAyNi4yMzcxIDI2LjMxNiAyNi4wMjAzIDI1LjcwODkgMjYuMDIwM1pNMjIuMDE0MyAyOC4yMzE5QzIyLjAxNDMgMjguODU5NiAyMi4xNDM2IDI5LjQyMTEgMjIuNDAyMyAyOS45MTYzQzIyLjIyMjMgMjkuOTkwNiAyMi4wMjc1IDMwLjAyNzQgMjEuODE2OCAzMC4wMjc0QzIxLjM5MiAzMC4wMjc0IDIxLjAzMTcgMjkuODc3NiAyMC43MjcyIDI5LjU3MzFDMjAuNDIyOCAyOS4yNjg3IDIwLjI3MjkgMjguOTA4MyAyMC4yNzI5IDI4LjQ4MzVDMjAuMjcyOSAyOC4wNTg3IDIwLjQyMjggMjcuNjk4MyAyMC43MjcyIDI3LjM5MzlDMjEuMDMxNyAyNy4wODk0IDIxLjM5MiAyNi45Mzk2IDIxLjgxNjggMjYuOTM5NkMyMS45NjA1IDI2LjkzOTYgMjIuMDk2OSAyNi45NTY3IDIyLjIyNjIgMjYuOTkxMkMyMi4wODQ5IDI3LjM4NTUgMjIuMDE0MyAyNy43OTkxIDIyLjAxNDMgMjguMjMxOVoiIGNsaXAtcnVsZT0iZXZlbm9kZCIgZmlsbC1ydWxlPSJldmVub2RkIi8+JiN4YTs8ZGVmcz4mI3hhOzxsaW5lYXJHcmFkaWVudCBncmFkaWVudFVuaXRzPSJ1c2VyU3BhY2VPblVzZSIgeTI9IjQ0LjI3OTIiIHgyPSI0MS41NjQ1IiB5MT0iNi44NDc3NSIgeDE9IjQuODUyODciIGlkPSJwYWludDBfbGluZWFyXzI2MjJfMjA0NzUiPiYjeGE7PHN0b3Agc3RvcC1jb2xvcj0id2hpdGUiLz4mI3hhOzxzdG9wIHN0b3AtY29sb3I9IiNFQUVDRUUiIG9mZnNldD0iMSIvPiYjeGE7PC9saW5lYXJHcmFkaWVudD4mI3hhOzxyYWRpYWxHcmFkaWVudCBncmFkaWVudFRyYW5zZm9ybT0idHJhbnNsYXRlKDE1LjI1ODMgMTUuOTk1NCkgcm90YXRlKDQzLjg3NzkpIHNjYWxlKDI1Ljg1MjQgNDguODExNykiIGdyYWRpZW50VW5pdHM9InVzZXJTcGFjZU9uVXNlIiByPSIxIiBjeT0iMCIgY3g9IjAiIGlkPSJwYWludDFfcmFkaWFsXzI2MjJfMjA0NzUiPiYjeGE7PHN0b3Agc3RvcC1jb2xvcj0iIzAxOTVGRiIvPiYjeGE7PHN0b3Agc3RvcC1jb2xvcj0iIzExNDdFOSIgb2Zmc2V0PSIxIi8+JiN4YTs8L3JhZGlhbEdyYWRpZW50PiYjeGE7PHJhZGlhbEdyYWRpZW50IGdyYWRpZW50VHJhbnNmb3JtPSJ0cmFuc2xhdGUoMTUuMjUyMiAxNi4wODc2KSByb3RhdGUoNDMuNTYwMikgc2NhbGUoMjUuODcyNyAyMy41NDcxKSIgZ3JhZGllbnRVbml0cz0idXNlclNwYWNlT25Vc2UiIHI9IjEiIGN5PSIwIiBjeD0iMCIgaWQ9InBhaW50Ml9yYWRpYWxfMjYyMl8yMDQ3NSI+JiN4YTs8c3RvcCBzdG9wLWNvbG9yPSIjMTM0OEZGIi8+JiN4YTs8c3RvcCBzdG9wLWNvbG9yPSIjMDYyMzhEIiBvZmZzZXQ9IjEiLz4mI3hhOzwvcmFkaWFsR3JhZGllbnQ+JiN4YTs8L2RlZnM+JiN4YTs8L3N2Zz4=;container=0;" parent="hyqJJPxovuY4nRSlYYbf-19" vertex="1">
          <mxGeometry x="49.02999999999997" y="145.46296296296296" width="49" height="49" as="geometry" />
        </mxCell>
        <mxCell id="hyqJJPxovuY4nRSlYYbf-22" value="&lt;span style=&quot;font-size: 15px; font-weight: 700;&quot;&gt;&lt;font color=&quot;#1d2d3e&quot;&gt;SAP Cloud Identity Services&lt;/font&gt;&lt;/span&gt;" style="text;whiteSpace=wrap;html=1;align=center;" parent="hyqJJPxovuY4nRSlYYbf-19" vertex="1">
          <mxGeometry x="8.51" y="194.46148148148148" width="130.05" height="42.898148148148145" as="geometry" />
        </mxCell>
        <mxCell id="hyqJJPxovuY4nRSlYYbf-27" value="" style="endArrow=blockThin;html=1;rounded=0;strokeColor=#475E75;endFill=1;startArrow=blockThin;startFill=1;endSize=4;startSize=4;exitX=0.5;exitY=0;exitDx=0;exitDy=0;strokeWidth=1.5;" parent="1" source="hyqJJPxovuY4nRSlYYbf-20" edge="1">
          <mxGeometry width="50" height="50" relative="1" as="geometry">
            <mxPoint x="487.6089999999998" y="427.3320000000001" as="sourcePoint" />
            <mxPoint x="487" y="520" as="targetPoint" />
            <Array as="points" />
          </mxGeometry>
        </mxCell>
        <mxCell id="hyqJJPxovuY4nRSlYYbf-36" value="" style="group" parent="1" vertex="1" connectable="0">
          <mxGeometry x="502" y="287.8800000000001" width="110" height="95" as="geometry" />
        </mxCell>
        <mxCell id="hyqJJPxovuY4nRSlYYbf-37" value="" style="shape=image;verticalLabelPosition=bottom;labelBackgroundColor=default;verticalAlign=top;imageAspect=0;image=data:image/svg+xml,PHN2ZyB4bWxucz0iaHR0cDovL3d3dy53My5vcmcvMjAwMC9zdmciIGZpbGw9Im5vbmUiIHZpZXdCb3g9IjAgMCAxNyAxNiIgaGVpZ2h0PSIxNiIgd2lkdGg9IjE3Ij4mI3hhOzxnIGNsaXAtcGF0aD0idXJsKCNjbGlwMF8zMTA2XzI3MDc3KSI+JiN4YTs8Y2lyY2xlIHN0cm9rZS13aWR0aD0iMC4yNzM4OTMiIHN0cm9rZT0iI0Q1REFERCIgZmlsbD0idXJsKCNwYWludDBfbGluZWFyXzMxMDZfMjcwNzcpIiByPSI3LjUzMjA1IiBjeT0iOC4wMDAwNiIgY3g9IjguMzMyNTciLz4mI3hhOzxnIGNsaXAtcGF0aD0idXJsKCNjbGlwMV8zMTA2XzI3MDc3KSI+JiN4YTs8bWFzayBoZWlnaHQ9IjEzIiB3aWR0aD0iMTMiIHk9IjEiIHg9IjIiIG1hc2tVbml0cz0idXNlclNwYWNlT25Vc2UiIHN0eWxlPSJtYXNrLXR5cGU6YWxwaGEiIGlkPSJtYXNrMF8zMTA2XzI3MDc3Ij4mI3hhOzxwYXRoIGZpbGw9ImJsYWNrIiBkPSJNNi43NjM1OSA1LjI3MzQ5QzcuMDkxNDggNC42OTkzNyA3LjY3MTM3IDQuMzE4NiA4LjMzNDYgNC4zMTg2QzguOTk4NSA0LjMxODYgOS41NzQyNCA0LjcwMDEzIDkuOTA2MzkgNS4yNzUyTDExLjk2NjIgOC44NTY2MkMxMi4zNjI4IDkuNTQxODcgMTIuMTI4NyAxMC40MjM2IDExLjQ0MDYgMTAuODIxM0MxMC43NTczIDExLjIxOTEgOS44NzgwMyAxMC45ODQzIDkuNDgxNDIgMTAuMjk0Mkw4Ljk4OTI0IDkuNDM2NDVDOC44NzQ1NiA5LjIxNjAyIDguODQ1ODkgOC45NzY0MiA4Ljg4ODkgOC42NjQ5NEw5LjA4NDgxIDcuNTgxOTVDOS4xMTgyNiA3LjQwOTQ0IDguODg0MTIgNy4zMjMxOCA4Ljc5ODExIDcuNDc2NTNMOC4yMjk0OCA4LjQ3ODA1TDcuMTgzMDEgMTAuMjk0MkM2Ljc4NjQgMTAuOTc5NSA1LjkxMTk1IDExLjIxOTEgNS4yMjM4NiAxMC44MjEzQzQuNTQwNTUgMTAuNDIzNiA0LjMwMTYzIDkuNTQ2NjcgNC42OTgyNCA4Ljg1NjYyTDYuNzYzNTkgNS4yNzM0OVoiLz4mI3hhOzwvbWFzaz4mI3hhOzxnIG1hc2s9InVybCgjbWFzazBfMzEwNl8yNzA3NykiPiYjeGE7PGcgZmlsdGVyPSJ1cmwoI2ZpbHRlcjBfZF8zMTA2XzI3MDc3KSI+JiN4YTs8cGF0aCBmaWxsPSJ1cmwoI3BhaW50MV9yYWRpYWxfMzEwNl8yNzA3NykiIGQ9Ik0xNC4wMDY2IDcuODE4ODRDMTMuNTgyMSA4LjgxODUxIDExLjY4MDEgOC4yMDY3NiAxMi43NzU3IDEwLjcwOTRDMTIuMTIwMyAxMS43MTY3IDExLjE0MSAxMi40MDY4IDEwLjIwMiAxMi40MDY4QzguNTQxMTggMTIuNDA2OCAzLjkzMzA5IDEwLjY2NjUgNS42ODg4IDguMzY2NEM3LjQ0NDUyIDYuMDY2MjkgOS42ODk2MSAzLjY5Nzc1IDExLjM1MDUgMy42OTc3NUMxMy4wMTEzIDMuNjk3NzUgMTQuNDMxMSA2LjgxOTE2IDE0LjAwNjYgNy44MTg4NFoiLz4mI3hhOzwvZz4mI3hhOzxnIGZpbHRlcj0idXJsKCNmaWx0ZXIxX2RfMzEwNl8yNzA3NykiPiYjeGE7PHBhdGggZmlsbD0idXJsKCNwYWludDJfcmFkaWFsXzMxMDZfMjcwNzcpIiBkPSJNMTAuMzQ0NyA3LjQwOTQ5QzkuODMyNjcgOC42MTUxNCA4LjA5MjcgNy44NzA1OCA5LjE4ODI5IDEwLjM3MzJDOC41MzI4NyAxMS4zODA1IDcuNTUzNjIgMTIuMDcwNiA2LjYxNDYyIDEyLjA3MDZDNC45NTM3NyAxMi4wNzA2IDAuMzQ1Njg1IDEwLjMzMDMgMi4xMDE0IDguMDMwMjJDMy44NTcxMiA1LjczMDEgNi4xMDIyMSAzLjM2MTU3IDcuNzYzMDUgMy4zNjE1N0M5LjQyMzg5IDMuMzYxNTcgMTAuODU2NyA2LjIwMzg0IDEwLjM0NDcgNy40MDk0OVoiLz4mI3hhOzwvZz4mI3hhOzxnIGZpbHRlcj0idXJsKCNmaWx0ZXIyX2RfMzEwNl8yNzA3NykiPiYjeGE7PHBhdGggZmlsbD0idXJsKCNwYWludDNfcmFkaWFsXzMxMDZfMjcwNzcpIiBkPSJNNi44NDczNSAxMi4yMzI2QzUuNjgxNTkgMTIuODgwOCA0LjIxMTExIDEyLjQ2MTIgMy41NjI5NSAxMS4yOTU0QzIuOTE0NzkgMTAuMTI5NyAzLjMzNDM5IDguNjU5MiA0LjUwMDE1IDguMDExMDRDNS4yMTMyNyA3LjA4MzAyIDYuNzgwMTQgNi42NzgyNCA3LjgxMTY4IDcuNzIyODNDOC44NDMyMSA4Ljc2NzQyIDguMzU1OTcgMTEuMzkzOSA2Ljg0NzM1IDEyLjIzMjZaIi8+JiN4YTs8L2c+JiN4YTs8L2c+JiN4YTs8L2c+JiN4YTs8L2c+JiN4YTs8ZGVmcz4mI3hhOzxmaWx0ZXIgY29sb3ItaW50ZXJwb2xhdGlvbi1maWx0ZXJzPSJzUkdCIiBmaWx0ZXJVbml0cz0idXNlclNwYWNlT25Vc2UiIGhlaWdodD0iMTAuMDU0MiIgd2lkdGg9IjEwLjEzMTMiIHk9IjMuMDY5OTkiIHg9IjQuODQ3OTgiIGlkPSJmaWx0ZXIwX2RfMzEwNl8yNzA3NyI+JiN4YTs8ZmVGbG9vZCByZXN1bHQ9IkJhY2tncm91bmRJbWFnZUZpeCIgZmxvb2Qtb3BhY2l0eT0iMCIvPiYjeGE7PGZlQ29sb3JNYXRyaXggcmVzdWx0PSJoYXJkQWxwaGEiIHZhbHVlcz0iMCAwIDAgMCAwIDAgMCAwIDAgMCAwIDAgMCAwIDAgMCAwIDAgMTI3IDAiIHR5cGU9Im1hdHJpeCIgaW49IlNvdXJjZUFscGhhIi8+JiN4YTs8ZmVPZmZzZXQgZHk9IjAuMDQ0ODQwNSIgZHg9IjAuMjI0MjAyIi8+JiN4YTs8ZmVHYXVzc2lhbkJsdXIgc3RkRGV2aWF0aW9uPSIwLjMzNjMwMyIvPiYjeGE7PGZlQ29tcG9zaXRlIG9wZXJhdG9yPSJvdXQiIGluMj0iaGFyZEFscGhhIi8+JiN4YTs8ZmVDb2xvck1hdHJpeCB2YWx1ZXM9IjAgMCAwIDAgMCAwIDAgMCAwIDAgMCAwIDAgMCAwIDAgMCAwIDAuNCAwIiB0eXBlPSJtYXRyaXgiLz4mI3hhOzxmZUJsZW5kIHJlc3VsdD0iZWZmZWN0MV9kcm9wU2hhZG93XzMxMDZfMjcwNzciIGluMj0iQmFja2dyb3VuZEltYWdlRml4IiBtb2RlPSJub3JtYWwiLz4mI3hhOzxmZUJsZW5kIHJlc3VsdD0ic2hhcGUiIGluMj0iZWZmZWN0MV9kcm9wU2hhZG93XzMxMDZfMjcwNzciIGluPSJTb3VyY2VHcmFwaGljIiBtb2RlPSJub3JtYWwiLz4mI3hhOzwvZmlsdGVyPiYjeGE7PGZpbHRlciBjb2xvci1pbnRlcnBvbGF0aW9uLWZpbHRlcnM9InNSR0IiIGZpbHRlclVuaXRzPSJ1c2VyU3BhY2VPblVzZSIgaGVpZ2h0PSIxMC4wNTQyIiB3aWR0aD0iMTAuMDg2MiIgeT0iMi43MzM4MSIgeD0iMS4yNjA1OCIgaWQ9ImZpbHRlcjFfZF8zMTA2XzI3MDc3Ij4mI3hhOzxmZUZsb29kIHJlc3VsdD0iQmFja2dyb3VuZEltYWdlRml4IiBmbG9vZC1vcGFjaXR5PSIwIi8+JiN4YTs8ZmVDb2xvck1hdHJpeCByZXN1bHQ9ImhhcmRBbHBoYSIgdmFsdWVzPSIwIDAgMCAwIDAgMCAwIDAgMCAwIDAgMCAwIDAgMCAwIDAgMCAxMjcgMCIgdHlwZT0ibWF0cml4IiBpbj0iU291cmNlQWxwaGEiLz4mI3hhOzxmZU9mZnNldCBkeT0iMC4wNDQ4NDA1IiBkeD0iMC4yMjQyMDIiLz4mI3hhOzxmZUdhdXNzaWFuQmx1ciBzdGREZXZpYXRpb249IjAuMzM2MzAzIi8+JiN4YTs8ZmVDb21wb3NpdGUgb3BlcmF0b3I9Im91dCIgaW4yPSJoYXJkQWxwaGEiLz4mI3hhOzxmZUNvbG9yTWF0cml4IHZhbHVlcz0iMCAwIDAgMCAwIDAgMCAwIDAgMCAwIDAgMCAwIDAgMCAwIDAgMC40IDAiIHR5cGU9Im1hdHJpeCIvPiYjeGE7PGZlQmxlbmQgcmVzdWx0PSJlZmZlY3QxX2Ryb3BTaGFkb3dfMzEwNl8yNzA3NyIgaW4yPSJCYWNrZ3JvdW5kSW1hZ2VGaXgiIG1vZGU9Im5vcm1hbCIvPiYjeGE7PGZlQmxlbmQgcmVzdWx0PSJzaGFwZSIgaW4yPSJlZmZlY3QxX2Ryb3BTaGFkb3dfMzEwNl8yNzA3NyIgaW49IlNvdXJjZUdyYXBoaWMiIG1vZGU9Im5vcm1hbCIvPiYjeGE7PC9maWx0ZXI+JiN4YTs8ZmlsdGVyIGNvbG9yLWludGVycG9sYXRpb24tZmlsdGVycz0ic1JHQiIgZmlsdGVyVW5pdHM9InVzZXJTcGFjZU9uVXNlIiBoZWlnaHQ9IjYuNzc3NTkiIHdpZHRoPSI2LjQ0NTMxIiB5PSI2LjQ3NzIxIiB4PSIyLjgwOTkiIGlkPSJmaWx0ZXIyX2RfMzEwNl8yNzA3NyI+JiN4YTs8ZmVGbG9vZCByZXN1bHQ9IkJhY2tncm91bmRJbWFnZUZpeCIgZmxvb2Qtb3BhY2l0eT0iMCIvPiYjeGE7PGZlQ29sb3JNYXRyaXggcmVzdWx0PSJoYXJkQWxwaGEiIHZhbHVlcz0iMCAwIDAgMCAwIDAgMCAwIDAgMCAwIDAgMCAwIDAgMCAwIDAgMTI3IDAiIHR5cGU9Im1hdHJpeCIgaW49IlNvdXJjZUFscGhhIi8+JiN4YTs8ZmVPZmZzZXQgZHk9IjAuMDQ0ODQwNSIgZHg9IjAuMjI0MjAyIi8+JiN4YTs8ZmVHYXVzc2lhbkJsdXIgc3RkRGV2aWF0aW9uPSIwLjMzNjMwMyIvPiYjeGE7PGZlQ29tcG9zaXRlIG9wZXJhdG9yPSJvdXQiIGluMj0iaGFyZEFscGhhIi8+JiN4YTs8ZmVDb2xvck1hdHJpeCB2YWx1ZXM9IjAgMCAwIDAgMCAwIDAgMCAwIDAgMCAwIDAgMCAwIDAgMCAwIDAuNCAwIiB0eXBlPSJtYXRyaXgiLz4mI3hhOzxmZUJsZW5kIHJlc3VsdD0iZWZmZWN0MV9kcm9wU2hhZG93XzMxMDZfMjcwNzciIGluMj0iQmFja2dyb3VuZEltYWdlRml4IiBtb2RlPSJub3JtYWwiLz4mI3hhOzxmZUJsZW5kIHJlc3VsdD0ic2hhcGUiIGluMj0iZWZmZWN0MV9kcm9wU2hhZG93XzMxMDZfMjcwNzciIGluPSJTb3VyY2VHcmFwaGljIiBtb2RlPSJub3JtYWwiLz4mI3hhOzwvZmlsdGVyPiYjeGE7PGxpbmVhckdyYWRpZW50IGdyYWRpZW50VW5pdHM9InVzZXJTcGFjZU9uVXNlIiB5Mj0iMTQuNDY5IiB4Mj0iMTMuNzg1NCIgeTE9IjIuNTA4MDQiIHgxPSIyLjA1NDUiIGlkPSJwYWludDBfbGluZWFyXzMxMDZfMjcwNzciPiYjeGE7PHN0b3Agc3RvcC1jb2xvcj0id2hpdGUiLz4mI3hhOzxzdG9wIHN0b3AtY29sb3I9IiNFQUVDRUUiIG9mZnNldD0iMSIvPiYjeGE7PC9saW5lYXJHcmFkaWVudD4mI3hhOzxyYWRpYWxHcmFkaWVudCBncmFkaWVudFRyYW5zZm9ybT0idHJhbnNsYXRlKDkuNjg2NTUgNi45NzgwOSkgcm90YXRlKDUxLjAzNzMpIHNjYWxlKDkuMjI4ODggOC45MTQyNikiIGdyYWRpZW50VW5pdHM9InVzZXJTcGFjZU9uVXNlIiByPSIxIiBjeT0iMCIgY3g9IjAiIGlkPSJwYWludDFfcmFkaWFsXzMxMDZfMjcwNzciPiYjeGE7PHN0b3Agc3RvcC1jb2xvcj0iIzEzNDhGRiIvPiYjeGE7PHN0b3Agc3RvcC1jb2xvcj0iIzA2MjM4RCIgb2Zmc2V0PSIxIi8+JiN4YTs8L3JhZGlhbEdyYWRpZW50PiYjeGE7PHJhZGlhbEdyYWRpZW50IGdyYWRpZW50VHJhbnNmb3JtPSJ0cmFuc2xhdGUoMy45NzY3NCA0LjAwNDkpIHJvdGF0ZSg1MC4wNjA1KSBzY2FsZSgxMy4xNTE2IDI0LjMxKSIgZ3JhZGllbnRVbml0cz0idXNlclNwYWNlT25Vc2UiIHI9IjEiIGN5PSIwIiBjeD0iMCIgaWQ9InBhaW50Ml9yYWRpYWxfMzEwNl8yNzA3NyI+JiN4YTs8c3RvcCBzdG9wLWNvbG9yPSIjMDE5NUZGIi8+JiN4YTs8c3RvcCBzdG9wLWNvbG9yPSIjMTE0N0U5IiBvZmZzZXQ9IjEiLz4mI3hhOzwvcmFkaWFsR3JhZGllbnQ+JiN4YTs8cmFkaWFsR3JhZGllbnQgZ3JhZGllbnRUcmFuc2Zvcm09InRyYW5zbGF0ZSg2LjIzODI0IDcuMzc4MTgpIHJvdGF0ZSgxMDguNDQ1KSBzY2FsZSg3LjI0ODI3IDEwLjA0ODgpIiBncmFkaWVudFVuaXRzPSJ1c2VyU3BhY2VPblVzZSIgcj0iMSIgY3k9IjAiIGN4PSIwIiBpZD0icGFpbnQzX3JhZGlhbF8zMTA2XzI3MDc3Ij4mI3hhOzxzdG9wIHN0b3AtY29sb3I9IiMwMEJCRkYiLz4mI3hhOzxzdG9wIHN0b3AtY29sb3I9IiMwMDhCRkYiIG9mZnNldD0iMSIvPiYjeGE7PC9yYWRpYWxHcmFkaWVudD4mI3hhOzxjbGlwUGF0aCBpZD0iY2xpcDBfMzEwNl8yNzA3NyI+JiN4YTs8cmVjdCB0cmFuc2Zvcm09InRyYW5zbGF0ZSgwLjMzMjUyKSIgZmlsbD0id2hpdGUiIGhlaWdodD0iMTYiIHdpZHRoPSIxNiIvPiYjeGE7PC9jbGlwUGF0aD4mI3hhOzxjbGlwUGF0aCBpZD0iY2xpcDFfMzEwNl8yNzA3NyI+JiN4YTs8cmVjdCB0cmFuc2Zvcm09InRyYW5zbGF0ZSgzLjQ5OTI3IDIuODMzMjUpIiBmaWxsPSJ3aGl0ZSIgaGVpZ2h0PSI5LjY2NjY2IiB3aWR0aD0iOS42NjY2NiIvPiYjeGE7PC9jbGlwUGF0aD4mI3hhOzwvZGVmcz4mI3hhOzwvc3ZnPg==;points=[[0,0,0,0,0],[0,0.25,0,0,0],[0,0.5,0,0,0],[0,0.75,0,0,0],[0.25,0,0,0,0],[0.5,0,0,0,0],[0.75,0,0,0,0],[1,0,0,0,0],[1,0.25,0,0,0],[1,0.5,0,0,0],[1,0.75,0,0,0]];" parent="hyqJJPxovuY4nRSlYYbf-36" vertex="1">
          <mxGeometry x="30.5" width="49" height="49" as="geometry" />
        </mxCell>
        <mxCell id="hyqJJPxovuY4nRSlYYbf-38" value="&lt;font color=&quot;#1d2d3e&quot; size=&quot;1&quot; face=&quot;arial&quot; style=&quot;&quot;&gt;&lt;b style=&quot;font-size: 14px;&quot;&gt;SAP Build Apps&lt;br&gt;&lt;/b&gt;&lt;/font&gt;" style="text;html=1;align=center;verticalAlign=top;resizable=1;points=[[0,0.5,0,0,0],[0.21,1,0,0,0],[0.5,1,0,0,0],[0.85,1,0,0,0],[1,0.5,0,0,0]];autosize=0;strokeColor=none;fillColor=none;fontSize=12;fontColor=default;fontFamily=Helvetica;fixedWidth=1;imageWidth=24;whiteSpace=wrap;labelBackgroundColor=none;" parent="hyqJJPxovuY4nRSlYYbf-36" vertex="1">
          <mxGeometry y="49" width="110" height="46" as="geometry" />
        </mxCell>
        <mxCell id="g0TPR7dJ_uCebzUNTo92-1" value="" style="shape=image;verticalLabelPosition=bottom;verticalAlign=top;imageAspect=0;aspect=fixed;image=data:image/svg+xml,PHN2ZyB4bWxucz0iaHR0cDovL3d3dy53My5vcmcvMjAwMC9zdmciIGZpbGw9Im5vbmUiIHZpZXdCb3g9IjAgMCAxNyAxNyIgaGVpZ2h0PSIxNyIgd2lkdGg9IjE3Ij4mI3hhOzxwYXRoIGZpbGw9InVybCgjcGFpbnQwX2xpbmVhcl8yXzI4ODA2KSIgZD0iTTE1LjUyNjQgMTMuNTYyNUMxNS45NjM5IDEzLjU2MjUgMTYuMTgyNiAxMy43ODEyIDE2LjE4MjYgMTQuMjE4OEMxNi4xODI2IDE0LjY1NjIgMTUuOTYzOSAxNC44NzUgMTUuNTI2NCAxNC44NzVIMC44Mzg4NjdDMC42NTEzNjcgMTQuODc1IDAuNDk1MTE3IDE0LjgyMjkgMC4zNzAxMTcgMTQuNzE4OEMwLjI0NTExNyAxNC41OTM4IDAuMTgyNjE3IDE0LjQyNzEgMC4xODI2MTcgMTQuMjE4OEMwLjE4MjYxNyAxNC4wMTA0IDAuMjQ1MTE3IDEzLjg1NDIgMC4zNzAxMTcgMTMuNzVDMC40OTUxMTcgMTMuNjI1IDAuNjUxMzY3IDEzLjU2MjUgMC44Mzg4NjcgMTMuNTYyNUgxLjY1MTM3QzEuNjUxMzcgMTMuNTIwOCAxLjY0MDk1IDEzLjQ4OTYgMS42MjAxMiAxMy40Njg4VjEzLjQzNzVDMS41NTc2MiAxMy4yNSAxLjUyNjM3IDEzLjA2MjUgMS41MjYzNyAxMi44NzVWNi4yMTg3NUMxLjUyNjM3IDUuNjU2MjUgMS43MTM4NyA1LjE4NzUgMi4wODg4NyA0LjgxMjVDMi40NjM4NyA0LjQxNjY3IDIuOTQzMDMgNC4yMTg3NSAzLjUyNjM3IDQuMjE4NzVIMTIuODM4OUMxMy40MjIyIDQuMjE4NzUgMTMuOTAxNCA0LjQxNjY3IDE0LjI3NjQgNC44MTI1QzE0LjY1MTQgNS4xODc1IDE0LjgzODkgNS42NTYyNSAxNC44Mzg5IDYuMjE4NzVWMTIuODc1QzE0LjgzODkgMTMuMTA0MiAxNC43OTcyIDEzLjMzMzMgMTQuNzEzOSAxMy41NjI1SDE1LjUyNjRaTTIuODM4ODcgMTIuODc1SDEzLjUyNjRWNi4yMTg3NUMxMy41MjY0IDUuNzgxMjUgMTMuMjk3MiA1LjU2MjUgMTIuODM4OSA1LjU2MjVIMy41MjYzN0MzLjA2ODAzIDUuNTYyNSAyLjgzODg3IDUuNzgxMjUgMi44Mzg4NyA2LjIxODc1VjEyLjg3NVoiLz4mI3hhOzxkZWZzPiYjeGE7PGxpbmVhckdyYWRpZW50IGdyYWRpZW50VW5pdHM9InVzZXJTcGFjZU9uVXNlIiB5Mj0iMTQuNjM2MyIgeDI9IjEyLjk0NjYiIHkxPSI1LjIyMTE2IiB4MT0iMi4yNTA0NyIgaWQ9InBhaW50MF9saW5lYXJfMl8yODgwNiI+JiN4YTs8c3RvcCBzdG9wLWNvbG9yPSIjMjM5NUZGIi8+JiN4YTs8c3RvcCBzdG9wLWNvbG9yPSIjMDA1N0QyIiBvZmZzZXQ9IjEiLz4mI3hhOzwvbGluZWFyR3JhZGllbnQ+JiN4YTs8L2RlZnM+JiN4YTs8L3N2Zz4=" parent="1" vertex="1">
          <mxGeometry x="221" y="287.8799999999999" width="48" height="48" as="geometry" />
        </mxCell>
        <mxCell id="DpCI41nX1_aEjavkpAkR-1" value="" style="group" parent="1" vertex="1" connectable="0">
          <mxGeometry x="650" y="220" width="110" height="95" as="geometry" />
        </mxCell>
        <mxCell id="DpCI41nX1_aEjavkpAkR-2" value="" style="shape=image;verticalLabelPosition=bottom;verticalAlign=top;imageAspect=0;aspect=fixed;image=data:image/svg+xml,PHN2ZyB4bWxucz0iaHR0cDovL3d3dy53My5vcmcvMjAwMC9zdmciIGZpbGw9Im5vbmUiIHZpZXdCb3g9IjAgMCA0OSA0OSIgaGVpZ2h0PSI0OSIgd2lkdGg9IjQ5Ij4mI3hhOzxnIGNsaXAtcGF0aD0idXJsKCNjbGlwMF8yNjIyXzM3MzkpIj4mI3hhOzxjaXJjbGUgc3Ryb2tlLXdpZHRoPSIwLjg1NzE0MyIgc3Ryb2tlPSIjRDVEQUREIiBmaWxsPSJ1cmwoI3BhaW50MF9saW5lYXJfMjYyMl8zNzM5KSIgcj0iMjMuNTcxNCIgY3k9IjI0LjAzNDkiIGN4PSIyNC41Ii8+JiN4YTs8cGF0aCBmaWxsPSJ1cmwoI3BhaW50MV9yYWRpYWxfMjYyMl8zNzM5KSIgZD0iTTM2LjU3MzYgMzAuNzYyOEMzNi44NDM2IDMwLjQ4MzEgMzcuMTQ3MiAzMC4zNDMzIDM3LjQ4NDcgMzAuMzQzM0MzNy44MjIxIDMwLjM0MzMgMzguMTI1OCAzMC40ODMxIDM4LjM5NTcgMzAuNzYyOEMzOC42MzE5IDMxLjAwNzUgMzguNzUgMzEuMzA0NiAzOC43NSAzMS42NTQyQzM4Ljc1IDMyLjAwMzggMzguNjMxOSAzMi4zMTg0IDM4LjM5NTcgMzIuNTk4MUwzMy4yODM4IDM3Ljg5NDFDMzMuMDQ3NiAzOC4xMzg4IDMyLjc0MzkgMzguMjYxMiAzMi4zNzI3IDM4LjI2MTJDMzIuMDAxNiAzOC4yNjEyIDMxLjY5NzkgMzguMTM4OCAzMS40NjE3IDM3Ljg5NDFMMjguOTMxIDM1LjI3MjNDMjguNjYxMSAzNC45OTI3IDI4LjUyNjEgMzQuNjc4IDI4LjUyNjEgMzQuMzI4NUMyOC41MjYxIDMzLjk3ODkgMjguNjYxMSAzMy42NjQzIDI4LjkzMSAzMy4zODQ2QzI5LjIwMSAzMy4xMDQ5IDI5LjUwNDYgMzIuOTY1MSAyOS44NDIxIDMyLjk2NTFDMzAuMTc5NSAzMi45NjUxIDMwLjQ2NjMgMzMuMTA0OSAzMC43MDI1IDMzLjM4NDZMMzIuMzcyNyAzNS4xMTVMMzYuNTczNiAzMC43NjI4WiIvPiYjeGE7PHBhdGggZmlsbD0idXJsKCNwYWludDJfcmFkaWFsXzI2MjJfMzczOSkiIGQ9Ik0zMi44NjQgMTEuMjg1QzM0LjAwMTkgMTEuMjc4NiAzNC41NzUxIDExLjcxMzQgMzUuMzI1MSAxMi40OTg5QzM2LjEwOTIgMTMuMjg0NCAzNi41MDEzIDE0LjI3NDkgMzYuNTAxMyAxNS40NzAyVjI2Ljc1MzdDMzYuNTAxMyAyOC4xMSAzNS42MTI3IDI5LjMzNjEgMzQuNjUwNyAzMC4yOTIyQzM0LjU1MzMgMzAuMzg5IDM0LjQ1NzIgMzAuNDg4NCAzNC4zNjIzIDMwLjU4OTVDMzMuMjgyNSAzMS43NDA4IDMxLjU5MTIgMzEuNDAyNSAzMC4wMTI4IDMxLjQwMjVWMzEuNDAyNUMyOS4xNzUgMzEuNDAyNSAyOC40NzQyIDMxLjc3MDYgMjcuOTU1NiAzMi4zMDc5VjMyLjMwNzlDMjYuNzcwNCAzMy41MzU3IDI1LjI1MjEgMzYuMTE1NiAyMy41NDU2IDM2LjExNTZIMTUuODQxMUMxNC42ODIgMzYuMTE1NiAxMy43MTAzIDM1LjcyMjkgMTIuOTI2MiAzNC45Mzc0QzEyLjE0MjEgMzQuMTUxOCAxMS43NSAzMy4xNzg1IDExLjc1IDMyLjAxNzNWMTUuNDcwMkMxMS43NSAxNC44ODk2IDExLjg1MjMgMTQuMzQzMiAxMi4wNTY4IDEzLjgzMDlDMTIuMjYxNCAxMy4zMTg2IDEyLjUzNDEgMTIuODc0NiAxMi44NzUxIDEyLjQ5ODlDMTMuMjUwMSAxMi4xMjMyIDEzLjY1OTIgMTEuODMyOSAxNC4xMDI0IDExLjYyOEMxNC41NDU2IDExLjQyMzEgMTUuMDIyOSAxMS4zMjA2IDE1LjUzNDMgMTEuMzIwNkwzMi44NjQgMTEuMjg1Wk0zMi44NjQgMTQuMDcxOEMzMy44MDA4IDE0LjA3MTggMzMuODAwOCAxNS4wNjA0IDMzLjgwMDggMTUuNDcwMlYyMy43MTgxSDI4LjIxNjhDMjcuODA3NyAyMy43MTgxIDI3LjQ2NjcgMjMuODU0OCAyNy4xOTQgMjQuMTI4QzI2Ljk1NTQgMjQuMzY3MSAyNi44MzYgMjQuNzI1NyAyNi44MzYgMjUuMjAzOEMyNi44MzYgMjUuOTIxIDI2LjU2MzMgMjYuNTUyOCAyNi4wMTc4IDI3LjA5OTNDMjUuNTA2NCAyNy42MTE2IDI0Ljg3NTcgMjcuODY3NyAyNC4xMjU3IDI3Ljg2NzdDMjMuMzQxNSAyNy44Njc3IDIyLjY3NjcgMjcuNjExNiAyMi4xMzEyIDI3LjA5OTNDMjEuNjE5OCAyNi41NTI4IDIxLjM2NDEgMjUuOTIxIDIxLjM2NDEgMjUuMjAzOEMyMS4zNjQxIDI0LjcyNTcgMjEuMjI3OCAyNC4zNjcxIDIwLjk1NSAyNC4xMjhDMjAuNzE2NCAyMy44NTQ4IDIwLjM5MjUgMjMuNzE4MSAxOS45ODM0IDIzLjcxODFIMTQuNDYwNFYxNS40NzAyQzE0LjQ2MDQgMTUuMDYwNCAxNC40NjA0IDE0LjA3MTggMTUuNTM0MyAxNC4wNzE4SDMyLjg2NFoiIGNsaXAtcnVsZT0iZXZlbm9kZCIgZmlsbC1ydWxlPSJldmVub2RkIi8+JiN4YTs8cGF0aCBmaWxsPSJ1cmwoI3BhaW50M19yYWRpYWxfMjYyMl8zNzM5KSIgZD0iTTE3Ljk2NzcgMTcuOTU4NUwzMC4yMTQyIDE3Ljk1ODVDMzAuNjgxNiAxNy45NTg1IDMxLjA2MDUgMTcuNTc4OSAzMS4wNjA1IDE3LjExMDdDMzEuMDYwNSAxNi42NDI1IDMwLjY4MTYgMTYuMjYyOSAzMC4yMTQyIDE2LjI2MjlMMTcuOTY3NyAxNi4yNjI5QzE3LjUwMDMgMTYuMjYyOSAxNy4xMjE0IDE2LjY0MjUgMTcuMTIxNCAxNy4xMTA3QzE3LjEyMTQgMTcuNTc4OSAxNy41MDAzIDE3Ljk1ODUgMTcuOTY3NyAxNy45NTg1WiIvPiYjeGE7PHBhdGggZmlsbD0idXJsKCNwYWludDRfcmFkaWFsXzI2MjJfMzczOSkiIGQ9Ik0xNy45Njc3IDIxLjUwNjdMMzAuMjE0MiAyMS41MDY3QzMwLjY4MTYgMjEuNTA2NyAzMS4wNjA1IDIxLjEyNzIgMzEuMDYwNSAyMC42NTg5QzMxLjA2MDUgMjAuMTkwNyAzMC42ODE2IDE5LjgxMTIgMzAuMjE0MiAxOS44MTEyTDE3Ljk2NzcgMTkuODExMkMxNy41MDAzIDE5LjgxMTIgMTcuMTIxNCAyMC4xOTA3IDE3LjEyMTQgMjAuNjU4OUMxNy4xMjE0IDIxLjEyNzIgMTcuNTAwMyAyMS41MDY3IDE3Ljk2NzcgMjEuNTA2N1oiLz4mI3hhOzwvZz4mI3hhOzxkZWZzPiYjeGE7PGxpbmVhckdyYWRpZW50IGdyYWRpZW50VW5pdHM9InVzZXJTcGFjZU9uVXNlIiB5Mj0iNDQuMjc5MiIgeDI9IjQxLjU2NDUiIHkxPSI2Ljg0Nzc1IiB4MT0iNC44NTI4NyIgaWQ9InBhaW50MF9saW5lYXJfMjYyMl8zNzM5Ij4mI3hhOzxzdG9wIHN0b3AtY29sb3I9IndoaXRlIi8+JiN4YTs8c3RvcCBzdG9wLWNvbG9yPSIjRUFFQ0VFIiBvZmZzZXQ9IjEiLz4mI3hhOzwvbGluZWFyR3JhZGllbnQ+JiN4YTs8cmFkaWFsR3JhZGllbnQgZ3JhZGllbnRUcmFuc2Zvcm09InRyYW5zbGF0ZSgzMC4xMDkzIDMxLjUzNDQpIHJvdGF0ZSgzNy43NTYxKSBzY2FsZSg5LjAwNzY2IDcuOTQ3MzIpIiBncmFkaWVudFVuaXRzPSJ1c2VyU3BhY2VPblVzZSIgcj0iMSIgY3k9IjAiIGN4PSIwIiBpZD0icGFpbnQxX3JhZGlhbF8yNjIyXzM3MzkiPiYjeGE7PHN0b3Agc3RvcC1jb2xvcj0iIzEzNDhGRiIvPiYjeGE7PHN0b3Agc3RvcC1jb2xvcj0iIzA2MjM4RCIgb2Zmc2V0PSIxIi8+JiN4YTs8L3JhZGlhbEdyYWRpZW50PiYjeGE7PHJhZGlhbEdyYWRpZW50IGdyYWRpZW50VHJhbnNmb3JtPSJ0cmFuc2xhdGUoMTUuNTg4MyAxNC45MzA4KSByb3RhdGUoNDUuNDA5OCkgc2NhbGUoMjQuNDA5OCA0Ni4xMTg2KSIgZ3JhZGllbnRVbml0cz0idXNlclNwYWNlT25Vc2UiIHI9IjEiIGN5PSIwIiBjeD0iMCIgaWQ9InBhaW50Ml9yYWRpYWxfMjYyMl8zNzM5Ij4mI3hhOzxzdG9wIHN0b3AtY29sb3I9IiMwMTk1RkYiLz4mI3hhOzxzdG9wIHN0b3AtY29sb3I9IiMxMTQ3RTkiIG9mZnNldD0iMSIvPiYjeGE7PC9yYWRpYWxHcmFkaWVudD4mI3hhOzxyYWRpYWxHcmFkaWVudCBncmFkaWVudFRyYW5zZm9ybT0idHJhbnNsYXRlKDE5LjMzOTcgMTYuNTE3NCkgcm90YXRlKDYuOTM1NDUpIHNjYWxlKDkuODMzNTggMi44NjExKSIgZ3JhZGllbnRVbml0cz0idXNlclNwYWNlT25Vc2UiIHI9IjEiIGN5PSIwIiBjeD0iMCIgaWQ9InBhaW50M19yYWRpYWxfMjYyMl8zNzM5Ij4mI3hhOzxzdG9wIHN0b3AtY29sb3I9IiMwMEJCRkYiLz4mI3hhOzxzdG9wIHN0b3AtY29sb3I9IiMwMDhCRkYiIG9mZnNldD0iMSIvPiYjeGE7PC9yYWRpYWxHcmFkaWVudD4mI3hhOzxyYWRpYWxHcmFkaWVudCBncmFkaWVudFRyYW5zZm9ybT0idHJhbnNsYXRlKDE5LjMzOTcgMjAuMDY1Nikgcm90YXRlKDYuOTM1NDUpIHNjYWxlKDkuODMzNTggMi44NjExKSIgZ3JhZGllbnRVbml0cz0idXNlclNwYWNlT25Vc2UiIHI9IjEiIGN5PSIwIiBjeD0iMCIgaWQ9InBhaW50NF9yYWRpYWxfMjYyMl8zNzM5Ij4mI3hhOzxzdG9wIHN0b3AtY29sb3I9IiMwMEJCRkYiLz4mI3hhOzxzdG9wIHN0b3AtY29sb3I9IiMwMDhCRkYiIG9mZnNldD0iMSIvPiYjeGE7PC9yYWRpYWxHcmFkaWVudD4mI3hhOzxjbGlwUGF0aCBpZD0iY2xpcDBfMjYyMl8zNzM5Ij4mI3hhOzxyZWN0IHRyYW5zZm9ybT0idHJhbnNsYXRlKDAuNSAwLjAzNDkxMjEpIiBmaWxsPSJ3aGl0ZSIgaGVpZ2h0PSI0OCIgd2lkdGg9IjQ4Ii8+JiN4YTs8L2NsaXBQYXRoPiYjeGE7PC9kZWZzPiYjeGE7PC9zdmc+" parent="DpCI41nX1_aEjavkpAkR-1" vertex="1">
          <mxGeometry x="30.5" width="49" height="49" as="geometry" />
        </mxCell>
        <mxCell id="DpCI41nX1_aEjavkpAkR-3" value="&lt;font color=&quot;#1d2d3e&quot; size=&quot;1&quot; face=&quot;arial&quot; style=&quot;&quot;&gt;&lt;b style=&quot;font-size: 14px;&quot;&gt;Document Management Service Application&lt;br&gt;&lt;/b&gt;&lt;/font&gt;" style="text;html=1;align=center;verticalAlign=top;resizable=1;points=[[0,0.5,0,0,0],[0.21,1,0,0,0],[0.5,1,0,0,0],[0.85,1,0,0,0],[1,0.5,0,0,0]];autosize=0;strokeColor=none;fillColor=none;fontSize=12;fontColor=default;fontFamily=Helvetica;fixedWidth=1;imageWidth=24;whiteSpace=wrap;labelBackgroundColor=none;" parent="DpCI41nX1_aEjavkpAkR-1" vertex="1">
          <mxGeometry y="49" width="110" height="46" as="geometry" />
        </mxCell>
        <mxCell id="DpCI41nX1_aEjavkpAkR-4" style="edgeStyle=orthogonalEdgeStyle;rounded=0;orthogonalLoop=1;jettySize=auto;html=1;entryX=0;entryY=0.75;entryDx=0;entryDy=0;" parent="1" source="hyqJJPxovuY4nRSlYYbf-37" target="DpCI41nX1_aEjavkpAkR-2" edge="1">
          <mxGeometry relative="1" as="geometry" />
        </mxCell>
        <mxCell id="DpCI41nX1_aEjavkpAkR-5" value="" style="group" parent="1" vertex="1" connectable="0">
          <mxGeometry x="649.9999999999998" y="383" width="110" height="95" as="geometry" />
        </mxCell>
        <mxCell id="DpCI41nX1_aEjavkpAkR-6" value="" style="shape=image;verticalLabelPosition=bottom;verticalAlign=top;imageAspect=0;aspect=fixed;image=data:image/svg+xml,PHN2ZyB4bWxucz0iaHR0cDovL3d3dy53My5vcmcvMjAwMC9zdmciIGZpbGw9Im5vbmUiIHZpZXdCb3g9IjAgMCA0OSA0OSIgaGVpZ2h0PSI0OSIgd2lkdGg9IjQ5Ij4mI3hhOzxnIGNsaXAtcGF0aD0idXJsKCNjbGlwMF8yNjIyXzM5MTApIj4mI3hhOzxjaXJjbGUgc3Ryb2tlLXdpZHRoPSIwLjg1NzE0MyIgc3Ryb2tlPSIjRDVEQUREIiBmaWxsPSJ1cmwoI3BhaW50MF9saW5lYXJfMjYyMl8zOTEwKSIgcj0iMjMuNTcxNCIgY3k9IjI0LjAzNDkiIGN4PSIyNC41Ii8+JiN4YTs8cGF0aCBmaWxsPSJ1cmwoI3BhaW50MV9yYWRpYWxfMjYyMl8zOTEwKSIgZD0iTTI0LjE0NzEgMjguNDU4MUgyNC4xMTk3QzIyLjY4ODMgMjguNDUyNCAyMS4zMTczIDI3LjkxNzMgMjAuMzA1MSAyNi45NjkzQzE5LjI5MjkgMjYuMDIxNCAxOC43MjE2IDI0LjczNzIgMTguNzE1NSAyMy4zOTY2VjIzLjM0MzlDMTguNzA5MyAyMi4wMTE3IDE4LjgxMjkgMjAuNjgwOSAxOS4wMjU0IDE5LjM2MzZDMTkuMTk4OSAxOC4yNjQxIDE5LjQ3MTggMTcuMTgwNCAxOS44NDEgMTYuMTI0MkMyMC4xNzgzIDE1LjE5MjkgMjAuNTYyNiAxNC40NjM2IDIwLjk5MzkgMTMuOTM2M0MyMS40MjUzIDEzLjQwOSAyMS44NjYzIDEzLjE0NTMgMjIuMzE2OSAxMy4xNDUzQzIzLjIzNjMgMTMuMTQ1MyAyMy45MjU3IDEzLjQ5NjcgMjQuMzg0OSAxNC4xOTk1QzI0LjgyNzYgMTQuODczMiAyNS4wNjU5IDE1LjY0NjUgMjUuMDc1MSAxNi40MzY1QzI1LjA2NzkgMTMuOTE4OCAyNC43MzQ2IDEyLjMwNzUgMjQuMDc1MSAxMS42MDI2QzIzLjQwODMgMTAuODg5OSAyMi44MjIyIDEwLjUzNCAyMi4zMTY5IDEwLjUzNDlDMjEuNjk3MiAxMC41MzQ5IDIxLjEwNTkgMTAuNzk4NiAyMC41NDI5IDExLjMyNTlDMTkuOTk4MSAxMS44NzEyIDE5LjUxNzggMTIuNjgxIDE5LjEwMTggMTMuNzU1NEMxOC42MzExIDE1LjA1ODMgMTguMjkzMyAxNi40MDAxIDE4LjA5MyAxNy43NjI4QzE3LjgzMDQgMTkuNjMyOSAxNy42OTkgMjEuNTE3MSAxNy42OTk1IDIzLjQwMzNDMTcuNzAwMSAyNC4wOTI2IDE3LjkwNDYgMjQuNzY4MSAxOC4yOTA0IDI1LjM1NTFDMTguNjY4OCAyNS45NzQzIDE5LjE3MDIgMjYuNTE5OSAxOS43Njc2IDI2Ljk2MjZDMjAuMzg5NyAyNy40MjYxIDIxLjA4ODggMjcuNzkwOCAyMS44MzcgMjguMDQyNEMyMi41NTE2IDI4LjMxNjYgMjMuMzE1OCAyOC40NTk2IDI0LjA4OCAyOC40NjM1TDI0LjE0NzEgMjguNDU4MVoiLz4mI3hhOzxwYXRoIGZpbGw9InVybCgjcGFpbnQyX3JhZGlhbF8yNjIyXzM5MTApIiBkPSJNMjIuNjU1NiAzNC41MjI1QzIxLjk5ODQgMzQuNzMzIDIxLjQ0NSAzNC43MTUxIDIwLjk5NTQgMzQuNDY4NUMyMC42NzggMzQuMjE4NSAyMC40MjI4IDMzLjkwNjcgMjAuMjQ3NCAzMy41NTQ3QzIwLjA1ODQgMzMuMTk4MiAxOS45NTk3IDMyLjgwNTYgMTkuOTU5MiAzMi40MDc0QzE5Ljk1ODYgMzIuMzQxNSAxOS45NjM1IDMyLjI3NTYgMTkuOTczNiAzMi4yMTA0QzE5Ljk4MSAzMi4xNTg2IDE5Ljk4NTYgMzIuMTA2NSAxOS45ODczIDMyLjA1NDNDMTkuNjgzMyAzMy4zMzUyIDE5LjU4NzUgMzQuNDQ5OSAxOS42OTk4IDM1LjM5ODVDMTkuODEyMiAzNi4zNDc4IDIwLjE4NzkgMzYuOTgwNCAyMC44MjY4IDM3LjI5NjJDMjEuMzcwNiAzNy41OTU4IDIyLjAzNjQgMzcuNjEzNCAyMi44MjQyIDM3LjM0ODhDMjMuNjMxMiAzNy4xMDIzIDI0LjQ4OTYgMzYuNjI4MSAyNS4zOTk1IDM1LjkyNjJDMjYuNDIzNSAzNS4xMTI2IDI3LjM2MTcgMzQuMjA4NiAyOC4yMDEgMzMuMjI2N0MyOS4xODQzIDMyLjA1OCAzMC4wNzc2IDMwLjgyNTMgMzAuODc0MyAyOS41Mzc5TDMxLjE4NDEgMjkuMDg5OEMzMC44NjU2IDI4Ljk1NDggMzAuNTcwMiAyOC44MTU4IDMwLjI5NzggMjguNjg0OUMzMC4wNDM3IDI4LjU2MjcgMjkuNzkzNCAyOC40Mjc3IDI5LjU0OCAyOC4yODE5QzI4LjgyMTYgMjkuMzEyMyAyOC4wMjM1IDMwLjI5NjggMjcuMTU5MSAzMS4yMjkxQzI2LjQzNjMgMzIuMDEzNiAyNS42NDA2IDMyLjczNjMgMjQuNzgxMiAzMy4zODg3QzI0LjAyMTMgMzMuOTUwMiAyMy4zMTI3IDM0LjMyODEgMjIuNjU1NiAzNC41MjI1WiIvPiYjeGE7PHBhdGggZmlsbD0idXJsKCNwYWludDNfcmFkaWFsXzI2MjJfMzkxMCkiIGQ9Ik0zMi42OTg3IDI2LjA3MzFDMzIuODY3MyAyNS42OTUyIDMzLjAyNTkgMjUuMzEzMiAzMy4xNzcyIDI0LjkyNThIMzMuMTgyOUMzMy4wMTQzIDI0LjY5NzcgMzIuODQgMjQuNDg1OCAzMi42NjI3IDI0LjI4MzRDMzIuNDg1NCAyNC4wODA5IDMyLjMwMjQgMjMuODgzOCAzMi4xMTUxIDIzLjY4OTVDMzEuODMyNiAyNC4zMDUgMzEuNTU0NSAyNC44NjY0IDMxLjI4MzYgMjUuMzc2N0MzMS4wMzc4IDI1LjgzOTQgMzAuNzcwOCAyNi4yODY2IDMwLjQ4NTYgMjYuNzIwMkMzMC43MzIgMjYuODYyNCAzMC45OTU1IDI2Ljk3NjggMzEuMjcwNiAyNy4wNjExQzMxLjU1MDIgMjcuMTQ5MSAzMS44NDA5IDI3LjIwMjIgMzIuMTM1MyAyNy4yMTlIMzIuMTY0MUMzMi4zNTE0IDI2LjgzMyAzMi41MzAxIDI2LjQ1MSAzMi42OTg3IDI2LjA3MzFaIi8+JiN4YTs8cGF0aCBmaWxsPSJ1cmwoI3BhaW50NF9yYWRpYWxfMjYyMl8zOTEwKSIgZD0iTTMzLjcxMTggMTguMTUxNVYxOC4xNzcxQzMzLjY3OTYgMTguNjQ5OCAzMy42MjA5IDE5LjEyMDcgMzMuNTM2IDE5LjU4NzZDMzMuNDU3MyAyMC4wMDExIDMzLjM1OTQgMjAuNDEwMSAzMy4yNDIzIDIwLjgxNDRDMzMuMzkyMSAyMC45MjEyIDMzLjUzNTggMjEuMDM1MyAzMy42NzI5IDIxLjE1NkMzMy44MDU4IDIxLjI3NDYgMzMuOTUwNiAyMS4zODA4IDM0LjEwNTMgMjEuNDczMkMzNC4xNDQ3IDIxLjMwMzYgMzQuMTczMSAyMS4xMzE4IDM0LjE5MDMgMjAuOTU5QzM0LjIwOSAyMC43NyAzNC4yMTc3IDIwLjU3NTYgMzQuMjE3NyAyMC4zNjUxQzM0LjIxNzggMTkuOTgwMSAzNC4xNzU4IDE5LjU5NjEgMzQuMDkyMyAxOS4yMTkxQzM0LjAxMDcgMTguODUwNSAzMy44ODMgMTguNDkyMiAzMy43MTE4IDE4LjE1MTVaIi8+JiN4YTs8cGF0aCBmaWxsPSJ1cmwoI3BhaW50NV9yYWRpYWxfMjYyMl8zOTEwKSIgZD0iTTE2LjkxNDEgMjUuMjQzTDE2LjgyOTEgMjUuMjk1N0MxNi41NzMxIDI1LjQxNDQgMTYuMzI0NCAyNS41NDY1IDE2LjA4NCAyNS42OTExQzE1Ljg0ODcgMjUuODMxNSAxNS42MjgyIDI1Ljk3MTkgMTUuNDIyNiAyNi4xMTIzTDE1LjA1NjUgMjUuNTMzMkMxNC4yNzIyIDI0LjI0NDYgMTMuNTg1NCAyMi45MDYgMTMuMDAxNSAyMS41MjcyQzEyLjUyMDIgMjAuMzU3NyAxMi4xNTc0IDE5LjE0ODQgMTEuOTE3OCAxNy45MTUzQzExLjcyMDggMTYuODI2NSAxMS42OTczIDE1Ljg5NTIgMTEuODQ3MiAxNS4xMjEzQzExLjk5NyAxNC4zNDc1IDEyLjM0NDMgMTMuODExMiAxMi44ODkxIDEzLjUxMjRDMTMuNTI2MSAxMy4xNzg2IDE0LjMwOTUgMTMuMTk2MSAxNS4yMzk1IDEzLjU2NTFDMTYuMTY5NiAxMy45MzQgMTcuMTM4OSAxNC41OTQgMTguMTQ3NyAxNS41NDUxQzE3LjY3ODEgMTUuMjY0MiAxNy4xNTg5IDE1LjA2MzUgMTYuNjE0NCAxNC45NTI2QzE2LjIwNjkgMTQuODY0OSAxNS43NzkxIDE0LjkyNjIgMTUuNDE4MiAxNS4xMjRDMTQuOTQ4NCAxNS4zNjk3IDE0LjYzODYgMTUuODA4OCAxNC40ODg3IDE2LjQ0MTRDMTQuMzU3MSAxNy4yMTQ4IDE0LjM2MiAxOC4wMDMyIDE0LjUwMzEgMTguNzc1MUMxNC42NzY1IDE5LjgwMzYgMTQuOTU0NCAyMC44MTQyIDE1LjMzMzIgMjEuNzkzMUMxNS43ODE1IDIyLjk3NzkgMTYuMzE3NSAyNC4xMzIxIDE2LjkzNzIgMjUuMjQ3MUwxNi45MTQxIDI1LjI0M1oiLz4mI3hhOzxwYXRoIGZpbGw9InVybCgjcGFpbnQ2X3JhZGlhbF8yNjIyXzM5MTApIiBkPSJNMTYuNTc1NSAyNy43MTk4QzE2Ljc0NTQgMjcuNTA4NCAxNi45Mzg3IDI3LjMxNDMgMTcuMTUxOSAyNy4xNDA4QzE3LjM3NDggMjYuOTYwNSAxNy42MTYyIDI2LjgwMTQgMTcuODcyNSAyNi42NjU3QzE4LjIwOTcgMjcuMTkzOSAxOC41NDYgMjcuNjk5MSAxOC44ODEzIDI4LjE4MTRDMTkuMjE4NSAyOC42NjYgMTkuNTY1OCAyOS4xMjYyIDE5LjkyMzIgMjkuNTY2MkwxOS40NDQ3IDI5LjY0NDVIMTkuNTAwOUMxOS4zMTIyIDI5LjY3OTYgMTkuMTE2MiAyOS43MTA3IDE4LjkwODYgMjkuNzM3N0MxOC43MDExIDI5Ljc2NDcgMTguNDg3OCAyOS43ODYzIDE4LjI2MTYgMjkuODAyNEMxNy45ODAxIDI5LjUwNDYgMTcuNjk4NiAyOS4xNzk4IDE3LjQxNzEgMjguODI3OUMxNy4xMzU2IDI4LjQ3NjEgMTYuODU0MSAyOC4xMTYyIDE2LjU3MjYgMjcuNzQ4MUwxNi41NzU1IDI3LjcxOThaIi8+JiN4YTs8cGF0aCBmaWxsPSJ1cmwoI3BhaW50N19yYWRpYWxfMjYyMl8zOTEwKSIgZD0iTTI0LjExOTcgMzMuNTE5NkMyMy41Mjk1IDMzLjQ3MiAyMi45NTI4IDMzLjMyNzEgMjIuNDE2MyAzMy4wOTE4QzIxLjg5ODcgMzIuODY0OSAyMS40MTk4IDMyLjU2NzUgMjAuOTk1NCAzMi4yMDlMMjIuMDM1OSAzMS44MzkyVjMxLjg2NjJDMjIuMzU1OCAzMi4xNjQ5IDIyLjY4OTIgMzIuNDU0NyAyMy4wMzYgMzIuNzM1NEMyMy4zODgyIDMzLjAyMDggMjMuNzU5MyAzMy4yODQ5IDI0LjE0NzEgMzMuNTI2NEwyNC4xMTk3IDMzLjUxOTZaIi8+JiN4YTs8cGF0aCBmaWxsPSJ1cmwoI3BhaW50OF9yYWRpYWxfMjYyMl8zOTEwKSIgZD0iTTI2Ljg3OCAyNy43MTk4SDI2LjkwNTRDMjcuNzI4MSAyNy4yODQzIDI4LjQxMjggMjYuNjUyMyAyOC44ODk4IDI1Ljg4ODJDMjkuMzg0NiAyNS4xMTM1IDI5LjY0MjkgMjQuMjI2NCAyOS42MzYzIDIzLjMyMzdDMjkuNjM3NyAyMi44NjAzIDI5LjU3MTMgMjIuMzk4OSAyOS40Mzg5IDIxLjk1MjRMMjkuNDIwNSAyMS44OTExQzI5LjUyNDMgMjIuMTg1NSAyOS42MDU2IDIyLjQ4NyAyOS42NjM3IDIyLjc5MzNDMjkuNzk0OSAyMy41MjE5IDI5Ljc5NDkgMjQuMjY2IDI5LjY2MzcgMjQuOTk0N0MyOS41Mzk5IDI1LjcwMzYgMjkuMjgyNyAyNi4zODY0IDI4LjkwNDMgMjcuMDExMkMyOC41Mzg0IDI3LjYxNyAyOC4wMDM0IDI4LjExODIgMjcuMzU2NSAyOC40NjA4QzI1LjYyOTEgMjkuNDIwMiAyMy44MzI1IDMwLjI2NTggMjEuOTc5NyAzMC45OTE2QzIwLjM4NDggMzEuNTkgMTguOTg2OSAzMS45ODk5IDE3Ljc4NiAzMi4xOTE1QzE2LjU4NTEgMzIuMzkzMSAxNS41OTk4IDMyLjM5NzUgMTQuODMwMyAzMi4yMDVDMTQuMDYxNyAzMi4wMjk1IDEzLjUxNzkgMzEuNjg2NyAxMy4xOTg5IDMxLjE3NjVDMTIuOTUzOSAzMC43NzI1IDEyLjk5NjIgMzAuMTIyMyAxMy4zMjU3IDI5LjIyNjFDMTMuNjUxMiAyOC4zNDA5IDE0Ljk2NzUgMjcuMjc2NSAxNy4yNzQ2IDI2LjAzMzFDMTYuNTQ4NCAyNi40MzE1IDE1LjkzMiAyNi45ODQ3IDE1LjQ3NTkgMjcuNjQ4M0MxNS4wMjQzIDI4LjMxNTkgMTUuMDUyMiAyOS4wNjI4IDE1LjU1OTUgMjkuODg4OEMxNS44MjE4IDMwLjMxMDggMTYuMzA5OCAzMC41NjU1IDE3LjAyMzcgMzAuNjUyOEMxNy43NTU3IDMwLjc0MjggMTguNjI4MSAzMC42ODU2IDE5LjY0MDcgMzAuNDgxNEMyMC43OTM5IDMwLjIzOTggMjEuOTIzNyAyOS45MDk0IDIzLjAxODcgMjkuNDkzNEMyNC4zMjY4IDI4Ljk4NTkgMjUuNTk2NSAyOC4zOTU2IDI2LjgxOSAyNy43MjY1TDI2Ljg3OCAyNy43MTk4WiIvPiYjeGE7PHBhdGggZmlsbD0idXJsKCNwYWludDlfcmFkaWFsXzI2MjJfMzkxMCkiIGQ9Ik0yNi44NDkyIDE4Ljg4ODVDMjYuNDQ0IDE4LjY1NiAyNi4wMDggMTguNDc0NSAyNS41NTIyIDE4LjM0ODZDMjUuMDc3MSAxOC4yMTU5IDI0LjU4MzggMTguMTQ5NSAyNC4wODggMTguMTUxNUMyMy4xMTU0IDE4LjE0MDUgMjIuMTU5MyAxOC4zODcxIDIxLjMyOTcgMTguODYyOEMyMC41MTc3IDE5LjMyNDQgMTkuODQwNyAxOS45Njc3IDE5LjM1OTcgMjAuNzM0OUMxOS43NTEgMjAuMTAyOSAyMC4yNjkyIDE5LjU0NzggMjAuODg1OSAxOS4xMDA0QzIxLjQ5MDkgMTguNjMyNSAyMi4xNzIxIDE4LjI1ODQgMjIuOTAzNCAxNy45OTIyQzIzLjYyMTIgMTcuNzMxMiAyNC4zODQ1IDE3LjU5NzEgMjUuMTU0NSAxNy41OTY4QzI1LjkwNTEgMTcuNTkyNSAyNi42NDM1IDE3Ljc3NDYgMjcuMjk0NSAxOC4xMjQ1QzI5LjAyOTIgMTkuMDM0IDMwLjY5NCAyMC4wNTYgMzIuMjc2NSAyMS4xODNDMzMuNjQ1NSAyMi4xODQ1IDM0LjcxOTcgMjMuMTIwMyAzNS40OTg4IDIzLjk5MDVDMzYuMjc4IDI0Ljg2MDYgMzYuNzggMjUuNjU1NiAzNy4wMDQ4IDI2LjM3NTVDMzcuMjI5NiAyNy4wOTUzIDM3LjE4MTYgMjcuNzEwOCAzNi44NjA3IDI4LjIyMTlDMzYuNjE3NiAyOC42MjU5IDM1Ljk5ODQgMjguOTIwMiAzNS4wMDMxIDI5LjEwNDZDMzQuMDMzNSAyOS4yODQzIDMyLjQxMjkgMjguNzY3NyAzMC4xNDE0IDI3LjU1NDdDMzAuODUwNiAyNy45MTg3IDMxLjY0MDkgMjguMTI0OCAzMi40NTA5IDI4LjE1NThDMzMuMzA0IDI4LjE4MTkgMzMuOTg0MiAyNy43ODE5IDM0LjQ5MTUgMjYuOTU1OEMzNC43MzQ2IDI2LjUzNDcgMzQuNzI0OSAyNi4wMDc0IDM0LjQ2MjcgMjUuMzc0QzM0LjE4MjEgMjQuNzYwMyAzMy42OTQ1IDI0LjA4ODEgMzIuOTk5OSAyMy4zNTc0QzMyLjIwMzcgMjIuNTM2OSAzMS4zMzI5IDIxLjc4MjcgMzAuMzk3MyAyMS4xMDM0QzI5LjI2NyAyMC4yNzQ1IDI4LjA3MjMgMTkuNTI1NiAyNi44MjMzIDE4Ljg2MjhMMjYuODQ5MiAxOC44ODg1WiIvPiYjeGE7PHBhdGggZmlsbD0idXJsKCNwYWludDEwX3JhZGlhbF8yNjIyXzM5MTApIiBkPSJNMjYuNTA2MiAxNC44Mjk4QzI4LjExNjggMTQuODIzMyAyOS43MjU3IDE0LjkyODkgMzEuMzE5NiAxNS4xNDU2QzMyLjYzODUgMTUuMzM0MyAzMy45MzQ1IDE1LjY0MzUgMzUuMTg5IDE2LjA2ODhDMzYuMjg3MSAxNi40NTQ5IDM3LjE1NTIgMTYuOTA0OCAzNy43OTMxIDE3LjQxODZDMzguNDMwMSAxNy45NDUgMzguNzQ5IDE4LjQ5ODQgMzguNzUgMTkuMDc4OEMzOC43NSAxOS43NDY0IDM4LjMzNzQgMjAuMzY2IDM3LjUxMjEgMjAuOTM3NEMzNi42ODY4IDIxLjUwODcgMzUuNTgxOSAyMS45Nzg5IDM0LjE5NzUgMjIuMzQ3OEMzNC42OTMgMjIuMDk4OCAzNS4xNDAyIDIxLjc3MzUgMzUuNTIwNCAyMS4zODU1QzM1LjgxNDkgMjEuMDk3IDM1Ljk4NTMgMjAuNzE2OCAzNS45OTg5IDIwLjMxNzhDMzUuOTk4OSAxOS44NDQ1IDM1Ljc0NTcgMTkuMzg3OSAzNS4yMzk0IDE4Ljk0NzhDMzQuNjAzNCAxOC40NDc2IDMzLjg3OTIgMTguMDU0OCAzMy4wOTk0IDE3Ljc4NzFDMzIuMDU5MSAxNy40MTY4IDMwLjk4NTUgMTcuMTM0NCAyOS44OTE0IDE2Ljk0MzVDMjguNTgyMyAxNi43MDU5IDI3LjI1NTMgMTYuNTY1MSAyNS45MjI2IDE2LjUyMjRWMTQuODI5OEgyNi41MDYyWiIvPiYjeGE7PHBhdGggZmlsbD0idXJsKCNwYWludDExX3JhZGlhbF8yNjIyXzM5MTApIiBkPSJNMjQuMDkwOSAxNi4yNTI0QzI0LjA5MDkgMTYuMDIyMSAyNC4wNjI4IDE1Ljc5MjUgMjQuMDA3MyAxNS41NjgxQzIzLjk1NDIgMTUuMzUyNSAyMy44ODI3IDE1LjE0MTIgMjMuNzkzNSAxNC45MzYzQzIzLjI3MyAxNC45NzU3IDIyLjc3NjUgMTUuMDI0OCAyMi4zMDM5IDE1LjA4MzVDMjEuODI2NCAxNS4xNDI5IDIxLjM2MTkgMTUuMjE3NiAyMC45MTA0IDE1LjMwNzZMMjEuMDc5IDE1LjI4MTlDMjAuOTg1MyAxNS40NTc0IDIwLjg4NTkgMTUuNjY1MyAyMC43ODM1IDE1LjkwMTVDMjAuNjgxMiAxNi4xMzc3IDIwLjU5MTkgMTYuMzcxMiAyMC41MTY5IDE2LjU5OTNMMjAuNDYwNyAxNi43MDQ2QzIxLjA2MjIgMTYuNjQ5NyAyMS42NjI2IDE2LjYwNDcgMjIuMjYyMSAxNi41Njk2QzIyLjg2MTYgMTYuNTM0NSAyMy40NjIxIDE2LjUxNyAyNC4wNjM1IDE2LjUxN0MyNC4wODE3IDE2LjQ3OTcgMjQuMDkxMSAxNi40MzkyIDI0LjA5MDkgMTYuMzk4MlYxNi4yNTI0WiIvPiYjeGE7PHBhdGggZmlsbD0idXJsKCNwYWludDEyX3JhZGlhbF8yNjIyXzM5MTApIiBkPSJNMjkuNDIwNSAyMS44OTExQzI5LjI5NTUgMjEuNDg1NiAyOS4xMTI3IDIxLjA5NzUgMjguODc2OSAyMC43Mzc2QzI5LjA5NzkgMjEuMTA1NCAyOS4yNzk4IDIxLjQ5MTcgMjkuNDIwNSAyMS44OTExWk0xOS45ODggMzIuMDUxMUwxOS45ODczIDMyLjA1NDNDMTkuOTg3NyAzMi4wNDAyIDE5Ljk4OCAzMi4wMjYxIDE5Ljk4OCAzMi4wMTJWMzIuMDUxMVpNMjkuNTQ4IDI4LjI4MTlMMjkuNTUxMyAyOC4yNzcyTDI5LjQ5NTEgMjguMjUwMkwyOS41NDggMjguMjgxOVpNMjMuODA5OSAxNC45MzUxTDIzLjc4MTEgMTQuOTA4MUwyMy43OTM1IDE0LjkzNjNMMjMuODA5OSAxNC45MzUxWk0zMC40ODIzIDI2LjcxODNMMzAuNDg1NiAyNi43MjAyQzMwLjQ1NjMgMjYuNzY0NyAzMC40MjY5IDI2LjgwOTEgMzAuMzk3MyAyNi44NTMzTDMwLjQ4MjMgMjYuNzE4M1pNMzMuMjQwNiAyMC44MTMyTDMzLjI0MjMgMjAuODE0NEwzMy4yMTE4IDIwLjkxODVMMzMuMjQwNiAyMC44MTMyWiIgY2xpcC1ydWxlPSJldmVub2RkIiBmaWxsLXJ1bGU9ImV2ZW5vZGQiLz4mI3hhOzxwYXRoIGZpbGw9InVybCgjcGFpbnQxM19yYWRpYWxfMjYyMl8zOTEwKSIgZD0iTTE0LjU3ODEgMTguMTc3MUwxNC42MDU1IDE4LjE1MTVDMTQuOTQ4MSAxNy43MDc2IDE1LjM2NjkgMTcuMzE5OSAxNS44NDQ4IDE3LjAwNDJDMTYuMzM4IDE2LjY3NiAxNi44Nzc5IDE2LjQxNDMgMTcuNDQ4OCAxNi4yMjY4QzE3LjQxMTMgMTYuMzg0NyAxNy4zNzM5IDE2LjU1MjEgMTcuMzM2NCAxNi43Mjc1QzE3LjI5NzUgMTYuOTA5NyAxNy4yNzg3IDE3LjA5NTEgMTcuMjgwMiAxNy4yODA5TDE3LjE5NTIgMTcuMzA3OUMxNi43MzI5IDE3LjQxMSAxNi4yNzczIDE3LjUzODUgMTUuODMwNCAxNy42ODk5QzE1LjQwMTEgMTcuODM0OCAxNC45ODI3IDE4LjAwNjYgMTQuNTc4MSAxOC4yMDQxVjE4LjE3NzFaIi8+JiN4YTs8L2c+JiN4YTs8ZGVmcz4mI3hhOzxsaW5lYXJHcmFkaWVudCBncmFkaWVudFVuaXRzPSJ1c2VyU3BhY2VPblVzZSIgeTI9IjQ0LjI3OTIiIHgyPSI0MS41NjQ1IiB5MT0iNi44NDc3NSIgeDE9IjQuODUyODciIGlkPSJwYWludDBfbGluZWFyXzI2MjJfMzkxMCI+JiN4YTs8c3RvcCBzdG9wLWNvbG9yPSJ3aGl0ZSIvPiYjeGE7PHN0b3Agc3RvcC1jb2xvcj0iI0VBRUNFRSIgb2Zmc2V0PSIxIi8+JiN4YTs8L2xpbmVhckdyYWRpZW50PiYjeGE7PHJhZGlhbEdyYWRpZW50IGdyYWRpZW50VHJhbnNmb3JtPSJ0cmFuc2xhdGUoMTYuMDQ2OSAxNC41ODcxKSByb3RhdGUoNDUpIHNjYWxlKDI2Ljc0MDMgMzIuNDUzMSkiIGdyYWRpZW50VW5pdHM9InVzZXJTcGFjZU9uVXNlIiByPSIxIiBjeT0iMCIgY3g9IjAiIGlkPSJwYWludDFfcmFkaWFsXzI2MjJfMzkxMCI+JiN4YTs8c3RvcCBzdG9wLWNvbG9yPSIjMDBCQkZGIi8+JiN4YTs8c3RvcCBzdG9wLWNvbG9yPSIjMDA4QkZGIiBvZmZzZXQ9IjEiLz4mI3hhOzwvcmFkaWFsR3JhZGllbnQ+JiN4YTs8cmFkaWFsR3JhZGllbnQgZ3JhZGllbnRUcmFuc2Zvcm09InRyYW5zbGF0ZSgxNi4wNDY5IDE0LjU4NzEpIHJvdGF0ZSg0NSkgc2NhbGUoMjYuNzQwMyAzMi40NTMxKSIgZ3JhZGllbnRVbml0cz0idXNlclNwYWNlT25Vc2UiIHI9IjEiIGN5PSIwIiBjeD0iMCIgaWQ9InBhaW50Ml9yYWRpYWxfMjYyMl8zOTEwIj4mI3hhOzxzdG9wIHN0b3AtY29sb3I9IiMwMEJCRkYiLz4mI3hhOzxzdG9wIHN0b3AtY29sb3I9IiMwMDhCRkYiIG9mZnNldD0iMSIvPiYjeGE7PC9yYWRpYWxHcmFkaWVudD4mI3hhOzxyYWRpYWxHcmFkaWVudCBncmFkaWVudFRyYW5zZm9ybT0idHJhbnNsYXRlKDE2LjA0NjkgMTQuNTg3MSkgcm90YXRlKDQ1KSBzY2FsZSgyNi43NDAzIDMyLjQ1MzEpIiBncmFkaWVudFVuaXRzPSJ1c2VyU3BhY2VPblVzZSIgcj0iMSIgY3k9IjAiIGN4PSIwIiBpZD0icGFpbnQzX3JhZGlhbF8yNjIyXzM5MTAiPiYjeGE7PHN0b3Agc3RvcC1jb2xvcj0iIzAwQkJGRiIvPiYjeGE7PHN0b3Agc3RvcC1jb2xvcj0iIzAwOEJGRiIgb2Zmc2V0PSIxIi8+JiN4YTs8L3JhZGlhbEdyYWRpZW50PiYjeGE7PHJhZGlhbEdyYWRpZW50IGdyYWRpZW50VHJhbnNmb3JtPSJ0cmFuc2xhdGUoMTYuMDQ2OSAxNC41ODcxKSByb3RhdGUoNDUpIHNjYWxlKDI2Ljc0MDMgMzIuNDUzMSkiIGdyYWRpZW50VW5pdHM9InVzZXJTcGFjZU9uVXNlIiByPSIxIiBjeT0iMCIgY3g9IjAiIGlkPSJwYWludDRfcmFkaWFsXzI2MjJfMzkxMCI+JiN4YTs8c3RvcCBzdG9wLWNvbG9yPSIjMDBCQkZGIi8+JiN4YTs8c3RvcCBzdG9wLWNvbG9yPSIjMDA4QkZGIiBvZmZzZXQ9IjEiLz4mI3hhOzwvcmFkaWFsR3JhZGllbnQ+JiN4YTs8cmFkaWFsR3JhZGllbnQgZ3JhZGllbnRUcmFuc2Zvcm09InRyYW5zbGF0ZSgxNS45MzcgMTQuNDk5Mykgcm90YXRlKDQ1LjMxODEpIHNjYWxlKDI2LjU4NDMgNTAuMjI5MSkiIGdyYWRpZW50VW5pdHM9InVzZXJTcGFjZU9uVXNlIiByPSIxIiBjeT0iMCIgY3g9IjAiIGlkPSJwYWludDVfcmFkaWFsXzI2MjJfMzkxMCI+JiN4YTs8c3RvcCBzdG9wLWNvbG9yPSIjMDE5NUZGIi8+JiN4YTs8c3RvcCBzdG9wLWNvbG9yPSIjMTE0N0U5IiBvZmZzZXQ9IjEiLz4mI3hhOzwvcmFkaWFsR3JhZGllbnQ+JiN4YTs8cmFkaWFsR3JhZGllbnQgZ3JhZGllbnRUcmFuc2Zvcm09InRyYW5zbGF0ZSgxNS45MzcgMTQuNDk5Mykgcm90YXRlKDQ1LjMxODEpIHNjYWxlKDI2LjU4NDMgNTAuMjI5MSkiIGdyYWRpZW50VW5pdHM9InVzZXJTcGFjZU9uVXNlIiByPSIxIiBjeT0iMCIgY3g9IjAiIGlkPSJwYWludDZfcmFkaWFsXzI2MjJfMzkxMCI+JiN4YTs8c3RvcCBzdG9wLWNvbG9yPSIjMDE5NUZGIi8+JiN4YTs8c3RvcCBzdG9wLWNvbG9yPSIjMTE0N0U5IiBvZmZzZXQ9IjEiLz4mI3hhOzwvcmFkaWFsR3JhZGllbnQ+JiN4YTs8cmFkaWFsR3JhZGllbnQgZ3JhZGllbnRUcmFuc2Zvcm09InRyYW5zbGF0ZSgxNS45MzcgMTQuNDk5Mykgcm90YXRlKDQ1LjMxODEpIHNjYWxlKDI2LjU4NDMgNTAuMjI5MSkiIGdyYWRpZW50VW5pdHM9InVzZXJTcGFjZU9uVXNlIiByPSIxIiBjeT0iMCIgY3g9IjAiIGlkPSJwYWludDdfcmFkaWFsXzI2MjJfMzkxMCI+JiN4YTs8c3RvcCBzdG9wLWNvbG9yPSIjMDE5NUZGIi8+JiN4YTs8c3RvcCBzdG9wLWNvbG9yPSIjMTE0N0U5IiBvZmZzZXQ9IjEiLz4mI3hhOzwvcmFkaWFsR3JhZGllbnQ+JiN4YTs8cmFkaWFsR3JhZGllbnQgZ3JhZGllbnRUcmFuc2Zvcm09InRyYW5zbGF0ZSgxNS45MzA5IDE0LjU5NjYpIHJvdGF0ZSg0NSkgc2NhbGUoMjYuNTk3OCAyNC4yMzc2KSIgZ3JhZGllbnRVbml0cz0idXNlclNwYWNlT25Vc2UiIHI9IjEiIGN5PSIwIiBjeD0iMCIgaWQ9InBhaW50OF9yYWRpYWxfMjYyMl8zOTEwIj4mI3hhOzxzdG9wIHN0b3AtY29sb3I9IiMxMzQ4RkYiLz4mI3hhOzxzdG9wIHN0b3AtY29sb3I9IiMwNjIzOEQiIG9mZnNldD0iMSIvPiYjeGE7PC9yYWRpYWxHcmFkaWVudD4mI3hhOzxyYWRpYWxHcmFkaWVudCBncmFkaWVudFRyYW5zZm9ybT0idHJhbnNsYXRlKDE1LjkzNyAxNC40OTkzKSByb3RhdGUoNDUuMzE4MSkgc2NhbGUoMjYuNTg0MyA1MC4yMjkxKSIgZ3JhZGllbnRVbml0cz0idXNlclNwYWNlT25Vc2UiIHI9IjEiIGN5PSIwIiBjeD0iMCIgaWQ9InBhaW50OV9yYWRpYWxfMjYyMl8zOTEwIj4mI3hhOzxzdG9wIHN0b3AtY29sb3I9IiMwMTk1RkYiLz4mI3hhOzxzdG9wIHN0b3AtY29sb3I9IiMxMTQ3RTkiIG9mZnNldD0iMSIvPiYjeGE7PC9yYWRpYWxHcmFkaWVudD4mI3hhOzxyYWRpYWxHcmFkaWVudCBncmFkaWVudFRyYW5zZm9ybT0idHJhbnNsYXRlKDE1LjkzMDkgMTQuNTk2Nikgcm90YXRlKDQ1KSBzY2FsZSgyNi41OTc4IDI0LjIzNzYpIiBncmFkaWVudFVuaXRzPSJ1c2VyU3BhY2VPblVzZSIgcj0iMSIgY3k9IjAiIGN4PSIwIiBpZD0icGFpbnQxMF9yYWRpYWxfMjYyMl8zOTEwIj4mI3hhOzxzdG9wIHN0b3AtY29sb3I9IiMxMzQ4RkYiLz4mI3hhOzxzdG9wIHN0b3AtY29sb3I9IiMwNjIzOEQiIG9mZnNldD0iMSIvPiYjeGE7PC9yYWRpYWxHcmFkaWVudD4mI3hhOzxyYWRpYWxHcmFkaWVudCBncmFkaWVudFRyYW5zZm9ybT0idHJhbnNsYXRlKDE1LjkzMDkgMTQuNTk2Nikgcm90YXRlKDQ1KSBzY2FsZSgyNi41OTc4IDI0LjIzNzYpIiBncmFkaWVudFVuaXRzPSJ1c2VyU3BhY2VPblVzZSIgcj0iMSIgY3k9IjAiIGN4PSIwIiBpZD0icGFpbnQxMV9yYWRpYWxfMjYyMl8zOTEwIj4mI3hhOzxzdG9wIHN0b3AtY29sb3I9IiMxMzQ4RkYiLz4mI3hhOzxzdG9wIHN0b3AtY29sb3I9IiMwNjIzOEQiIG9mZnNldD0iMSIvPiYjeGE7PC9yYWRpYWxHcmFkaWVudD4mI3hhOzxyYWRpYWxHcmFkaWVudCBncmFkaWVudFRyYW5zZm9ybT0idHJhbnNsYXRlKDE1LjkzMDkgMTQuNTk2Nikgcm90YXRlKDQ1KSBzY2FsZSgyNi41OTc4IDI0LjIzNzYpIiBncmFkaWVudFVuaXRzPSJ1c2VyU3BhY2VPblVzZSIgcj0iMSIgY3k9IjAiIGN4PSIwIiBpZD0icGFpbnQxMl9yYWRpYWxfMjYyMl8zOTEwIj4mI3hhOzxzdG9wIHN0b3AtY29sb3I9IiMxMzQ4RkYiLz4mI3hhOzxzdG9wIHN0b3AtY29sb3I9IiMwNjIzOEQiIG9mZnNldD0iMSIvPiYjeGE7PC9yYWRpYWxHcmFkaWVudD4mI3hhOzxyYWRpYWxHcmFkaWVudCBncmFkaWVudFRyYW5zZm9ybT0idHJhbnNsYXRlKDE1LjkzMDkgMTQuNTk2Nikgcm90YXRlKDQ1KSBzY2FsZSgyNi41OTc4IDI0LjIzNzYpIiBncmFkaWVudFVuaXRzPSJ1c2VyU3BhY2VPblVzZSIgcj0iMSIgY3k9IjAiIGN4PSIwIiBpZD0icGFpbnQxM19yYWRpYWxfMjYyMl8zOTEwIj4mI3hhOzxzdG9wIHN0b3AtY29sb3I9IiMxMzQ4RkYiLz4mI3hhOzxzdG9wIHN0b3AtY29sb3I9IiMwNjIzOEQiIG9mZnNldD0iMSIvPiYjeGE7PC9yYWRpYWxHcmFkaWVudD4mI3hhOzxjbGlwUGF0aCBpZD0iY2xpcDBfMjYyMl8zOTEwIj4mI3hhOzxyZWN0IHRyYW5zZm9ybT0idHJhbnNsYXRlKDAuNSAwLjAzNDkxMjEpIiBmaWxsPSJ3aGl0ZSIgaGVpZ2h0PSI0OCIgd2lkdGg9IjQ4Ii8+JiN4YTs8L2NsaXBQYXRoPiYjeGE7PC9kZWZzPiYjeGE7PC9zdmc+;points=[[0,0,0,0,0],[0,0.25,0,0,0],[0,0.5,0,0,0],[0,0.75,0,0,0],[0.25,0,0,0,0],[0.5,0,0,0,0],[0.75,0,0,0,0],[1,0,0,0,0],[1,0.25,0,0,0],[1,0.5,0,0,0],[1,0.75,0,0,0]];" parent="DpCI41nX1_aEjavkpAkR-5" vertex="1">
          <mxGeometry x="31.5" width="49" height="49" as="geometry" />
        </mxCell>
        <mxCell id="DpCI41nX1_aEjavkpAkR-7" value="&lt;font color=&quot;#1d2d3e&quot; size=&quot;1&quot; face=&quot;arial&quot; style=&quot;&quot;&gt;&lt;b style=&quot;font-size: 14px;&quot;&gt;SAP Datasphere&lt;br&gt;&lt;/b&gt;&lt;/font&gt;" style="text;html=1;align=center;verticalAlign=top;resizable=1;points=[[0,0.5,0,0,0],[0.21,1,0,0,0],[0.5,1,0,0,0],[0.85,1,0,0,0],[1,0.5,0,0,0]];autosize=0;strokeColor=none;fillColor=none;fontSize=12;fontColor=default;fontFamily=Helvetica;fixedWidth=1;imageWidth=24;whiteSpace=wrap;labelBackgroundColor=none;" parent="DpCI41nX1_aEjavkpAkR-5" vertex="1">
          <mxGeometry y="49" width="110" height="46" as="geometry" />
        </mxCell>
        <mxCell id="DpCI41nX1_aEjavkpAkR-8" style="edgeStyle=orthogonalEdgeStyle;rounded=0;orthogonalLoop=1;jettySize=auto;html=1;entryX=0;entryY=0.5;entryDx=0;entryDy=0;entryPerimeter=0;" parent="1" source="hyqJJPxovuY4nRSlYYbf-37" target="DpCI41nX1_aEjavkpAkR-6" edge="1">
          <mxGeometry relative="1" as="geometry" />
        </mxCell>
        <mxCell id="lzuJF5_tKQ_NoJYjPayE-1" value="&lt;span style=&quot;color: rgb(29, 45, 62); font-family: arial; font-size: 12px; font-style: normal; font-variant-ligatures: normal; font-variant-caps: normal; font-weight: 400; letter-spacing: normal; orphans: 2; text-align: center; text-indent: 0px; text-transform: none; widows: 2; word-spacing: 0px; -webkit-text-stroke-width: 0px; white-space: nowrap; background-color: rgb(251, 251, 251); text-decoration-thickness: initial; text-decoration-style: initial; text-decoration-color: initial; display: inline !important; float: none;&quot;&gt;Custo: 1.000,00 EUR - BuildApps&lt;/span&gt;&lt;div&gt;&lt;span style=&quot;color: rgb(29, 45, 62); font-family: arial; font-size: 12px; font-style: normal; font-variant-ligatures: normal; font-variant-caps: normal; font-weight: 400; letter-spacing: normal; orphans: 2; text-align: center; text-indent: 0px; text-transform: none; widows: 2; word-spacing: 0px; -webkit-text-stroke-width: 0px; white-space: nowrap; background-color: rgb(251, 251, 251); text-decoration-thickness: initial; text-decoration-style: initial; text-decoration-color: initial; display: inline !important; float: none;&quot;&gt;4300 CU DataSphere&lt;/span&gt;&lt;/div&gt;&lt;div&gt;&lt;span style=&quot;color: rgb(29, 45, 62); font-family: arial; font-size: 12px; font-style: normal; font-variant-ligatures: normal; font-variant-caps: normal; font-weight: 400; letter-spacing: normal; orphans: 2; text-align: center; text-indent: 0px; text-transform: none; widows: 2; word-spacing: 0px; -webkit-text-stroke-width: 0px; white-space: nowrap; background-color: rgb(251, 251, 251); text-decoration-thickness: initial; text-decoration-style: initial; text-decoration-color: initial; display: inline !important; float: none;&quot;&gt;335,00 EUR Document Management&lt;/span&gt;&lt;/div&gt;" style="text;whiteSpace=wrap;html=1;" vertex="1" parent="1">
          <mxGeometry x="90" y="640" width="150" height="40" as="geometry" />
        </mxCell>
      </root>
    </mxGraphModel>
  </diagram>
  <diagram id="3ijkV9-8sht-So7buaye" name="Case5">
    <mxGraphModel dx="1306" dy="835" grid="1" gridSize="10" guides="1" tooltips="1" connect="1" arrows="1" fold="1" page="1" pageScale="1" pageWidth="850" pageHeight="1100" math="0" shadow="0">
      <root>
        <mxCell id="0" />
        <mxCell id="1" parent="0" />
        <mxCell id="pn5JvDMbWaTYI2LKQGzG-1" value="" style="rounded=1;whiteSpace=wrap;html=1;strokeColor=#0070F2;fillColor=#EBF8FF;arcSize=32;absoluteArcSize=1;imageWidth=64;imageHeight=64;strokeWidth=1.5;" parent="1" vertex="1">
          <mxGeometry x="280" y="150" width="288" height="400.88" as="geometry" />
        </mxCell>
        <mxCell id="pn5JvDMbWaTYI2LKQGzG-2" value="" style="rounded=1;whiteSpace=wrap;html=1;strokeColor=#0070F2;strokeWidth=1.5;arcSize=16;fillColor=#FFFFFF;perimeterSpacing=0;absoluteArcSize=1;" parent="1" vertex="1">
          <mxGeometry x="298.55" y="204.13" width="250.45" height="315.87" as="geometry" />
        </mxCell>
        <mxCell id="pn5JvDMbWaTYI2LKQGzG-3" value="" style="shape=image;verticalLabelPosition=bottom;labelBackgroundColor=default;verticalAlign=top;aspect=fixed;imageAspect=0;image=data:image/svg+xml,PHN2ZyB4bWxuczp4bGluaz0iaHR0cDovL3d3dy53My5vcmcvMTk5OS94bGluayIgeG1sbnM9Imh0dHA6Ly93d3cudzMub3JnLzIwMDAvc3ZnIiB2aWV3Qm94PSIwIDAgMTQ0Ljc0NyAzOS44MzIiIGlkPSJhIj48ZGVmcz48bGluZWFyR3JhZGllbnQgZ3JhZGllbnRVbml0cz0idXNlclNwYWNlT25Vc2UiIHkyPSIzOS44MzIiIHgyPSI0MC4yNTgiIHkxPSIwIiB4MT0iNDAuMjU4IiBpZD0iYiI+PHN0b3Agc3RvcC1jb2xvcj0iIzAwYjhmMSIgb2Zmc2V0PSIwIi8+PHN0b3Agc3RvcC1jb2xvcj0iIzAwYjVlZiIgb2Zmc2V0PSIuMDE2Ii8+PHN0b3Agc3RvcC1jb2xvcj0iIzBkOTBkOCIgb2Zmc2V0PSIuMzA4Ii8+PHN0b3Agc3RvcC1jb2xvcj0iIzE2NzVjOCIgb2Zmc2V0PSIuNTc4Ii8+PHN0b3Agc3RvcC1jb2xvcj0iIzFjNjRiZSIgb2Zmc2V0PSIuODE3Ii8+PHN0b3Agc3RvcC1jb2xvcj0iIzFlNWZiYiIgb2Zmc2V0PSIxIi8+PC9saW5lYXJHcmFkaWVudD48L2RlZnM+PHBvbHlsaW5lIGZpbGwtcnVsZT0iZXZlbm9kZCIgZmlsbD0idXJsKCNiKSIgcG9pbnRzPSIwIDM5LjgzMiA0MC42OTIgMzkuODMyIDgwLjUxNyAwIDAgMCAwIDM5LjgzMiIvPjxwYXRoIGZpbGwtcnVsZT0iZXZlbm9kZCIgZmlsbD0iI2ZmZiIgZD0ibTQ3Ljc4Miw3LjQ4OWwtNy45MjUtLjAwNXYxOC44NDVsLTYuOTI0LTE4Ljg0NWgtNi44NjVsLTUuOTEyLDE1Ljc1OWMtLjYzLTMuOTczLTQuNzQtNS4zNDUtNy45NzQtNi4zNzQtMi4xMzUtLjY4Ni00LjQwMS0xLjY5NC00LjM4LTIuODA5LjAxNy0uOTE1LDEuMjE1LTEuNzY1LDMuNTg5LTEuNjM3LDEuNTk1LjA4NCwzLjAwMS4yMTMsNS44LDEuNTYzbDIuNzUzLTQuNzk1Yy0yLjU1NS0xLjMtNi4wODYtMi4xMjEtOC45NzgtMi4xMjRoLS4wMTdjLTMuMzc0LDAtNi4xODUsMS4wOTMtNy45MjgsMi44OTQtMS4yMTQsMS4yNTgtMS44NjksMi44NTYtMS44OTYsNC42MjMtLjA0NCwyLjQzMi44NDgsNC4xNTcsMi43MjEsNS41MzMsMS41ODMsMS4xNiwzLjYwNiwxLjkxMiw1LjM5LDIuNDY1LDIuMjAxLjY4MSwzLjk5NiwxLjI3NCwzLjk3NSwyLjUzOS0uMDE2LjQ1OS0uMTkxLjg4OC0uNTIxLDEuMjM2LS41NDguNTY2LTEuMzkxLjc3OS0yLjU1NS43OTktMi4yNDQuMDQ4LTMuOTEtLjMwMy02LjU2Mi0xLjg3bC0yLjQ0OCw0Ljg2MWMyLjY0NCwxLjUwNiw1Ljc3NiwyLjM4OCw4Ljk3MiwyLjM4OGwuNDExLS4wMDZjMi43ODItLjA1LDUuMDI2LS44NDIsNi44Mi0yLjI4Ni4xMDMtLjA4MS4xOTYtLjE2Ni4yOTEtLjI1bC0uNzk1LDIuMTIzaDcuMmwxLjIwOC0zLjY3NGMxLjI2NS40MzMsMi43MDQuNjcxLDQuMjMyLjY3MSwxLjQ4NywwLDIuODg5LS4yMjksNC4xMzEtLjYzNWwxLjE2NCwzLjYzN2gxMS43NDJ2LTcuNjA3aDIuNTYxYzYuMTg4LDAsOS44NTEtMy4xNTQsOS44NTEtOC40MzYsMC01Ljg4NS0zLjU1Ny04LjU4NS0xMS4xMzItOC41ODVabS0xOC4zMTcsMTYuMTI0Yy0uOTI1LDAtMS43OTItLjE2LTIuNTM5LS40NDNsMi41MTItNy45MjZoLjA0OGwyLjQ2OCw3Ljk0OGMtLjc0Mi4yNjMtMS41ODkuNDIxLTIuNDg4LjQyMVptMTguNzgzLTQuNTUzaC0xLjc0NnYtNi4zODZoMS43NDZjMi4zMjgsMCw0LjE4NS43NzMsNC4xODUsMy4xNTEsMCwyLjQ2MS0xLjg1NywzLjIzNi00LjE4NSwzLjIzNiIvPjxwYXRoIGZpbGw9IiMwMDJhODYiIGQ9Im04MC4yMTcsNy40MDFoMTAuMDYzYzUuNTk1LDAsOC42NzQsMS45MTcsOC42NzQsNi4xNTgsMCwyLjkwMy0xLjUxMyw1LjAxNC00LjMxMSw1LjcsMy4yOS40NTgsNS4yNzgsMi41ODYsNS4yNzgsNS44OTQsMCw1LjAxNC00LjA2NCw3LjAzNy05LjE4NCw3LjAzN2gtMTAuNTIxVjcuNDAxWm0xMy45NjksNi44MjZjMC0yLjE2NC0xLjQ5Ni0yLjk3My00LjI0LTIuOTczaC01LjA0OXY2LjI5OGg0Ljg5MWMzLjIwMiwwLDQuMzk4LTEuMTYxLDQuMzk4LTMuMzI1Wm0xLjAyMSwxMC41MjFjMC0yLjM1Ny0xLjc3Ny0zLjQ2Ni00LjgzOS0zLjQ2NmgtNS40NzF2Ny4wNTVoNS41MDZjMi44MTUsMCw0LjgwNC0uNzc0LDQuODA0LTMuNTg5WiIvPjxwYXRoIGZpbGw9IiMwMDJhODYiIGQ9Im0xMDkuMDUxLDExLjVoLTcuNTgzdi00LjA5OWgxOS44NDZ2NC4wOTloLTcuNTY1djIwLjY5aC00LjY5N1YxMS41WiIvPjxwYXRoIGZpbGw9IiMwMDJhODYiIGQ9Im0xMjUuMTQ4LDcuNDAxaDEwLjUwNGM2LjE5MiwwLDkuMDk2LDMuMTg1LDkuMDk2LDcuODk5LDAsNC4zOTgtMi44MzMsOC4xNDYtOC44NSw4LjE0NmgtNi4wN3Y4Ljc0NGgtNC42OFY3LjQwMVptMTQuOTAyLDcuOTUyYzAtMi41NTEtMS42ODktMy45MjMtNC45NDQtMy45MjNoLTUuMjc4djguMDRoNS40MTljMy4yNzIsMCw0LjgwNC0xLjU4Myw0LjgwNC00LjExN1oiLz48L3N2Zz4=;strokeWidth=1.5;" parent="1" vertex="1">
          <mxGeometry x="298.54999999999995" y="168.55000000000007" width="67.25" height="18.55" as="geometry" />
        </mxCell>
        <mxCell id="pn5JvDMbWaTYI2LKQGzG-14" value="&lt;font face=&quot;arial&quot; style=&quot;font-size: 16px;&quot;&gt;&lt;b style=&quot;font-size: 16px;&quot;&gt;Subaccount&lt;/b&gt;&lt;/font&gt;" style="text;html=1;align=left;verticalAlign=middle;resizable=0;points=[];autosize=1;strokeColor=none;fillColor=none;fontSize=12;fontColor=#1d2d3e;fontFamily=Helvetica;" parent="1" vertex="1">
          <mxGeometry x="310" y="214.14" width="120" height="30" as="geometry" />
        </mxCell>
        <mxCell id="Qs1oaVuJ13_xLCa-5cWw-2" value="" style="group" vertex="1" connectable="0" parent="1">
          <mxGeometry x="590" y="402" width="199" height="70" as="geometry" />
        </mxCell>
        <mxCell id="Qs1oaVuJ13_xLCa-5cWw-3" value="" style="rounded=1;whiteSpace=wrap;html=1;strokeColor=#0070F2;strokeWidth=1.5;arcSize=14;fillColor=#FFFFFF;perimeterSpacing=0;" vertex="1" parent="Qs1oaVuJ13_xLCa-5cWw-2">
          <mxGeometry width="199" height="70" as="geometry" />
        </mxCell>
        <mxCell id="Qs1oaVuJ13_xLCa-5cWw-4" value="" style="shape=image;verticalLabelPosition=bottom;labelBackgroundColor=default;verticalAlign=top;aspect=fixed;imageAspect=0;image=data:image/svg+xml,PHN2ZyB4bWxucz0iaHR0cDovL3d3dy53My5vcmcvMjAwMC9zdmciIGZpbGw9Im5vbmUiIHZpZXdCb3g9IjAgMCAxNyAxMiIgaGVpZ2h0PSIxMiIgd2lkdGg9IjE3Ij4mI3hhOzxwYXRoIGZpbGw9InVybCgjcGFpbnQwX2xpbmVhcl83MjRfMTQpIiBkPSJNMTIuMzQ2MSAxMS45OTc0SDMuODE0ODVDMy4zNTY1MiAxMS45OTc0IDIuOTE5MDIgMTEuOTAzNiAyLjUwMjM1IDExLjcxNjJDMi4wODU2OCAxMS41MDc4IDEuNzIxMSAxMS4yMzcgMS40MDg2IDEwLjkwMzZDMS4wOTYxIDEwLjU0OTUgMC44NDYxIDEwLjE0MzIgMC42NTg2IDkuNjg0OTFDMC40OTE5MyA5LjIyNjYxIDAuNDA4NiA4LjczNzAxIDAuNDA4NiA4LjIxNjIxQzAuNDA4NiA3LjcxNjE2IDAuNDkxOTMgNy4yMzY5OSAwLjY1ODYgNi43Nzg2NkMwLjg0NjEgNi4zMjAzMyAxLjA4NTY4IDUuOTI0NDkgMS4zNzczNSA1LjU5MTE2QzEuNjY5MDIgNS4yMzY5OSAyLjAxMjc3IDQuOTY2MTYgMi40MDg2IDQuNzc4NjZDMi44MjUyNyA0LjU3MDMzIDMuMjYyNzcgNC40NjYxNiAzLjcyMTEgNC40NjYxNkMzLjgyNTI3IDMuODQxMTYgNC4wMTI3NyAzLjI1NzgzIDQuMjgzNiAyLjcxNjE2QzQuNTU0NDMgMi4xNTM2NiA0Ljg5ODE4IDEuNjc0NDkgNS4zMTQ4NSAxLjI3ODY2QzUuNzMxNTIgMC44ODI4MzQgNi4yMDAyNyAwLjU3MDMzNCA2LjcyMTEgMC4zNDExNjRDNy4yNjI3NyAwLjExMTk5NCA3LjgyNTI3IC0wLjAwMjU4NjM2IDguNDA4NiAtMC4wMDI1ODYzNkM5LjMwNDQzIC0wLjAwMjU4NjM2IDEwLjEzNzcgMC4yNjgyNDQgMTAuOTA4NiAwLjgwOTkxNEMxMS42Nzk0IDEuMzUxNTggMTIuMjczMSAyLjA4MDc0IDEyLjY4OTggMi45OTc0MUMxMy4yMTA2IDMuMDM5MDggMTMuNzAwMiAzLjE4NDkxIDE0LjE1ODYgMy40MzQ5MUMxNC42MTY5IDMuNjg0OTEgMTUuMDEyOCA0LjAxODI0IDE1LjM0NjEgNC40MzQ5MUMxNS42Nzk1IDQuODMwNzQgMTUuOTM5OCA1LjI4OTA4IDE2LjEyNzMgNS44MDk5MUMxNi4zMTQ4IDYuMzMwNzQgMTYuNDA4NiA2Ljg5MzI0IDE2LjQwODYgNy40OTc0MUMxNi40MDg2IDguMTIyNDEgMTYuMzA0NSA4LjcxNjIxIDE2LjA5NjEgOS4yNzg2MUMxNS44ODc4IDkuODIwMzEgMTUuNTk2MSAxMC4yOTk1IDE1LjIyMTEgMTAuNzE2MkMxNC44NjcgMTEuMTEyIDE0LjQzOTggMTEuNDI0NSAxMy45Mzk4IDExLjY1MzZDMTMuNDM5OCAxMS44ODI4IDEyLjkwODcgMTEuOTk3NCAxMi4zNDYxIDExLjk5NzRaTTMuODE0ODUgNi4wNTk5MUMzLjMxNDg1IDYuMDU5OTEgMi44ODc3NyA2LjI2ODI0IDIuNTMzNiA2LjY4NDkxQzIuMTc5NDMgNy4xMDE1OCAyLjAwMjM1IDcuNjExOTkgMi4wMDIzNSA4LjIxNjIxQzIuMDAyMzUgOC44MjAzMSAyLjE3OTQzIDkuMzQxMjEgMi41MzM2IDkuNzc4NjFDMi44ODc3NyAxMC4xOTUzIDMuMzE0ODUgMTAuNDAzNiAzLjgxNDg1IDEwLjQwMzZIMTIuMzQ2MUMxMy4wMzM3IDEwLjQwMzYgMTMuNjE3IDEwLjEyMjQgMTQuMDk2MSA5LjU1OTkxQzE0LjU3NTMgOC45OTc0MSAxNC44MTQ4IDguMzA5OTEgMTQuODE0OCA3LjQ5NzQxQzE0LjgxNDggNi42NjQwOCAxNC41NzUzIDUuOTY2MTYgMTQuMDk2MSA1LjQwMzY2QzEzLjYxNyA0Ljg0MTE2IDEzLjAzMzcgNC41NTk5MSAxMi4zNDYxIDQuNTU5OTFIMTIuMTI3M0MxMS43NzMxIDQuNTU5OTEgMTEuNTIzMSA0LjM4MjgzIDExLjM3NzMgNC4wMjg2NkMxMS4xMjczIDMuMjk5NDkgMTAuNzMxNSAyLjcxNjE2IDEwLjE4OTggMi4yNzg2NkM5LjY0ODE1IDEuODIwMzMgOS4wNTQ0MyAxLjU5MTE2IDguNDA4NiAxLjU5MTE2QzcuOTcxMSAxLjU5MTE2IDcuNTY0ODUgMS42OTUzMyA3LjE4OTg1IDEuOTAzNjZDNi44MTQ4NSAyLjA5MTE2IDYuNDgxNTIgMi4zNTE1OCA2LjE4OTg1IDIuNjg0OTFDNS45MTkwMiAyLjk5NzQxIDUuNzAwMjcgMy4zODI4MyA1LjUzMzYgMy44NDExNkM1LjM2NjkzIDQuMjc4NjYgNS4yODM2IDQuNzQ3NDEgNS4yODM2IDUuMjQ3NDFDNS4yODM2IDUuNDc2NTggNS4yMDAyNyA1LjY3NDQ5IDUuMDMzNiA1Ljg0MTE2QzQuODg3NzcgNS45ODY5OSA0LjcwMDI3IDYuMDU5OTEgNC40NzExIDYuMDU5OTFIMy44MTQ4NVoiLz4mI3hhOzxkZWZzPiYjeGE7PGxpbmVhckdyYWRpZW50IGdyYWRpZW50VW5pdHM9InVzZXJTcGFjZU9uVXNlIiB5Mj0iMTAuMzM3MyIgeDI9IjE0LjI2MDIiIHkxPSIxLjEyNjIzIiB4MT0iMi40NzY0NiIgaWQ9InBhaW50MF9saW5lYXJfNzI0XzE0Ij4mI3hhOzxzdG9wIHN0b3AtY29sb3I9IiMyMzk1RkYiLz4mI3hhOzxzdG9wIHN0b3AtY29sb3I9IiMwMDU3RDIiIG9mZnNldD0iMSIvPiYjeGE7PC9saW5lYXJHcmFkaWVudD4mI3hhOzwvZGVmcz4mI3hhOzwvc3ZnPg==;strokeWidth=1.5;" vertex="1" parent="Qs1oaVuJ13_xLCa-5cWw-2">
          <mxGeometry x="14" y="22.82" width="34.52" height="24.36" as="geometry" />
        </mxCell>
        <mxCell id="Qs1oaVuJ13_xLCa-5cWw-5" value="&lt;font face=&quot;arial&quot;&gt;&lt;span style=&quot;font-size: 16px;&quot;&gt;&lt;b&gt;Hotmart&lt;/b&gt;&lt;/span&gt;&lt;/font&gt;" style="text;html=1;align=left;verticalAlign=middle;resizable=0;points=[];autosize=1;strokeColor=none;fillColor=none;fontSize=12;fontColor=#1d2d3e;fontFamily=Helvetica;" vertex="1" parent="Qs1oaVuJ13_xLCa-5cWw-2">
          <mxGeometry x="60" y="20" width="80" height="30" as="geometry" />
        </mxCell>
        <mxCell id="Qs1oaVuJ13_xLCa-5cWw-6" value="" style="group" vertex="1" connectable="0" parent="1">
          <mxGeometry x="595" y="90" width="194.51999999999998" height="154.12" as="geometry" />
        </mxCell>
        <mxCell id="Qs1oaVuJ13_xLCa-5cWw-7" value="" style="group" vertex="1" connectable="0" parent="Qs1oaVuJ13_xLCa-5cWw-6">
          <mxGeometry width="194.51999999999998" height="154.12" as="geometry" />
        </mxCell>
        <mxCell id="Qs1oaVuJ13_xLCa-5cWw-8" value="" style="rounded=1;whiteSpace=wrap;html=1;strokeColor=#0070F2;strokeWidth=1.5;arcSize=16;fillColor=#FFFFFF;perimeterSpacing=0;absoluteArcSize=1;" vertex="1" parent="Qs1oaVuJ13_xLCa-5cWw-7">
          <mxGeometry width="189" height="154.12" as="geometry" />
        </mxCell>
        <mxCell id="Qs1oaVuJ13_xLCa-5cWw-9" value="&lt;font face=&quot;arial&quot; style=&quot;font-size: 16px;&quot;&gt;&lt;b style=&quot;font-size: 16px;&quot;&gt;SAP On-Premise &lt;br&gt;Solutions&lt;/b&gt;&lt;/font&gt;" style="text;html=1;align=left;verticalAlign=middle;resizable=0;points=[];autosize=1;strokeColor=none;fillColor=none;fontSize=12;fontColor=#1d2d3e;fontFamily=Helvetica;" vertex="1" parent="Qs1oaVuJ13_xLCa-5cWw-7">
          <mxGeometry x="49.999999999999986" y="8.999999999999993" width="150" height="50" as="geometry" />
        </mxCell>
        <mxCell id="Qs1oaVuJ13_xLCa-5cWw-10" value="" style="shape=image;verticalLabelPosition=bottom;labelBackgroundColor=default;verticalAlign=top;aspect=fixed;imageAspect=0;image=data:image/svg+xml,PHN2ZyB4bWxucz0iaHR0cDovL3d3dy53My5vcmcvMjAwMC9zdmciIGZpbGw9Im5vbmUiIHZpZXdCb3g9IjAgMCAxNiAxNyIgaGVpZ2h0PSIxNyIgd2lkdGg9IjE2Ij4mI3hhOzxwYXRoIGZpbGw9InVybCgjcGFpbnQwX2xpbmVhcl83MjRfMTIpIiBkPSJNMTQuMzMzNSA1LjgzNDk0QzE0LjU4MzUgNi4wODQ5NCAxNC43ODE0IDYuMzc2NjEgMTQuOTI3MiA2LjcwOTk0QzE1LjA5MzkgNy4wMjI0NCAxNS4xNzcyIDcuMzY2MTkgMTUuMTc3MiA3Ljc0MTE5VjE0LjQyODdDMTUuMTc3MiAxNS4xMzcgMTQuOTM3NiAxNS43MjA0IDE0LjQ1ODUgMTYuMTc4N0MxMy45NzkzIDE2LjY1NzkgMTMuMzg1NSAxNi44OTc1IDEyLjY3NzIgMTYuODk3NUgyLjc3MDk0QzIuMDgzNDQgMTYuODk3NSAxLjUwMDExIDE2LjY1NzkgMS4wMjA5NCAxNi4xNzg3QzAuNTQxNzY4IDE1LjcyMDQgMC4zMDIxODUgMTUuMTM3IDAuMzAyMTg1IDE0LjQyODdWNy43NDExOUMwLjMwMjE4NSA2Ljk0OTUyIDAuNTgzNDM1IDYuMzE0MTEgMS4xNDU5NCA1LjgzNDk0TDYuMDgzNDQgMS41NTM2OUM2LjU4MzQ0IDEuMTM3MDIgNy4xNDU5NCAwLjkyODY4OCA3Ljc3MDk0IDAuOTI4Njg4QzguMzk1OTQgMC45Mjg2ODggOC45Mzc2MSAxLjEzNzAyIDkuMzk1OTQgMS41NTM2OUwxNC4zMzM1IDUuODM0OTRaTTguOTg5NjkgMTAuMzAzN0g2LjQ4OTY5VjE1LjI3MjVIOC45ODk2OVYxMC4zMDM3Wk0xMy40MjcyIDcuNzQxMTlDMTMuNDI3MiA3LjQ3MDM2IDEzLjM0MzkgNy4yNTE2MSAxMy4xNzcyIDcuMDg0OTRMOC4yMzk2OSAyLjgwMzY5QzcuODg1NTIgMi41MzI4NiA3LjUyMDk0IDIuNTMyODYgNy4xNDU5NCAyLjgwMzY5TDIuMjA4NDQgNy4wODQ5NEMyLjA0MTc3IDcuMjUxNjEgMS45NTg0NCA3LjQ3MDM2IDEuOTU4NDQgNy43NDExOVYxNC40Mjg3QzEuOTU4NDQgMTQuNjc4NyAyLjAzMTM2IDE0Ljg4NyAyLjE3NzE5IDE1LjA1MzdDMi4zNDM4NiAxNS4xOTk1IDIuNTQxNzcgMTUuMjcyNSAyLjc3MDk0IDE1LjI3MjVINC44MzM0NFYxMC4zMDM3QzQuODMzNDQgOS44NDUzNiA0Ljk4OTY5IDkuNDU5OTQgNS4zMDIxOSA5LjE0NzQ0QzUuNjM1NTIgOC44MTQxMSA2LjAzMTM2IDguNjQ3NDQgNi40ODk2OSA4LjY0NzQ0SDguOTg5NjlDOS40NDgwMiA4LjY0NzQ0IDkuODMzNDkgOC44MTQxMSAxMC4xNDU5IDkuMTQ3NDRDMTAuNDU4NSA5LjQ1OTk0IDEwLjYxNDcgOS44NDUzNiAxMC42MTQ3IDEwLjMwMzdWMTUuMjcyNUgxMi42NzcyQzEyLjkyNzIgMTUuMjcyNSAxMy4xMjUxIDE1LjE5OTUgMTMuMjcwOSAxNS4wNTM3QzEzLjQzNzYgMTQuODg3IDEzLjUyMDkgMTQuNjc4NyAxMy41MjA5IDE0LjQyODdMMTMuNDI3MiA3Ljc0MTE5WiIvPiYjeGE7PGRlZnM+JiN4YTs8bGluZWFyR3JhZGllbnQgZ3JhZGllbnRVbml0cz0idXNlclNwYWNlT25Vc2UiIHkyPSI5Ljg1NDkiIHgyPSIxNS44MTkzIiB5MT0iMi40MzA4NCIgeDE9IjIuMjI0NjQiIGlkPSJwYWludDBfbGluZWFyXzcyNF8xMiI+JiN4YTs8c3RvcCBzdG9wLWNvbG9yPSIjMjM5NUZGIi8+JiN4YTs8c3RvcCBzdG9wLWNvbG9yPSIjMDA1N0QyIiBvZmZzZXQ9IjEiLz4mI3hhOzwvbGluZWFyR3JhZGllbnQ+JiN4YTs8L2RlZnM+JiN4YTs8L3N2Zz4=;strokeWidth=1.5;" vertex="1" parent="Qs1oaVuJ13_xLCa-5cWw-7">
          <mxGeometry x="14" y="16.00000000000005" width="28.24" height="30" as="geometry" />
        </mxCell>
        <mxCell id="Qs1oaVuJ13_xLCa-5cWw-11" value="" style="group" vertex="1" connectable="0" parent="Qs1oaVuJ13_xLCa-5cWw-6">
          <mxGeometry x="61" y="74.25999999999999" width="67" height="68.25" as="geometry" />
        </mxCell>
        <mxCell id="Qs1oaVuJ13_xLCa-5cWw-12" value="" style="shape=image;verticalLabelPosition=bottom;labelBackgroundColor=default;verticalAlign=top;aspect=fixed;imageAspect=0;image=data:image/svg+xml,PHN2ZyB4bWxucz0iaHR0cDovL3d3dy53My5vcmcvMjAwMC9zdmciIGZpbGw9Im5vbmUiIHZpZXdCb3g9IjAgMCAxNyAxNyIgaGVpZ2h0PSIxNyIgd2lkdGg9IjE3Ij4mI3hhOzxwYXRoIGZpbGw9InVybCgjcGFpbnQwX2xpbmVhcl83MjNfMTEpIiBkPSJNMTUuODQ0NyAxNC45OTYyQzE2LjAxMTQgMTUuMTYyOSAxNi4wOTQ3IDE1LjM0IDE2LjA5NDcgMTUuNTI3NEMxNi4wOTQ3IDE1LjczNTggMTYuMDExNCAxNS45MjMzIDE1Ljg0NDcgMTYuMDlDMTUuNjc4IDE2LjI1NjYgMTUuNDkwNSAxNi4zNCAxNS4yODIyIDE2LjM0QzE1LjA3MzkgMTYuMzQgMTQuODg2NCAxNi4yNTY2IDE0LjcxOTcgMTYuMDlMMTEuNzgyMiAxMy4xNTI0QzExLjEzNjQgMTMuNjczMyAxMC40MDcyIDEzLjkxMjkgOS41OTQ2NyAxMy44NzEyQzguNzgyMTcgMTMuODI5NSA4LjA3Mzg0IDEzLjUwNjYgNy40Njk2NyAxMi45MDI0TDMuNjI1OTIgOS4wODk5N0MzLjMzNDI1IDguNzc3NDcgMy4xMDUwOSA4LjQ0NDE0IDIuOTM4NDIgOC4wODk5N0MyLjc3MTc1IDcuNzE0OTcgMi42NzggNy4zMzk5NyAyLjY1NzE3IDYuOTY0OTdDMi42NTcxNyA2LjU2OTE0IDIuNzA5MjUgNi4xODM3MiAyLjgxMzQyIDUuODA4NzJDMi45Mzg0MiA1LjQzMzcyIDMuMTM2MzQgNS4wODk5NyAzLjQwNzE3IDQuNzc3NDdMMC4zNDQ2NjYgMS43NDYyMkMwLjE3Nzk5OSAxLjU3OTU1IDAuMDk0NjY1NSAxLjM5MjA1IDAuMDk0NjY1NSAxLjE4MzcyQzAuMDk0NjY1NSAwLjk3NTM5IDAuMTc3OTk5IDAuNzg3ODkgMC4zNDQ2NjYgMC42MjEyMjNDMC41MTEzMzMgMC40NTQ1NTcgMC42OTg4MzMgMC4zNzEyMjMgMC45MDcxNjYgMC4zNzEyMjNDMS4xMTU1IDAuMzcxMjIzIDEuMzAzIDAuNDU0NTU3IDEuNDY5NjcgMC42MjEyMjNMNC41MDA5MiAzLjY1MjQ3QzUuMTQ2NzUgMy4xMzE2NCA1Ljg3NTkyIDIuODkyMDUgNi42ODg0MiAyLjkzMzcyQzcuNTAwOTIgMi45NzUzOSA4LjIwOTI1IDMuMjk4MyA4LjgxMzQyIDMuOTAyNDdMMTIuNjU3MiA3LjcxNDk3QzEyLjk0ODkgOC4wMjc0NyAxMy4xNzggOC4zNzEyMiAxMy4zNDQ3IDguNzQ2MjJDMTMuNTExNCA5LjEwMDM5IDEzLjYwNTEgOS40NzUzOSAxMy42MjU5IDkuODcxMjJDMTMuNjQ2OCAxMC4yNDYyIDEzLjU5NDcgMTAuNjIxMiAxMy40Njk3IDEwLjk5NjJDMTMuMzQ0NyAxMS4zNzEyIDEzLjE1NzIgMTEuNzE1IDEyLjkwNzIgMTIuMDI3NEwxNS44NDQ3IDE0Ljk5NjJaTTQuNzUwOTIgNS42NTI0N0M0LjQzODQyIDUuOTY0OTcgNC4yODIxNyA2LjMzOTk3IDQuMjgyMTcgNi43Nzc0N0M0LjI4MjE3IDcuMTk0MTQgNC40Mzg0MiA3LjU1ODcyIDQuNzUwOTIgNy44NzEyMkw2LjA5NDY3IDkuMjQ2MjJMOC45Njk2NyA2LjM3MTIyTDcuNjI1OTIgNC45OTYyMkM3LjMxMzQyIDQuNjgzNzIgNi45Mzg0MiA0LjUyNzQ3IDYuNTAwOTIgNC41Mjc0N0M2LjA4NDI1IDQuNTI3NDcgNS43MDkyNSA0LjY4MzcyIDUuMzc1OTIgNC45OTYyMkw0Ljc1MDkyIDUuNjUyNDdaTTguNTk0NjcgMTEuNzE1QzguOTA3MTcgMTIuMDI3NCA5LjI3MTc1IDEyLjE4MzcgOS42ODg0MiAxMi4xODM3QzEwLjEyNTkgMTIuMTgzNyAxMC41MDA5IDEyLjAyNzQgMTAuODEzNSAxMS43MTVMMTEuNDY5NyAxMS4wOUMxMS43ODIyIDEwLjc1NjYgMTEuOTM4NSAxMC4zODE2IDExLjkzODUgOS45NjQ5N0MxMS45Mzg1IDkuNTI3NDcgMTEuNzgyMiA5LjE1MjQ3IDExLjQ2OTcgOC44Mzk5N0wxMC4wOTQ3IDcuNDk2MjJMNy4yMTk2NyAxMC4zNzEyTDguNTk0NjcgMTEuNzE1WiIvPiYjeGE7PGRlZnM+JiN4YTs8bGluZWFyR3JhZGllbnQgZ3JhZGllbnRVbml0cz0idXNlclNwYWNlT25Vc2UiIHkyPSIxMC4xNjM5IiB4Mj0iMTYuMjc2NCIgeTE9IjEuODczMzgiIHgxPSIyLjE2MjUyIiBpZD0icGFpbnQwX2xpbmVhcl83MjNfMTEiPiYjeGE7PHN0b3Agc3RvcC1jb2xvcj0iIzIzOTVGRiIvPiYjeGE7PHN0b3Agc3RvcC1jb2xvcj0iIzAwNTdEMiIgb2Zmc2V0PSIxIi8+JiN4YTs8L2xpbmVhckdyYWRpZW50PiYjeGE7PC9kZWZzPiYjeGE7PC9zdmc+;" vertex="1" parent="Qs1oaVuJ13_xLCa-5cWw-11">
          <mxGeometry x="17" width="31" height="31" as="geometry" />
        </mxCell>
        <mxCell id="Qs1oaVuJ13_xLCa-5cWw-13" value="&lt;span style=&quot;font-family: Helvetica; font-style: normal; font-variant-ligatures: normal; font-variant-caps: normal; font-weight: 700; letter-spacing: normal; orphans: 2; text-indent: 0px; text-transform: none; widows: 2; word-spacing: 0px; -webkit-text-stroke-width: 0px; text-decoration-thickness: initial; text-decoration-style: initial; text-decoration-color: initial; float: none; display: inline !important;&quot;&gt;&lt;font style=&quot;font-size: 11px;&quot; color=&quot;#354a5f&quot;&gt;Cloud &lt;br&gt;Connector&lt;/font&gt;&lt;/span&gt;" style="text;whiteSpace=wrap;html=1;align=center;" vertex="1" parent="Qs1oaVuJ13_xLCa-5cWw-11">
          <mxGeometry y="28.25" width="67" height="40" as="geometry" />
        </mxCell>
        <mxCell id="Qs1oaVuJ13_xLCa-5cWw-14" value="" style="group" vertex="1" connectable="0" parent="1">
          <mxGeometry x="370" y="244" width="110" height="95" as="geometry" />
        </mxCell>
        <mxCell id="Qs1oaVuJ13_xLCa-5cWw-15" value="&lt;font color=&quot;#1d2d3e&quot; size=&quot;1&quot; face=&quot;arial&quot; style=&quot;&quot;&gt;&lt;b style=&quot;font-size: 14px;&quot;&gt;Destination&lt;br&gt;&lt;/b&gt;&lt;/font&gt;" style="text;html=1;align=center;verticalAlign=top;resizable=1;points=[[0,0.5,0,0,0],[0.21,1,0,0,0],[0.5,1,0,0,0],[0.85,1,0,0,0],[1,0.5,0,0,0]];autosize=0;strokeColor=none;fillColor=none;fontSize=12;fontColor=default;fontFamily=Helvetica;fixedWidth=1;imageWidth=24;whiteSpace=wrap;labelBackgroundColor=none;" vertex="1" parent="Qs1oaVuJ13_xLCa-5cWw-14">
          <mxGeometry y="49" width="110" height="46" as="geometry" />
        </mxCell>
        <mxCell id="Qs1oaVuJ13_xLCa-5cWw-16" value="" style="shape=image;verticalLabelPosition=bottom;verticalAlign=top;imageAspect=0;aspect=fixed;image=data:image/svg+xml,PHN2ZyB4bWxucz0iaHR0cDovL3d3dy53My5vcmcvMjAwMC9zdmciIGZpbGw9Im5vbmUiIHZpZXdCb3g9IjAgMCA0OCA0OSIgaGVpZ2h0PSI0OSIgd2lkdGg9IjQ4Ij4mI3hhOzxjaXJjbGUgc3Ryb2tlLXdpZHRoPSIwLjg1NzE0MyIgc3Ryb2tlPSIjRDVEQUREIiBmaWxsPSJ1cmwoI3BhaW50MF9saW5lYXJfMjYyMV8yOTIwMikiIHI9IjIzLjU3MTQiIGN5PSIyNC4wNDkxIiBjeD0iMjQiLz4mI3hhOzxnIGNsaXAtcGF0aD0idXJsKCNjbGlwMF8yNjIxXzI5MjAyKSI+JiN4YTs8cGF0aCBmaWxsPSJ1cmwoI3BhaW50MV9yYWRpYWxfMjYyMV8yOTIwMikiIGQ9Ik0zMC45MTE3IDkuNjAxODFIMjIuOTQyOUMyMi42NDQ2IDkuNjAxODEgMjIuMzU4NSA5LjcyMDMxIDIyLjE0NzYgOS45MzEyNEMyMS45MzY2IDEwLjE0MjIgMjEuODE4MSAxMC40MjgyIDIxLjgxODEgMTAuNzI2NVYxNC42NzVDMjEuODE4MSAxNS41OTc0IDIxLjQ4ODcgMTYuMzg4IDIwLjgyOTkgMTcuMDQ2OUMyMC4xNzEgMTcuNzA1OCAxOS4zODA0IDE4LjAzNTIgMTguNDU4IDE4LjAzNTJIMTQuNTA5NUMxNC4yMTEyIDE4LjAzNTIgMTMuOTI1MSAxOC4xNTM3IDEzLjcxNDIgMTguMzY0NkMxMy41MDMzIDE4LjU3NTUgMTMuMzg0OCAxOC44NjE2IDEzLjM4NDggMTkuMTU5OVYzMy44NDkxQzEzLjM4NDggMzUuMzQwMiAxNC41OTM2IDM2LjU0OTEgMTYuMDg0OCAzNi41NDkxSDIzLjEwMUMyMi41OTQ5IDM2LjA0NSAyMi4xMzM0IDM1LjQ5NjIgMjEuNzIyOCAzNC45MDkxQzIxLjQwMjQgMzQuNDUwOSAyMS41MTQxIDMzLjgxOTYgMjEuOTcyNCAzMy40OTkxQzIyLjQzMDYgMzMuMTc4NyAyMy4wNjE5IDMzLjI5MDQgMjMuMzgyMyAzMy43NDg3QzI0LjA1ODEgMzQuNzE1MiAyNC45MDAxIDM1LjU1NzEgMjUuODY2NiAzNi4yMzI5QzI1Ljk4OTcgMzYuMzE5IDI2LjA4NzggMzYuNDI3NSAyNi4xNTkyIDM2LjU0OTFIMzAuOTExN0MzMi4xNjg1IDM2LjU0OTEgMzMuMjI0NyAzNS42OTA0IDMzLjUyNTcgMzQuNTI3N0MzMy4xMzk0IDM0LjU5ODYgMzIuNzQwNiAzNC42MzM5IDMyLjMzMSAzNC42MzM5SDMwLjk0N0MzMC4xNjY5IDM0LjYzMzkgMjkuNTAwMSAzNC4zMDcyIDI5LjAwMTUgMzMuODA4NkMyOC41OTMzIDMzLjQwMDQgMjguMzMxNiAzMi44OTQzIDI4LjI0MTUgMzIuMzM1M0wyNy4xNTU5IDMyLjM0NzNDMjYuNDUxNSAzMi4zNDczIDI1Ljc0IDMyLjExMTcgMjUuMTgwMyAzMS41NTJDMjQuNjIwNyAzMC45OTI0IDI0LjM4NTIgMzAuMjgwOSAyNC4zODUyIDI5LjU3NjVDMjQuMzg1MiAyOS4wNDY0IDI0LjUxODYgMjguNTEyNCAyNC44MjMgMjguMDQyQzI0LjUxODYgMjcuNTcxNiAyNC4zODUyIDI3LjAzNzYgMjQuMzg1MiAyNi41MDc1QzI0LjM4NTIgMjUuODAzMSAyNC42MjA3IDI1LjA5MTYgMjUuMTgwMyAyNC41MzJDMjUuNzUzOSAyMy45NTg0IDI2LjQ3ODYgMjMuNzY2OSAyNy4xMjU4IDIzLjc2NjlMMjguMjQ0NiAyMy43NjY5QzI4LjMzMTUgMjMuMjI4IDI4LjU3MDMgMjIuNzA2NiAyOS4wMDE1IDIyLjI3NTRDMjkuNTMxNyAyMS43NDUyIDMwLjIyODcgMjEuNDUzIDMwLjk5NzkgMjEuNDc5M0wzMi4zMTIzIDIxLjQ1MDFIMzIuMzMxQzMyLjc3MDcgMjEuNDUwMSAzMy4xOTg1IDIxLjQ4OTIgMzMuNjExNyAyMS41Njg4VjE4LjE1NDNDMzMuNTI5NyAxOC4xNjAyIDMzLjQ0NTcgMTguMTU2MyAzMy4zNjExIDE4LjE0MTNDMzIuNzkxMSAxOC4wNDA2IDMyLjIwMzggMTcuOTg3OSAzMS42MDM1IDE3Ljk4NzlDMzEuMDAzMSAxNy45ODc5IDMwLjQxNTggMTguMDQwNiAyOS44NDU5IDE4LjE0MTNDMjkuMjk1MiAxOC4yMzg2IDI4Ljc2OTkgMTcuODcxMSAyOC42NzI2IDE3LjMyMDVDMjguNTc1MyAxNi43Njk4IDI4Ljk0MjggMTYuMjQ0NSAyOS40OTM0IDE2LjE0NzJDMzAuMTc5MiAxNi4wMjYgMzAuODg0NCAxNS45NjI5IDMxLjYwMzUgMTUuOTYyOUMzMi4yODcgMTUuOTYyOSAzMi45NTggMTYuMDE5OSAzMy42MTE3IDE2LjEyOTdWMTIuMzAxOEMzMy42MTE3IDEwLjgxMDYgMzIuNDAyOSA5LjYwMTgxIDMwLjkxMTcgOS42MDE4MVpNMjYuMTE2MSAxOC4zODA3QzI2LjQzNjYgMTguODM5IDI2LjMyNDkgMTkuNDcwMyAyNS44NjY2IDE5Ljc5MDdDMjQuOTAwMSAyMC40NjY1IDI0LjA1ODEgMjEuMzA4NSAyMy4zODIzIDIyLjI3NUMyMy4wNjE5IDIyLjczMzIgMjIuNDMwNiAyMi44NDQ5IDIxLjk3MjQgMjIuNTI0NUMyMS41MTQxIDIyLjIwNDEgMjEuNDAyNCAyMS41NzI4IDIxLjcyMjggMjEuMTE0NUMyMi41MzQ1IDE5Ljk1MzggMjMuNTQ1NCAxOC45NDI5IDI0LjcwNjIgMTguMTMxMkMyNS4xNjQ0IDE3LjgxMDcgMjUuNzk1NyAxNy45MjI1IDI2LjExNjEgMTguMzgwN1pNMjAuOTEyMSAyNS4wODFDMjEuNDYyOCAyNS4xNzgzIDIxLjgzMDMgMjUuNzAzNiAyMS43MzI5IDI2LjI1NDJDMjEuNjMyMiAyNi44MjQyIDIxLjU3OTUgMjcuNDExNCAyMS41Nzk1IDI4LjAxMThDMjEuNTc5NSAyOC42MTIyIDIxLjYzMjIgMjkuMTk5NSAyMS43MzI5IDI5Ljc2OTRDMjEuODMwMyAzMC4zMjAxIDIxLjQ2MjggMzAuODQ1NCAyMC45MTIxIDMwLjk0MjdDMjAuMzYxNSAzMS4wNCAxOS44MzYyIDMwLjY3MjUgMTkuNzM4OCAzMC4xMjE5QzE5LjYxNzYgMjkuNDM2MSAxOS41NTQ1IDI4LjczMDkgMTkuNTU0NSAyOC4wMTE4QzE5LjU1NDUgMjcuMjkyOCAxOS42MTc2IDI2LjU4NzYgMTkuNzM4OCAyNS45MDE4QzE5LjgzNjIgMjUuMzUxMSAyMC4zNjE0IDI0Ljk4MzYgMjAuOTEyMSAyNS4wODFaIiBjbGlwLXJ1bGU9ImV2ZW5vZGQiIGZpbGwtcnVsZT0iZXZlbm9kZCIvPiYjeGE7PHBhdGggZmlsbD0idXJsKCNwYWludDJfcmFkaWFsXzI2MjFfMjkyMDIpIiBkPSJNMjYuMzczNiAyNS43MjUyQzI2LjE3MyAyNS45MjU4IDI2LjA3MjggMjYuMTg2NiAyNi4wNzI4IDI2LjUwNzVDMjYuMDcyOCAyNi44Mjg0IDI2LjE3MyAyNy4wODkyIDI2LjM3MzYgMjcuMjg5OEMyNi41NzQyIDI3LjQ5MDQgMjYuODM1IDI3LjU5MDcgMjcuMTU1OSAyNy41OTA3TDI5Ljg5MzkgMjcuNTYwNkwyOS44OTM5IDI4LjUyMzRMMjcuMTU1OSAyOC40OTMzQzI2LjgzNSAyOC40OTMzIDI2LjU3NDIgMjguNTkzNiAyNi4zNzM2IDI4Ljc5NDJDMjYuMTczIDI4Ljk5NDggMjYuMDcyOCAyOS4yNTU2IDI2LjA3MjggMjkuNTc2NUMyNi4wNzI4IDI5Ljg5NzQgMjYuMTczIDMwLjE1ODIgMjYuMzczNiAzMC4zNTg4QzI2LjU3NDIgMzAuNTU5NCAyNi44MzUgMzAuNjU5NyAyNy4xNTU5IDMwLjY1OTdMMjkuODkzOSAzMC42Mjk2VjMxLjg5MzNDMjkuODkzOSAzMi4xNzQxIDI5Ljk5NDIgMzIuNDE0OCAzMC4xOTQ4IDMyLjYxNTRDMzAuNDE1NSAzMi44MzYgMzAuNjY2MiAzMi45NDY0IDMwLjk0NyAzMi45NDY0SDMyLjMzMTFDMzMuNDk0NSAzMi45NDY0IDM0LjQ4NzQgMzIuNTc1MyAzNS4zMDk4IDMxLjgzMzFDMzYuMTMyMiAzMS4wOTA5IDM2LjYwMzYgMzAuMTU4MiAzNi43MjQgMjkuMDM0OUwzOS40Mjc4IDI5LjAzNDlDMzkuNzQ4NyAyOS4wMzQ5IDQwLjAwOTUgMjguOTM0NiA0MC4yMTAxIDI4LjczNEM0MC4zOTA2IDI4LjU1MzUgNDAuNDgwOSAyOC4zMDI3IDQwLjQ4MDkgMjcuOTgxOEM0MC40ODA5IDI3LjY2MDkgNDAuMzgwNiAyNy40MDAxIDQwLjE4IDI3LjE5OTVDMzkuOTc5NCAyNi45OTg5IDM5LjcxODcgMjYuODk4NiAzOS4zOTc3IDI2Ljg5ODZMMzYuNjkzOSAyNi44OTg3QzM2LjUzMzQgMjUuODE1NSAzNi4wNTIgMjQuOTEyOCAzNS4yNDk2IDI0LjE5MDdDMzQuNDY3MyAyMy40ODg3IDMzLjQ5NDUgMjMuMTM3NiAzMi4zMzExIDIzLjEzNzZMMzAuOTc3MSAyMy4xNjc3QzMwLjY3NjIgMjMuMTQ3NyAzMC40MTU1IDIzLjI0OCAzMC4xOTQ4IDIzLjQ2ODZDMjkuOTk0MiAyMy42NjkyIDI5Ljg5MzkgMjMuOTMgMjkuODkzOSAyNC4yNTA5TDI5Ljg5MzkgMjUuNDU0NEwyNy4xMjU4IDI1LjQ1NDRDMjYuODA0OSAyNS40NTQ0IDI2LjU1NDIgMjUuNTQ0NyAyNi4zNzM2IDI1LjcyNTJaIi8+JiN4YTs8cGF0aCBmaWxsPSJ1cmwoI3BhaW50M19yYWRpYWxfMjYyMV8yOTIwMikiIGQ9Ik0yMC41NjcgMTQuNTA1NFYxMS41MTE4TDE1LjI5NDcgMTYuNzg0MUgxOC4yODgzQzE4LjkxMzggMTYuNzg0MSAxOS40NSAxNi41NjA3IDE5Ljg5NjggMTYuMTEzOUMyMC4zNDM2IDE1LjY2NzEgMjAuNTY3IDE1LjEzMDkgMjAuNTY3IDE0LjUwNTRaIi8+JiN4YTs8L2c+JiN4YTs8ZGVmcz4mI3hhOzxsaW5lYXJHcmFkaWVudCBncmFkaWVudFVuaXRzPSJ1c2VyU3BhY2VPblVzZSIgeTI9IjQ0LjI5MzQiIHgyPSI0MS4wNjQ1IiB5MT0iNi44NjE5MSIgeDE9IjQuMzUyODciIGlkPSJwYWludDBfbGluZWFyXzI2MjFfMjkyMDIiPiYjeGE7PHN0b3Agc3RvcC1jb2xvcj0id2hpdGUiLz4mI3hhOzxzdG9wIHN0b3AtY29sb3I9IiNFQUVDRUUiIG9mZnNldD0iMSIvPiYjeGE7PC9saW5lYXJHcmFkaWVudD4mI3hhOzxyYWRpYWxHcmFkaWVudCBncmFkaWVudFRyYW5zZm9ybT0idHJhbnNsYXRlKDE2LjUyMTQgMTMuNTU4NSkgcm90YXRlKDUzLjQxMjYpIHNjYWxlKDIzLjQ5NDggNDIuNDkzOSkiIGdyYWRpZW50VW5pdHM9InVzZXJTcGFjZU9uVXNlIiByPSIxIiBjeT0iMCIgY3g9IjAiIGlkPSJwYWludDFfcmFkaWFsXzI2MjFfMjkyMDIiPiYjeGE7PHN0b3Agc3RvcC1jb2xvcj0iIzAxOTVGRiIvPiYjeGE7PHN0b3Agc3RvcC1jb2xvcj0iIzExNDdFOSIgb2Zmc2V0PSIxIi8+JiN4YTs8L3JhZGlhbEdyYWRpZW50PiYjeGE7PHJhZGlhbEdyYWRpZW50IGdyYWRpZW50VHJhbnNmb3JtPSJ0cmFuc2xhdGUoMjguMzAzOCAyNC42MTMyKSByb3RhdGUoMzQuMjQ2MSkgc2NhbGUoMTIuMTQxMyAxMC4yOTM1KSIgZ3JhZGllbnRVbml0cz0idXNlclNwYWNlT25Vc2UiIHI9IjEiIGN5PSIwIiBjeD0iMCIgaWQ9InBhaW50Ml9yYWRpYWxfMjYyMV8yOTIwMiI+JiN4YTs8c3RvcCBzdG9wLWNvbG9yPSIjMTM0OEZGIi8+JiN4YTs8c3RvcCBzdG9wLWNvbG9yPSIjMDYyMzhEIiBvZmZzZXQ9IjEiLz4mI3hhOzwvcmFkaWFsR3JhZGllbnQ+JiN4YTs8cmFkaWFsR3JhZGllbnQgZ3JhZGllbnRUcmFuc2Zvcm09InRyYW5zbGF0ZSgxNi4xMTExIDEyLjMwNDkpIHJvdGF0ZSg0NSkgc2NhbGUoNS4xOTM3NyA0LjczMjg5KSIgZ3JhZGllbnRVbml0cz0idXNlclNwYWNlT25Vc2UiIHI9IjEiIGN5PSIwIiBjeD0iMCIgaWQ9InBhaW50M19yYWRpYWxfMjYyMV8yOTIwMiI+JiN4YTs8c3RvcCBzdG9wLWNvbG9yPSIjMTM0OEZGIi8+JiN4YTs8c3RvcCBzdG9wLWNvbG9yPSIjMDYyMzhEIiBvZmZzZXQ9IjEiLz4mI3hhOzwvcmFkaWFsR3JhZGllbnQ+JiN4YTs8Y2xpcFBhdGggaWQ9ImNsaXAwXzI2MjFfMjkyMDIiPiYjeGE7PHJlY3QgdHJhbnNmb3JtPSJ0cmFuc2xhdGUoMTMuNSA5LjU0OTA3KSIgZmlsbD0id2hpdGUiIGhlaWdodD0iMjciIHdpZHRoPSIyNyIvPiYjeGE7PC9jbGlwUGF0aD4mI3hhOzwvZGVmcz4mI3hhOzwvc3ZnPg==;points=[[0,0,0,0,0],[0,0.25,0,0,0],[0,0.5,0,0,0],[0,0.75,0,0,0],[0.25,0,0,0,0],[0.5,0,0,0,0],[0.75,0,0,0,0],[1,0,0,0,0],[1,0.25,0,0,0],[1,0.5,0,0,0],[1,0.75,0,0,0]];container=1;" vertex="1" parent="Qs1oaVuJ13_xLCa-5cWw-14">
          <mxGeometry x="31.5" width="48" height="49" as="geometry" />
        </mxCell>
        <mxCell id="Qs1oaVuJ13_xLCa-5cWw-17" value="" style="group" vertex="1" connectable="0" parent="1">
          <mxGeometry x="370" y="365" width="110" height="95" as="geometry" />
        </mxCell>
        <mxCell id="Qs1oaVuJ13_xLCa-5cWw-18" value="" style="shape=image;verticalLabelPosition=bottom;verticalAlign=top;imageAspect=0;aspect=fixed;image=data:image/svg+xml,PHN2ZyB4bWxucz0iaHR0cDovL3d3dy53My5vcmcvMjAwMC9zdmciIGZpbGw9Im5vbmUiIHZpZXdCb3g9IjAgMCA0OSA0OSIgaGVpZ2h0PSI0OSIgd2lkdGg9IjQ5Ij4mI3hhOzxjaXJjbGUgc3Ryb2tlLXdpZHRoPSIwLjg1NzE0MyIgc3Ryb2tlPSIjRDVEQUREIiBmaWxsPSJ1cmwoI3BhaW50MF9saW5lYXJfMjYyMl8zMDQwKSIgcj0iMjMuNTcxNCIgY3k9IjI0LjAzNDkiIGN4PSIyNC41Ii8+JiN4YTs8ZyBjbGlwLXBhdGg9InVybCgjY2xpcDBfMjYyMl8zMDQwKSI+JiN4YTs8cGF0aCBmaWxsPSJ1cmwoI3BhaW50MV9yYWRpYWxfMjYyMl8zMDQwKSIgZD0iTTEyLjMzODQgMjMuOTI0MUgxMi4zMzYxTDEyLjU3NzIgMjEuMjY4NUwxMi42MDggMjAuOTEzNkwxMi45MzM2IDIwLjc0OTlMMjAuMjcyMSAxNy4wNzY4TDIwLjYxMzQgMTYuOTA0NkwyMC45MzYgMTcuMTAyNkwyMy4xMzc0IDE4LjQ0NTNMMTIuMzM4NCAyMy45MjQxWk0yNi44NDI0IDIwLjcyNEwxMy4wNzU2IDI3LjYxNDZMMTIgMjguMTU0NkwxMi4yMjAxIDI1LjY1NjZMMTIuMjUxNiAyNS4zMDU2TDEyLjU3NDggMjUuMTM5NkwyNC4yNzgyIDE5LjE1NTJMMjQuNjA1NSAxOS4zNTMyTDI2Ljg0MjQgMjAuNzI0Wk0yNC4yMjIzIDI3LjgxMTVMMjUuMjc0MSAyOC4zOTM3TDI2LjQ3MjYgMjkuMDYwOEwyNi43ODg5IDI5LjIzNTJMMzguNTMwMSAyMy4zNjQ0TDM4Ljg3MzEgMjMuMTkyMkwzOC44OTEyIDIyLjgxOTlMMzguOTUxMiAyMS4zODQ5TDM5LjAwMDEgMjAuMjYzOUwyNC4yMjIzIDI3LjgxMTVaTTI4LjAwNzggMjkuOTUzNUwzNy43OTUyIDI1LjAyMzdMMzguODIxOSAyNC41MDUxTDM4Ljc3MDYgMjUuNjIzOUwzOC43MDgzIDI3LjAxNjFMMzguNjkyNiAyNy4zODYyTDM4LjM1NDIgMjcuNTU4NEwzMC43MjM0IDMxLjQ1NTlMMzAuNDA0OCAzMS4yNzkzTDI5LjA2ODMgMzAuNTQxM0wyOC4wMDc4IDI5Ljk1MzVaIiBjbGlwLXJ1bGU9ImV2ZW5vZGQiIGZpbGwtcnVsZT0iZXZlbm9kZCIvPiYjeGE7PHBhdGggZmlsbD0idXJsKCNwYWludDJfcmFkaWFsXzI2MjJfMzA0MCkiIGQ9Ik0yNC42Mzg3IDEwLjU0MzNMMjQuNjIzNSAxMC41MzQ5VjExLjcwNzdMMjQuNjEwMSAxMy4wNDQyVjEzLjM5NDdMMzUuNjU2IDIwLjQxMjRMMzUuOTgxNiAyMC42MjczTDM2LjMyNjkgMjAuNDU3NEwzOC42ODYxIDE5LjI5OThMMjQuNjM4NyAxMC41NDMzWiIvPiYjeGE7PHBhdGggZmlsbD0idXJsKCNwYWludDNfcmFkaWFsXzI2MjJfMzA0MCkiIGQ9Ik0xOS4xNjczIDI2LjIwMjhMMTguODQ4OCAyNi4wMjQ1TDE4LjUyMzIgMjYuMTg4MkwxNi4wNzI2IDI3LjQxNjdMMTcuMTMwOCAyOC4wMDYyTDI2LjY0MjEgMzMuMjg3VjMwLjQwMzZMMjYuMzEwMiAzMC4yMTYzTDE5LjE2NzMgMjYuMjAyOFoiLz4mI3hhOzxwYXRoIGZpbGw9InVybCgjcGFpbnQ0X3JhZGlhbF8yNjIyXzMwNDApIiBkPSJNMjQuNTU5IDE0Ljc4NTFIMjQuNTQ3OVYxNS45NjY0TDI0LjUzNDUgMTcuNDUzVjE3LjgwODVMMjQuODQzOCAxNy45OTk4TDMxLjc4NjIgMjIuMzM2MUwzMi4xMDcxIDIyLjUzNThMMzIuNDUwMSAyMi4zNjgyTDMzLjczNzggMjEuNzMzN0wzNC43NzE1IDIxLjIyNzRMMjQuNTU5IDE0Ljc4NTFaIi8+JiN4YTs8cGF0aCBmaWxsPSJ1cmwoI3BhaW50NV9yYWRpYWxfMjYyMl8zMDQwKSIgZD0iTTE1LjEzNjYgMjguMjYyMUwxNC44MjA0IDI4LjA4ODNMMTQuNDk3MiAyOC4yNDkyTDEyLjE5MzkgMjkuNDA5MUwxMi4xOTE2IDI5LjQxMzZMMjUuNjM2OCAzNi45NzEzTDI2LjY0MiAzNy41MzQ5VjM0LjYwMzhMMjYuMzA1NCAzNC40MTkzTDE1LjEzNjYgMjguMjYyMVoiLz4mI3hhOzwvZz4mI3hhOzxkZWZzPiYjeGE7PGxpbmVhckdyYWRpZW50IGdyYWRpZW50VW5pdHM9InVzZXJTcGFjZU9uVXNlIiB5Mj0iNDQuMjc5MiIgeDI9IjQxLjU2NDUiIHkxPSI2Ljg0Nzc1IiB4MT0iNC44NTI4NyIgaWQ9InBhaW50MF9saW5lYXJfMjYyMl8zMDQwIj4mI3hhOzxzdG9wIHN0b3AtY29sb3I9IndoaXRlIi8+JiN4YTs8c3RvcCBzdG9wLWNvbG9yPSIjRUFFQ0VFIiBvZmZzZXQ9IjEiLz4mI3hhOzwvbGluZWFyR3JhZGllbnQ+JiN4YTs8cmFkaWFsR3JhZGllbnQgZ3JhZGllbnRUcmFuc2Zvcm09InRyYW5zbGF0ZSgxNi4xODA5IDE0LjU5NjYpIHJvdGF0ZSg0NSkgc2NhbGUoMjYuNTk3OSAyNC4yMzc2KSIgZ3JhZGllbnRVbml0cz0idXNlclNwYWNlT25Vc2UiIHI9IjEiIGN5PSIwIiBjeD0iMCIgaWQ9InBhaW50MV9yYWRpYWxfMjYyMl8zMDQwIj4mI3hhOzxzdG9wIHN0b3AtY29sb3I9IiMxMzQ4RkYiLz4mI3hhOzxzdG9wIHN0b3AtY29sb3I9IiMwNjIzOEQiIG9mZnNldD0iMSIvPiYjeGE7PC9yYWRpYWxHcmFkaWVudD4mI3hhOzxyYWRpYWxHcmFkaWVudCBncmFkaWVudFRyYW5zZm9ybT0idHJhbnNsYXRlKDE2LjE4NyAxNC40OTkzKSByb3RhdGUoNDUuMzE4KSBzY2FsZSgyNi41ODQ0IDUwLjIyOTIpIiBncmFkaWVudFVuaXRzPSJ1c2VyU3BhY2VPblVzZSIgcj0iMSIgY3k9IjAiIGN4PSIwIiBpZD0icGFpbnQyX3JhZGlhbF8yNjIyXzMwNDAiPiYjeGE7PHN0b3Agc3RvcC1jb2xvcj0iIzAxOTVGRiIvPiYjeGE7PHN0b3Agc3RvcC1jb2xvcj0iIzExNDdFOSIgb2Zmc2V0PSIxIi8+JiN4YTs8L3JhZGlhbEdyYWRpZW50PiYjeGE7PHJhZGlhbEdyYWRpZW50IGdyYWRpZW50VHJhbnNmb3JtPSJ0cmFuc2xhdGUoMTYuMTg3IDE0LjQ5OTMpIHJvdGF0ZSg0NS4zMTgpIHNjYWxlKDI2LjU4NDQgNTAuMjI5MikiIGdyYWRpZW50VW5pdHM9InVzZXJTcGFjZU9uVXNlIiByPSIxIiBjeT0iMCIgY3g9IjAiIGlkPSJwYWludDNfcmFkaWFsXzI2MjJfMzA0MCI+JiN4YTs8c3RvcCBzdG9wLWNvbG9yPSIjMDE5NUZGIi8+JiN4YTs8c3RvcCBzdG9wLWNvbG9yPSIjMTE0N0U5IiBvZmZzZXQ9IjEiLz4mI3hhOzwvcmFkaWFsR3JhZGllbnQ+JiN4YTs8cmFkaWFsR3JhZGllbnQgZ3JhZGllbnRUcmFuc2Zvcm09InRyYW5zbGF0ZSgxNi4xODcgMTQuNDk5Mykgcm90YXRlKDQ1LjMxOCkgc2NhbGUoMjYuNTg0NCA1MC4yMjkyKSIgZ3JhZGllbnRVbml0cz0idXNlclNwYWNlT25Vc2UiIHI9IjEiIGN5PSIwIiBjeD0iMCIgaWQ9InBhaW50NF9yYWRpYWxfMjYyMl8zMDQwIj4mI3hhOzxzdG9wIHN0b3AtY29sb3I9IiMwMTk1RkYiLz4mI3hhOzxzdG9wIHN0b3AtY29sb3I9IiMxMTQ3RTkiIG9mZnNldD0iMSIvPiYjeGE7PC9yYWRpYWxHcmFkaWVudD4mI3hhOzxyYWRpYWxHcmFkaWVudCBncmFkaWVudFRyYW5zZm9ybT0idHJhbnNsYXRlKDE2LjE4NyAxNC40OTkzKSByb3RhdGUoNDUuMzE4KSBzY2FsZSgyNi41ODQ0IDUwLjIyOTIpIiBncmFkaWVudFVuaXRzPSJ1c2VyU3BhY2VPblVzZSIgcj0iMSIgY3k9IjAiIGN4PSIwIiBpZD0icGFpbnQ1X3JhZGlhbF8yNjIyXzMwNDAiPiYjeGE7PHN0b3Agc3RvcC1jb2xvcj0iIzAxOTVGRiIvPiYjeGE7PHN0b3Agc3RvcC1jb2xvcj0iIzExNDdFOSIgb2Zmc2V0PSIxIi8+JiN4YTs8L3JhZGlhbEdyYWRpZW50PiYjeGE7PGNsaXBQYXRoIGlkPSJjbGlwMF8yNjIyXzMwNDAiPiYjeGE7PHJlY3QgdHJhbnNmb3JtPSJ0cmFuc2xhdGUoMTIgMTAuNTM0OSkiIGZpbGw9IndoaXRlIiBoZWlnaHQ9IjI3IiB3aWR0aD0iMjciLz4mI3hhOzwvY2xpcFBhdGg+JiN4YTs8L2RlZnM+JiN4YTs8L3N2Zz4=;points=[[0,0,0,0,0],[0,0.25,0,0,0],[0,0.5,0,0,0],[0,0.75,0,0,0],[0.25,0,0,0,0],[0.5,0,0,0,0],[0.75,0,0,0,0],[1,0,0,0,0],[1,0.25,0,0,0],[1,0.5,0,0,0],[1,0.75,0,0,0]];" vertex="1" parent="Qs1oaVuJ13_xLCa-5cWw-17">
          <mxGeometry x="30.5" width="49" height="49" as="geometry" />
        </mxCell>
        <mxCell id="Qs1oaVuJ13_xLCa-5cWw-19" value="&lt;font color=&quot;#1d2d3e&quot; size=&quot;1&quot; face=&quot;arial&quot; style=&quot;&quot;&gt;&lt;b style=&quot;font-size: 14px;&quot;&gt;Business Application Studio&lt;br&gt;&lt;/b&gt;&lt;/font&gt;" style="text;html=1;align=center;verticalAlign=top;resizable=1;points=[[0,0.5,0,0,0],[0.21,1,0,0,0],[0.5,1,0,0,0],[0.85,1,0,0,0],[1,0.5,0,0,0]];autosize=0;strokeColor=none;fillColor=none;fontSize=12;fontColor=default;fontFamily=Helvetica;fixedWidth=1;imageWidth=24;whiteSpace=wrap;labelBackgroundColor=none;" vertex="1" parent="Qs1oaVuJ13_xLCa-5cWw-17">
          <mxGeometry y="49" width="110" height="46" as="geometry" />
        </mxCell>
        <mxCell id="Qs1oaVuJ13_xLCa-5cWw-20" style="edgeStyle=orthogonalEdgeStyle;rounded=0;orthogonalLoop=1;jettySize=auto;html=1;" edge="1" parent="1" source="Qs1oaVuJ13_xLCa-5cWw-3" target="Qs1oaVuJ13_xLCa-5cWw-19">
          <mxGeometry relative="1" as="geometry" />
        </mxCell>
        <mxCell id="Qs1oaVuJ13_xLCa-5cWw-21" style="edgeStyle=orthogonalEdgeStyle;rounded=0;orthogonalLoop=1;jettySize=auto;html=1;" edge="1" parent="1" source="Qs1oaVuJ13_xLCa-5cWw-18" target="Qs1oaVuJ13_xLCa-5cWw-15">
          <mxGeometry relative="1" as="geometry" />
        </mxCell>
        <mxCell id="Qs1oaVuJ13_xLCa-5cWw-22" style="edgeStyle=orthogonalEdgeStyle;rounded=0;orthogonalLoop=1;jettySize=auto;html=1;entryX=0;entryY=0.5;entryDx=0;entryDy=0;" edge="1" parent="1" source="Qs1oaVuJ13_xLCa-5cWw-15" target="Qs1oaVuJ13_xLCa-5cWw-8">
          <mxGeometry relative="1" as="geometry" />
        </mxCell>
        <mxCell id="hVVxi7xm33u0Mf7M3e-k-1" value="&lt;span style=&quot;color: rgb(29, 45, 62); font-family: arial; font-size: 12px; font-style: normal; font-variant-ligatures: normal; font-variant-caps: normal; font-weight: 400; letter-spacing: normal; orphans: 2; text-align: center; text-indent: 0px; text-transform: none; widows: 2; word-spacing: 0px; -webkit-text-stroke-width: 0px; white-space: nowrap; background-color: rgb(251, 251, 251); text-decoration-thickness: initial; text-decoration-style: initial; text-decoration-color: initial; display: inline !important; float: none;&quot;&gt;Custo: 28,00 EUR - BAS&lt;/span&gt;&lt;div&gt;&lt;font face=&quot;arial&quot; color=&quot;#1d2d3e&quot;&gt;&lt;span style=&quot;text-wrap: nowrap;&quot;&gt;Free Destination&lt;/span&gt;&lt;/font&gt;&lt;/div&gt;" style="text;whiteSpace=wrap;html=1;" vertex="1" parent="1">
          <mxGeometry x="90" y="640" width="150" height="40" as="geometry" />
        </mxCell>
      </root>
    </mxGraphModel>
  </diagram>
</mxfile>
